<svg width="107" height="66" viewBox="0 0 107 66" fill="none" xmlns="http://www.w3.org/2000/svg">
<path d="M79.8008 59.6C79.5008 59.5 79.3008 59.6 79.3008 59.9C79.3008 60.2 79.5008 60.5 79.8008 60.7C80.1008 60.9 80.3008 60.7 80.3008 60.4C80.2008 60.1 80.0008 59.7 79.8008 59.6Z" fill="#818184" style="fill:#818184;fill:color(display-p3 0.5059 0.5059 0.5176);fill-opacity:1;"/>
<path d="M79.801 59.7C79.701 59.7 79.601 59.6 79.601 59.7C79.601 59.7 79.501 59.8 79.501 59.9C79.501 60.1 79.701 60.4 79.901 60.5C80.001 60.5 80.101 60.6 80.101 60.5C80.101 60.5 80.201 60.4 80.201 60.3C80.101 60.1 80.001 59.8 79.801 59.7Z" fill="#5E5E5E" style="fill:#5E5E5E;fill:color(display-p3 0.3686 0.3686 0.3686);fill-opacity:1;"/>
<path d="M79.8004 60.5C79.8004 60.6 79.9004 60.6 80.0004 60.5C80.0004 60.5 79.9004 60.5 79.8004 60.5Z" fill="#757575" style="fill:#757575;fill:color(display-p3 0.4588 0.4588 0.4588);fill-opacity:1;"/>
<path d="M79.8006 59.3C80.2006 59.5 80.5006 60 80.5006 60.4C80.5006 60.8 80.2006 61 79.8006 60.8C79.4006 60.6 79.1006 60.1 79.1006 59.7C79.1006 59.3 79.4006 59.1 79.8006 59.3ZM79.8006 60.6C80.0006 60.7 80.2006 60.6 80.2006 60.3C80.2006 60 80.0006 59.7 79.8006 59.5C79.6006 59.4 79.4006 59.5 79.4006 59.8C79.4006 60.1 79.5006 60.5 79.8006 60.6Z" fill="#2B2927" style="fill:#2B2927;fill:color(display-p3 0.1686 0.1608 0.1529);fill-opacity:1;"/>
<path d="M80.7008 59.8C80.6008 59.7 80.5008 59.5 80.4008 59.4C80.3008 59.3 80.2008 59.2 80.1008 59.2C79.9008 59.1 79.8008 59.1 79.6008 59.2L79.3008 59.4C79.4008 59.3 79.6008 59.3 79.8008 59.4C79.9008 59.5 80.0008 59.5 80.1008 59.6C80.2008 59.7 80.3008 59.9 80.4008 60C80.5008 60.2 80.5008 60.3 80.5008 60.5C80.5008 60.7 80.4008 60.9 80.3008 60.9L80.6008 60.7C80.7008 60.6 80.8008 60.5 80.8008 60.3C80.8008 60.1 80.7008 59.9 80.7008 59.8Z" fill="url(#paint0_linear_106_9330)" style=""/>
<path d="M79.9002 60.0001C79.8002 59.9001 79.8002 59.9001 79.8002 59.8001C79.8002 59.8001 79.8002 59.8001 79.9002 59.9001C79.9002 60.0001 79.9002 60.0001 79.9002 60.0001C79.9002 60.1001 79.9002 60.1001 79.9002 60.1001C79.9002 60.2001 79.9002 60.2001 79.9002 60.2001V60.1001C80.0002 60.1001 80.0002 60.1001 79.9002 60.0001Z" fill="#757575" style="fill:#757575;fill:color(display-p3 0.4588 0.4588 0.4588);fill-opacity:1;"/>
<path d="M79.8006 59.9001C79.7006 59.8001 79.6006 59.9001 79.6006 60.0001C79.6006 60.1001 79.7006 60.2001 79.8006 60.3001C79.9006 60.4001 80.0006 60.3001 80.0006 60.2001C79.9006 60.1001 79.9006 60.0001 79.8006 59.9001Z" fill="#818184" style="fill:#818184;fill:color(display-p3 0.5059 0.5059 0.5176);fill-opacity:1;"/>
<path d="M79.9002 58.7L79.8002 60.3C79.8002 60.4 79.8002 60.5 79.7002 60.5L80.1002 60.3C80.2002 60.3 80.2002 60.2 80.2002 60.1L80.3002 58.5L79.9002 58.7Z" fill="#818184" style="fill:#818184;fill:color(display-p3 0.5059 0.5059 0.5176);fill-opacity:1;"/>
<path d="M79.4 58L79 58.2L79.9 58.7L80.2 58.5L79.4 58Z" fill="#AAAFAF" style="fill:#AAAFAF;fill:color(display-p3 0.6667 0.6863 0.6863);fill-opacity:1;"/>
<path d="M79 58.2L79.1 60.3L79.4 60.5C79.6 60.6 79.7 60.5 79.7 60.3L79.8 58.7L79 58.2Z" fill="#5E5E5E" style="fill:#5E5E5E;fill:color(display-p3 0.3686 0.3686 0.3686);fill-opacity:1;"/>
<path d="M78.9004 60.1C78.6004 60 78.4004 60.1 78.4004 60.4C78.4004 60.7 78.6004 61 78.9004 61.2C79.2004 61.3 79.4004 61.2 79.4004 60.9C79.4004 60.6 79.2004 60.2 78.9004 60.1Z" fill="#818184" style="fill:#818184;fill:color(display-p3 0.5059 0.5059 0.5176);fill-opacity:1;"/>
<path d="M78.9006 60.2C78.8006 60.2 78.7006 60.1 78.7006 60.2C78.7006 60.2 78.6006 60.3 78.6006 60.4C78.6006 60.6 78.8006 60.9 79.0006 61C79.1006 61 79.2006 61.1 79.2006 61C79.2006 61 79.3006 60.9 79.3006 60.8C79.3006 60.6 79.1006 60.3 78.9006 60.2Z" fill="#5E5E5E" style="fill:#5E5E5E;fill:color(display-p3 0.3686 0.3686 0.3686);fill-opacity:1;"/>
<path d="M79.0006 60.9C78.8006 60.8 78.6006 60.5 78.6006 60.3C78.6006 60.6 78.7006 60.9 79.0006 60.9C79.0006 61 79.1006 61 79.2006 60.9C79.2006 61 79.1006 61 79.0006 60.9Z" fill="#757575" style="fill:#757575;fill:color(display-p3 0.4588 0.4588 0.4588);fill-opacity:1;"/>
<path d="M78.9002 59.8C79.3002 60 79.6002 60.5 79.6002 60.9C79.6002 61.3 79.3002 61.5 78.9002 61.3C78.5002 61.1 78.2002 60.6 78.2002 60.2C78.3002 59.8 78.6002 59.6 78.9002 59.8ZM78.9002 61.1C79.1002 61.2 79.3002 61.1 79.3002 60.8C79.3002 60.5 79.1002 60.2 78.9002 60C78.7002 59.9 78.5002 60 78.5002 60.3C78.5002 60.6 78.7002 60.9 78.9002 61.1Z" fill="#2B2927" style="fill:#2B2927;fill:color(display-p3 0.1686 0.1608 0.1529);fill-opacity:1;"/>
<path d="M79.8004 60.3C79.7004 60.2 79.6004 60 79.5004 59.9C79.4004 59.8 79.3004 59.7 79.2004 59.7C79.0004 59.6 78.9004 59.6 78.7004 59.7L78.4004 59.9C78.5004 59.8 78.7004 59.8 78.9004 59.9C79.0004 60 79.1004 60 79.2004 60.1C79.3004 60.2 79.4004 60.4 79.5004 60.5C79.6004 60.7 79.6004 60.8 79.6004 61C79.6004 61.2 79.5004 61.4 79.4004 61.4L79.7004 61.2C79.8004 61.1 79.9004 61 79.9004 60.8C79.9004 60.6 79.9004 60.4 79.8004 60.3Z" fill="url(#paint1_linear_106_9330)" style=""/>
<path d="M79.1004 60.5C79.0004 60.4 79.0004 60.4 79.0004 60.3C79.0004 60.3 79.0004 60.3 79.1004 60.4C79.0004 60.5 79.0004 60.5 79.1004 60.5Z" fill="#757575" style="fill:#757575;fill:color(display-p3 0.4588 0.4588 0.4588);fill-opacity:1;"/>
<path d="M78.9002 60.4C78.8002 60.3 78.7002 60.4 78.7002 60.5C78.7002 60.6 78.8002 60.7 78.9002 60.8C79.0002 60.9 79.1002 60.8 79.1002 60.7C79.1002 60.6 79.0002 60.4 78.9002 60.4Z" fill="#818184" style="fill:#818184;fill:color(display-p3 0.5059 0.5059 0.5176);fill-opacity:1;"/>
<path d="M53.6006 46.2C53.3006 46 53.1006 46.2 53.1006 46.5C53.1006 46.8 53.3006 47.2 53.6006 47.3C53.9006 47.5 54.1006 47.3 54.1006 47C54.1006 46.7 53.9006 46.4 53.6006 46.2Z" fill="#818184" style="fill:#818184;fill:color(display-p3 0.5059 0.5059 0.5176);fill-opacity:1;"/>
<path d="M53.6008 46.3C53.5008 46.3 53.4008 46.2 53.4008 46.3C53.4008 46.3 53.3008 46.4 53.3008 46.5C53.3008 46.7 53.5008 47 53.7008 47.1C53.8008 47.1 53.9008 47.2 53.9008 47.1C53.9008 47.1 54.0008 47 54.0008 46.9C54.0008 46.7 53.8008 46.5 53.6008 46.3Z" fill="#5E5E5E" style="fill:#5E5E5E;fill:color(display-p3 0.3686 0.3686 0.3686);fill-opacity:1;"/>
<path d="M53.7008 47.1C53.5008 47 53.3008 46.7 53.3008 46.5C53.3008 46.8 53.4008 47.1 53.7008 47.1C53.7008 47.2 53.9008 47.2 53.9008 47.1C53.9008 47.2 53.8008 47.2 53.7008 47.1Z" fill="#757575" style="fill:#757575;fill:color(display-p3 0.4588 0.4588 0.4588);fill-opacity:1;"/>
<path d="M53.6004 46C54.0004 46.2 54.3004 46.7 54.3004 47.2C54.3004 47.6 54.0004 47.8 53.6004 47.6C53.2004 47.4 52.9004 46.9 52.9004 46.4C53.0004 45.9 53.3004 45.8 53.6004 46ZM53.6004 47.3C53.9004 47.4 54.1004 47.3 54.1004 47C54.1004 46.7 53.9004 46.4 53.6004 46.2C53.3004 46.1 53.1004 46.2 53.1004 46.5C53.2004 46.8 53.4004 47.1 53.6004 47.3Z" fill="#2B2927" style="fill:#2B2927;fill:color(display-p3 0.1686 0.1608 0.1529);fill-opacity:1;"/>
<path d="M54.6006 46.4C54.5006 46.3 54.4006 46.1 54.3006 46C54.2006 45.9 54.1006 45.8 54.0006 45.8C53.8006 45.7 53.6006 45.7 53.5006 45.8L53.1006 46C53.2006 45.9 53.4006 45.9 53.6006 46C53.7006 46.1 53.8006 46.1 53.9006 46.2C54.0006 46.3 54.1006 46.5 54.2006 46.6C54.3006 46.8 54.3006 46.9 54.3006 47.1C54.3006 47.3 54.2006 47.5 54.1006 47.5L54.5006 47.3C54.6006 47.2 54.7006 47.1 54.7006 46.9C54.7006 46.8 54.6006 46.6 54.6006 46.4Z" fill="url(#paint2_linear_106_9330)" style=""/>
<path d="M53.8004 46.7C53.8004 46.7 53.8004 46.6 53.7004 46.6C53.7004 46.6 53.7004 46.6 53.6004 46.5H53.5004C53.5004 46.5 53.6004 46.5 53.6004 46.6C53.7004 46.6 53.7004 46.7 53.8004 46.7C53.8004 46.8 53.8004 46.8 53.8004 46.9C53.8004 47 53.8004 47 53.8004 47H53.9004V46.9C53.8004 46.8 53.8004 46.7 53.8004 46.7Z" fill="#757575" style="fill:#757575;fill:color(display-p3 0.4588 0.4588 0.4588);fill-opacity:1;"/>
<path d="M53.6004 46.6C53.5004 46.5 53.4004 46.6 53.4004 46.7C53.4004 46.8 53.5004 46.9 53.6004 47C53.7004 47.1 53.8004 47 53.8004 46.9C53.8004 46.7 53.7004 46.6 53.6004 46.6Z" fill="#818184" style="fill:#818184;fill:color(display-p3 0.5059 0.5059 0.5176);fill-opacity:1;"/>
<path d="M54 44.4L53.6 47.1C53.6 47.2 53.6 47.3 53.5 47.3L53.9 47.1C54 47.1 54 47 54 46.9L54.4 44.2L54 44.4Z" fill="#818184" style="fill:#818184;fill:color(display-p3 0.5059 0.5059 0.5176);fill-opacity:1;"/>
<path d="M53.5006 43.6L53.1006 43.9L54.0006 44.4L54.4006 44.2L53.5006 43.6Z" fill="#AAAFAF" style="fill:#AAAFAF;fill:color(display-p3 0.6667 0.6863 0.6863);fill-opacity:1;"/>
<path d="M53.1004 43.9L52.9004 47.1L53.2004 47.3C53.4004 47.4 53.5004 47.3 53.6004 47.1L54.0004 44.4L53.1004 43.9Z" fill="#5E5E5E" style="fill:#5E5E5E;fill:color(display-p3 0.3686 0.3686 0.3686);fill-opacity:1;"/>
<path d="M52.8008 46.7C52.5008 46.5 52.3008 46.7 52.3008 47C52.3008 47.3 52.5008 47.7 52.8008 47.8C53.1008 48 53.3008 47.8 53.3008 47.5C53.2008 47.2 53.0008 46.9 52.8008 46.7Z" fill="#818184" style="fill:#818184;fill:color(display-p3 0.5059 0.5059 0.5176);fill-opacity:1;"/>
<path d="M52.801 46.8C52.701 46.8 52.601 46.7 52.601 46.8C52.601 46.8 52.501 46.9 52.501 47C52.501 47.2 52.701 47.5 52.901 47.6C53.001 47.6 53.101 47.7 53.101 47.6C53.101 47.6 53.201 47.5 53.201 47.4C53.101 47.2 53.001 47 52.801 46.8Z" fill="#5E5E5E" style="fill:#5E5E5E;fill:color(display-p3 0.3686 0.3686 0.3686);fill-opacity:1;"/>
<path d="M52.8004 47.6C52.6004 47.5 52.4004 47.2 52.4004 47C52.4004 47.3 52.6004 47.6 52.8004 47.6C52.8004 47.7 53.0004 47.7 53.0004 47.6C53.0004 47.7 52.9004 47.7 52.8004 47.6Z" fill="#757575" style="fill:#757575;fill:color(display-p3 0.4588 0.4588 0.4588);fill-opacity:1;"/>
<path d="M52.8006 46.5C53.2006 46.7 53.5006 47.2 53.5006 47.7C53.5006 48.1 53.2006 48.3 52.8006 48.1C52.4006 47.9 52.1006 47.4 52.1006 46.9C52.1006 46.4 52.4006 46.3 52.8006 46.5ZM52.8006 47.8C53.1006 47.9 53.3006 47.8 53.3006 47.5C53.3006 47.2 53.1006 46.9 52.8006 46.7C52.5006 46.6 52.3006 46.7 52.3006 47C52.3006 47.3 52.5006 47.6 52.8006 47.8Z" fill="#2B2927" style="fill:#2B2927;fill:color(display-p3 0.1686 0.1608 0.1529);fill-opacity:1;"/>
<path d="M53.7002 46.9C53.6002 46.8 53.5002 46.6 53.4002 46.5C53.3002 46.4 53.2002 46.3 53.1002 46.3C52.9002 46.2 52.7002 46.2 52.6002 46.3L52.2002 46.5C52.3002 46.4 52.5002 46.4 52.7002 46.5C52.8002 46.6 52.9002 46.6 53.0002 46.7C53.1002 46.8 53.2002 47 53.3002 47.1C53.4002 47.3 53.4002 47.4 53.4002 47.6C53.4002 47.8 53.3002 48 53.2002 48L53.6002 47.8C53.7002 47.7 53.8002 47.6 53.8002 47.4C53.8002 47.3 53.8002 47.1 53.7002 46.9Z" fill="url(#paint3_linear_106_9330)" style=""/>
<path d="M52.901 47.2C52.901 47.2 52.901 47.1001 52.801 47.1001C52.801 47.1001 52.801 47.1 52.701 47H52.601C52.601 47 52.701 47.0001 52.701 47.1001C52.801 47.1001 52.901 47.2 52.901 47.2C52.901 47.3 52.901 47.3 52.901 47.4C52.901 47.5 52.901 47.5 52.901 47.5H53.001V47.4C53.001 47.3 53.001 47.2 52.901 47.2Z" fill="#757575" style="fill:#757575;fill:color(display-p3 0.4588 0.4588 0.4588);fill-opacity:1;"/>
<path d="M52.701 47.1C52.601 47 52.501 47.1 52.501 47.2C52.501 47.3 52.601 47.4 52.701 47.5C52.801 47.6 52.901 47.5 52.901 47.4C52.901 47.2 52.801 47.1 52.701 47.1Z" fill="#818184" style="fill:#818184;fill:color(display-p3 0.5059 0.5059 0.5176);fill-opacity:1;"/>
<path d="M55.2012 47.1C54.9012 46.9 54.7012 47.1 54.7012 47.4C54.7012 47.7 54.9012 48.1 55.2012 48.2C55.5012 48.4 55.7012 48.2 55.7012 47.9C55.6012 47.6 55.4012 47.2 55.2012 47.1Z" fill="#818184" style="fill:#818184;fill:color(display-p3 0.5059 0.5059 0.5176);fill-opacity:1;"/>
<path d="M55.2014 47.2C55.1014 47.2 55.0014 47.1 55.0014 47.2C55.0014 47.2 54.9014 47.3 54.9014 47.4C54.9014 47.6 55.1014 47.9 55.3014 48C55.4014 48 55.5014 48.1 55.5014 48C55.5014 48 55.6014 47.9 55.6014 47.8C55.5014 47.6 55.4014 47.3 55.2014 47.2Z" fill="#5E5E5E" style="fill:#5E5E5E;fill:color(display-p3 0.3686 0.3686 0.3686);fill-opacity:1;"/>
<path d="M55.2008 48C55.0008 47.9 54.8008 47.6 54.8008 47.4C54.8008 47.7 55.0008 47.9 55.2008 48C55.2008 48.1 55.4008 48.1 55.4008 48C55.4008 48.1 55.3008 48.1 55.2008 48Z" fill="#757575" style="fill:#757575;fill:color(display-p3 0.4588 0.4588 0.4588);fill-opacity:1;"/>
<path d="M55.201 46.9C55.601 47.1 55.901 47.6 55.901 48.1C55.901 48.5 55.601 48.7 55.201 48.5C54.801 48.3 54.501 47.8 54.501 47.3C54.501 46.8 54.801 46.6 55.201 46.9ZM55.201 48.2C55.501 48.3 55.701 48.2 55.701 47.9C55.701 47.6 55.501 47.3 55.201 47.1C54.901 47 54.701 47.1 54.701 47.4C54.701 47.7 54.901 48 55.201 48.2Z" fill="#2B2927" style="fill:#2B2927;fill:color(display-p3 0.1686 0.1608 0.1529);fill-opacity:1;"/>
<path d="M56.1006 47.3C56.0006 47.2 55.9006 47 55.8006 46.9C55.7006 46.8 55.6006 46.7 55.5006 46.7C55.3006 46.6 55.1006 46.6 55.0006 46.7L54.6006 46.9C54.7006 46.8 54.9006 46.8 55.1006 46.9C55.2006 47 55.3006 47 55.4006 47.1C55.5006 47.2 55.6006 47.4 55.7006 47.5C55.8006 47.7 55.8006 47.8 55.8006 48C55.8006 48.2 55.7006 48.4 55.6006 48.4L56.0006 48.2C56.1006 48.1 56.2006 48 56.2006 47.8C56.2006 47.7 56.2006 47.5 56.1006 47.3Z" fill="url(#paint4_linear_106_9330)" style=""/>
<path d="M55.3004 47.6C55.3004 47.6 55.3004 47.5 55.2004 47.5C55.2004 47.5 55.2004 47.5 55.1004 47.4H55.0004C55.0004 47.4 55.1004 47.4 55.1004 47.5C55.2004 47.5 55.3004 47.6 55.3004 47.6C55.3004 47.7 55.3004 47.7 55.3004 47.8C55.3004 47.9 55.3004 47.9 55.3004 47.9H55.4004V47.8C55.4004 47.7 55.4004 47.6 55.3004 47.6Z" fill="#757575" style="fill:#757575;fill:color(display-p3 0.4588 0.4588 0.4588);fill-opacity:1;"/>
<path d="M55.1004 47.4C55.0004 47.3 54.9004 47.4 54.9004 47.5C54.9004 47.6 55.0004 47.7 55.1004 47.8C55.2004 47.9 55.3004 47.8 55.3004 47.7C55.3004 47.6 55.2004 47.5 55.1004 47.4Z" fill="#818184" style="fill:#818184;fill:color(display-p3 0.5059 0.5059 0.5176);fill-opacity:1;"/>
<path d="M55.6006 45.3L55.2006 48C55.2006 48.1 55.2006 48.2 55.1006 48.2L55.5006 48C55.6006 48 55.6006 47.9 55.6006 47.8L56.0006 45.1L55.6006 45.3Z" fill="#818184" style="fill:#818184;fill:color(display-p3 0.5059 0.5059 0.5176);fill-opacity:1;"/>
<path d="M55.0006 44.5L54.6006 44.7L55.6006 45.3L55.9006 45L55.0006 44.5Z" fill="#AAAFAF" style="fill:#AAAFAF;fill:color(display-p3 0.6667 0.6863 0.6863);fill-opacity:1;"/>
<path d="M54.6004 44.7L54.4004 47.9L54.7004 48.1C54.9004 48.2 55.0004 48.1 55.1004 47.9L55.5004 45.2L54.6004 44.7Z" fill="#5E5E5E" style="fill:#5E5E5E;fill:color(display-p3 0.3686 0.3686 0.3686);fill-opacity:1;"/>
<path d="M54.3008 47.6C54.0008 47.4 53.8008 47.6 53.8008 47.9C53.8008 48.2 54.0008 48.6 54.3008 48.7C54.6008 48.9 54.8008 48.7 54.8008 48.4C54.8008 48.1 54.6008 47.7 54.3008 47.6Z" fill="#818184" style="fill:#818184;fill:color(display-p3 0.5059 0.5059 0.5176);fill-opacity:1;"/>
<path d="M54.301 47.7C54.201 47.7 54.101 47.6 54.101 47.7C54.101 47.7 54.001 47.8 54.001 47.9C54.001 48.1 54.201 48.4 54.401 48.5C54.501 48.5 54.601 48.6 54.601 48.5C54.601 48.5 54.701 48.4 54.701 48.3C54.701 48.1 54.501 47.8 54.301 47.7Z" fill="#5E5E5E" style="fill:#5E5E5E;fill:color(display-p3 0.3686 0.3686 0.3686);fill-opacity:1;"/>
<path d="M54.4006 48.5C54.2006 48.4 54.0006 48.1 54.0006 47.9C53.9006 48.2 54.1006 48.4 54.4006 48.5C54.4006 48.6 54.6006 48.6 54.6006 48.5C54.5006 48.6 54.4006 48.6 54.4006 48.5Z" fill="#757575" style="fill:#757575;fill:color(display-p3 0.4588 0.4588 0.4588);fill-opacity:1;"/>
<path d="M54.3006 47.4C54.7006 47.6 55.0006 48.1 55.0006 48.6C55.0006 49 54.7006 49.2 54.3006 49C53.9006 48.8 53.6006 48.3 53.6006 47.8C53.6006 47.3 53.9006 47.1 54.3006 47.4ZM54.3006 48.7C54.6006 48.8 54.8006 48.7 54.8006 48.4C54.8006 48.1 54.6006 47.8 54.3006 47.6C54.0006 47.5 53.8006 47.6 53.8006 47.9C53.8006 48.2 54.0006 48.5 54.3006 48.7Z" fill="#2B2927" style="fill:#2B2927;fill:color(display-p3 0.1686 0.1608 0.1529);fill-opacity:1;"/>
<path d="M55.2002 47.8C55.1002 47.7 55.0002 47.5 54.9002 47.4C54.8002 47.3 54.7002 47.2 54.6002 47.2C54.4002 47.1 54.2002 47.1 54.1002 47.2L53.7002 47.4C53.8002 47.3 54.0002 47.3 54.2002 47.4C54.3002 47.5 54.4002 47.5 54.5002 47.6C54.6002 47.7 54.7002 47.9 54.8002 48C54.9002 48.2 54.9002 48.3 54.9002 48.5C54.9002 48.7 54.8002 48.9 54.7002 48.9L55.1002 48.7C55.2002 48.6 55.3002 48.5 55.3002 48.3C55.3002 48.2 55.3002 48 55.2002 47.8Z" fill="url(#paint5_linear_106_9330)" style=""/>
<path d="M54.5006 48.1C54.5006 48.1 54.5006 48 54.4006 48C54.4006 48 54.4006 48 54.3006 47.9H54.2006C54.2006 47.9 54.3006 47.9 54.3006 48C54.4006 48 54.4006 48.1 54.5006 48.1C54.5006 48.2 54.5006 48.2 54.5006 48.3C54.5006 48.4 54.5006 48.4 54.5006 48.4H54.6006V48.3C54.5006 48.2 54.5006 48.1 54.5006 48.1Z" fill="#757575" style="fill:#757575;fill:color(display-p3 0.4588 0.4588 0.4588);fill-opacity:1;"/>
<path d="M54.3006 47.9C54.2006 47.8 54.1006 47.9 54.1006 48C54.1006 48.1 54.2006 48.2 54.3006 48.3C54.4006 48.4 54.5006 48.3 54.5006 48.2C54.4006 48.1 54.4006 48 54.3006 47.9Z" fill="#818184" style="fill:#818184;fill:color(display-p3 0.5059 0.5059 0.5176);fill-opacity:1;"/>
<path d="M56.7012 48C56.4012 47.8 56.2012 48 56.2012 48.3C56.2012 48.6 56.4012 49 56.7012 49.1C57.0012 49.3 57.2012 49.1 57.2012 48.8C57.2012 48.5 57.0012 48.1 56.7012 48Z" fill="#818184" style="fill:#818184;fill:color(display-p3 0.5059 0.5059 0.5176);fill-opacity:1;"/>
<path d="M56.7014 48.1C56.6014 48.1 56.5014 48 56.5014 48.1C56.5014 48.1 56.4014 48.2 56.4014 48.3C56.4014 48.5 56.6014 48.8 56.8014 48.9C56.9014 48.9 57.0014 49 57.0014 48.9C57.0014 48.9 57.1014 48.8 57.1014 48.7C57.1014 48.5 56.9014 48.2 56.7014 48.1Z" fill="#5E5E5E" style="fill:#5E5E5E;fill:color(display-p3 0.3686 0.3686 0.3686);fill-opacity:1;"/>
<path d="M56.801 48.9C56.601 48.8 56.401 48.5 56.401 48.3C56.301 48.5 56.501 48.8 56.801 48.9C56.801 49 57.001 49 57.001 48.9C56.901 49 56.801 48.9 56.801 48.9Z" fill="#757575" style="fill:#757575;fill:color(display-p3 0.4588 0.4588 0.4588);fill-opacity:1;"/>
<path d="M56.701 47.7C57.101 47.9 57.401 48.4 57.401 48.9C57.401 49.3 57.101 49.5 56.701 49.3C56.301 49.1 56.001 48.6 56.001 48.1C56.001 47.7 56.301 47.5 56.701 47.7ZM56.701 49C57.001 49.1 57.201 49 57.201 48.7C57.201 48.4 57.001 48.1 56.701 47.9C56.401 47.8 56.201 47.9 56.201 48.2C56.201 48.5 56.401 48.9 56.701 49Z" fill="#2B2927" style="fill:#2B2927;fill:color(display-p3 0.1686 0.1608 0.1529);fill-opacity:1;"/>
<path d="M57.6006 48.2C57.5006 48.1 57.4006 47.9 57.3006 47.8C57.2006 47.7 57.1006 47.6 57.0006 47.6C56.8006 47.5 56.6006 47.5 56.5006 47.6L56.1006 47.8C56.2006 47.7 56.4006 47.7 56.6006 47.8C56.7006 47.9 56.8006 47.9 56.9006 48C57.0006 48.1 57.1006 48.3 57.2006 48.4C57.3006 48.6 57.3006 48.7 57.3006 48.9C57.3006 49.1 57.2006 49.3 57.1006 49.3L57.5006 49.1C57.6006 49 57.7006 48.9 57.7006 48.7C57.7006 48.5 57.7006 48.4 57.6006 48.2Z" fill="url(#paint6_linear_106_9330)" style=""/>
<path d="M56.901 48.4C56.901 48.4 56.901 48.3 56.801 48.3C56.801 48.3 56.801 48.3001 56.701 48.2001H56.601C56.601 48.2001 56.701 48.2 56.701 48.3C56.801 48.4 56.801 48.4 56.901 48.4C56.901 48.5 56.901 48.5001 56.901 48.6001C56.901 48.7001 56.901 48.7001 56.901 48.7001H57.001V48.6001C56.901 48.5001 56.901 48.5 56.901 48.4Z" fill="#757575" style="fill:#757575;fill:color(display-p3 0.4588 0.4588 0.4588);fill-opacity:1;"/>
<path d="M56.701 48.3C56.601 48.2 56.501 48.3 56.501 48.4C56.501 48.5 56.601 48.6001 56.701 48.7001C56.801 48.8001 56.901 48.7001 56.901 48.6001C56.801 48.5001 56.801 48.4 56.701 48.3Z" fill="#818184" style="fill:#818184;fill:color(display-p3 0.5059 0.5059 0.5176);fill-opacity:1;"/>
<path d="M57.1006 46.1L56.7006 48.8C56.7006 48.9 56.7006 49 56.6006 49L57.0006 48.8C57.1006 48.8 57.1006 48.7 57.1006 48.6L57.5006 45.9L57.1006 46.1Z" fill="#818184" style="fill:#818184;fill:color(display-p3 0.5059 0.5059 0.5176);fill-opacity:1;"/>
<path d="M56.6012 45.4L56.2012 45.6L57.1012 46.1L57.5012 45.9L56.6012 45.4Z" fill="#AAAFAF" style="fill:#AAAFAF;fill:color(display-p3 0.6667 0.6863 0.6863);fill-opacity:1;"/>
<path d="M56.201 45.6L56.001 48.8L56.301 49C56.501 49.1 56.601 49 56.701 48.8L57.101 46.1L56.201 45.6Z" fill="#5E5E5E" style="fill:#5E5E5E;fill:color(display-p3 0.3686 0.3686 0.3686);fill-opacity:1;"/>
<path d="M55.8008 48.5C55.5008 48.3 55.3008 48.5 55.3008 48.8C55.3008 49.1 55.5008 49.5 55.8008 49.6C56.1008 49.8 56.3008 49.6 56.3008 49.3C56.3008 49 56.1008 48.6 55.8008 48.5Z" fill="#818184" style="fill:#818184;fill:color(display-p3 0.5059 0.5059 0.5176);fill-opacity:1;"/>
<path d="M55.801 48.6C55.701 48.6 55.601 48.5 55.601 48.6C55.601 48.6 55.501 48.7 55.501 48.8C55.501 49 55.701 49.3 55.901 49.4C56.001 49.4 56.101 49.5 56.101 49.4C56.101 49.4 56.201 49.3 56.201 49.2C56.201 49 56.001 48.7 55.801 48.6Z" fill="#5E5E5E" style="fill:#5E5E5E;fill:color(display-p3 0.3686 0.3686 0.3686);fill-opacity:1;"/>
<path d="M55.901 49.3999C55.701 49.2999 55.501 48.9999 55.501 48.7999C55.501 48.9999 55.601 49.2999 55.901 49.3999C55.901 49.4999 56.101 49.4999 56.101 49.3999C56.001 49.4999 56.001 49.3999 55.901 49.3999Z" fill="#757575" style="fill:#757575;fill:color(display-p3 0.4588 0.4588 0.4588);fill-opacity:1;"/>
<path d="M55.8006 48.2C56.2006 48.4 56.5006 48.9 56.5006 49.4C56.5006 49.8 56.2006 50 55.8006 49.8C55.4006 49.6 55.1006 49.1 55.1006 48.6C55.1006 48.2 55.4006 48 55.8006 48.2ZM55.8006 49.5C56.1006 49.6 56.3006 49.5 56.3006 49.2C56.3006 48.9 56.1006 48.6 55.8006 48.4C55.5006 48.3 55.3006 48.4 55.3006 48.7C55.4006 49 55.6006 49.4 55.8006 49.5Z" fill="#2B2927" style="fill:#2B2927;fill:color(display-p3 0.1686 0.1608 0.1529);fill-opacity:1;"/>
<path d="M56.7002 48.7C56.6002 48.6 56.5002 48.4 56.4002 48.3C56.3002 48.2 56.2002 48.1 56.1002 48.1C55.9002 48 55.7002 48 55.6002 48.1L55.2002 48.3C55.3002 48.2 55.5002 48.2 55.7002 48.3C55.8002 48.4 55.9002 48.4 56.0002 48.5C56.1002 48.6 56.2002 48.8 56.3002 48.9C56.4002 49.1 56.4002 49.2 56.4002 49.4C56.4002 49.6 56.3002 49.8 56.2002 49.8L56.6002 49.6C56.7002 49.5 56.8002 49.4 56.8002 49.2C56.9002 49 56.8002 48.9 56.7002 48.7Z" fill="url(#paint7_linear_106_9330)" style=""/>
<path d="M56.0006 49C56.0006 49 56.0006 48.9 55.9006 48.9C55.9006 48.9 55.9006 48.9 55.8006 48.8H55.7006C55.7006 48.8 55.8006 48.8 55.8006 48.9C55.9006 48.9 55.9006 48.9 56.0006 49C56.0006 49.1 56.0006 49.1 56.0006 49.2C56.0006 49.3 56.0006 49.3 56.0006 49.3H56.1006V49.2C56.0006 49 56.0006 49 56.0006 49Z" fill="#757575" style="fill:#757575;fill:color(display-p3 0.4588 0.4588 0.4588);fill-opacity:1;"/>
<path d="M55.8006 48.8C55.7006 48.7 55.6006 48.8 55.6006 48.9C55.6006 49 55.7006 49.1 55.8006 49.2C55.9006 49.3 56.0006 49.2 56.0006 49.1C56.0006 49 55.9006 48.9 55.8006 48.8Z" fill="#818184" style="fill:#818184;fill:color(display-p3 0.5059 0.5059 0.5176);fill-opacity:1;"/>
<path d="M62.5 49.7999L58.7 49.7L46.5 42.6L44 38.7L59.3 41.8L62.5 49.7999Z" fill="#A32B1D" style="fill:#A32B1D;fill:color(display-p3 0.6392 0.1686 0.1137);fill-opacity:1;"/>
<path d="M32.0007 22.6C35.3007 23.6 39.7007 25.5 43.8007 27.6C44.5007 28 62.4007 37.5 72.7007 43C76.6007 45.1 80.2007 47.1 80.6007 47.3C81.4007 47.8 82.2007 48.5 82.9007 49.1C84.1007 50.2 84.9007 51.7 85.4007 53.3C86.7007 54.3 87.6007 56.2 87.7007 57.7C87.8007 58.6 87.3007 59.4 86.4007 59.8C83.8007 60.9 79.4007 59.9 75.7007 57.7C63.2007 50.5 43.2007 38.7 38.5007 36C30.9007 31.6 27.7007 24.5 28.0007 23C28.3007 21.7 30.3007 22.1 32.0007 22.6Z" fill="url(#paint8_linear_106_9330)" style=""/>
<path d="M87.6001 56.9C87.6001 58.1 86.0001 58.9 82.6001 58.2C78.7001 57.4 59.1001 46.5 45.4001 38.2C43.3001 36.8 41.2001 35.5 39.4001 33.3C38.7001 32.5 38.3001 31.5 38.3001 30.5C38.4001 28.2 40.3001 26.3 42.7001 27C38.9001 25.1 35.0001 23.5 32.0001 22.5C30.3001 22 28.3001 21.6 28.1001 23C27.9001 24.1 29.3001 27 31.2001 29.5C34.9001 34.4 37.4001 35.3 51.3001 43.4C53.5001 44.7 56.3001 46.9 62.0001 49.7C63.2001 50.4 64.4001 51.1 65.6001 51.8C68.9001 53.7 72.9001 56.1 75.8001 57.7C79.5001 59.9 83.9001 60.9 86.5001 59.8C87.3001 59.5 87.8001 58.6 87.8001 57.8C87.7001 57.6 87.6001 57.2 87.6001 56.9Z" fill="url(#paint9_linear_106_9330)" style=""/>
<path opacity="0.5" d="M79.9004 47.4C78.8004 46.7 73.5004 43.7 68.6004 41.1C68.0004 41.3 67.5004 41.6 66.9004 41.9C71.6004 44.5 77.4004 47.7 78.4004 48.4C81.2004 50.2 82.0004 51.1 83.1004 51.1C83.9004 51 83.0004 49.5 79.9004 47.4Z" fill="#F3F2EA" style="fill:#F3F2EA;fill:color(display-p3 0.9529 0.9490 0.9176);fill-opacity:1;"/>
<path opacity="0.2" d="M65.8008 44.1C65.8008 44.2 66.0008 44.6 65.8008 44.6C64.4008 44.6 62.6008 45.3 62.3008 45.5C69.6008 49.8 76.0008 53.4 77.0008 53.1C80.0008 52 73.4008 48.2 65.8008 44.1Z" fill="#F3F2EA" style="fill:#F3F2EA;fill:color(display-p3 0.9529 0.9490 0.9176);fill-opacity:1;"/>
<path opacity="0.3" d="M77.7008 46.1C77.9008 46.1 78.2008 46.1 78.4008 46.2C78.3008 46.1 78.2008 46.1 78.1008 46C78.0008 46 77.9008 46 77.7008 46C75.6008 46 72.9008 48.3 71.7008 51.1C71.3008 52 71.1008 52.9 71.1008 53.6C63.4008 49.1 53.6008 43.4 47.1008 39.6C44.6008 38.1 42.3008 36.8 40.6008 35.8C40.6008 35.2 40.8008 34.4 41.1008 33.6C42.2008 31.1 44.6008 29.1 46.5008 29.1H46.6008C46.5008 29.1 46.5008 29 46.4008 29C44.5008 29.1 42.1008 31.1 41.0008 33.6C40.7008 34.4 40.5008 35.1 40.5008 35.7C39.4008 35.1 38.6008 34.6 37.9008 34.2C34.7008 32.3 32.2008 30.3 30.3008 28.5C30.4008 28.7 30.5008 28.8 30.7008 29C32.5008 30.7 34.9008 32.5 37.8008 34.3C38.5008 34.7 39.4008 35.2 40.5008 35.9C40.5008 36.6 40.7008 37.1 41.0008 37.5C41.1008 37.6 41.2008 37.6 41.3008 37.7C40.9008 37.3 40.6008 36.7 40.6008 35.9C42.3008 36.9 44.5008 38.2 47.1008 39.7C53.6008 43.5 63.4008 49.2 71.1008 53.7C71.1008 54.4 71.3008 54.9 71.6008 55.4C71.7008 55.5 71.8008 55.5 71.9008 55.6C71.0008 54.8 70.9008 53.1 71.7008 51.1C73.0008 48.4 75.7008 46.1 77.7008 46.1Z" fill="#C2C1B7" style="fill:#C2C1B7;fill:color(display-p3 0.7608 0.7569 0.7176);fill-opacity:1;"/>
<path d="M89.1002 22.5C86.6002 21.5 83.9002 23.9 84.4002 25.6C84.9002 26.2 90.5002 29.5 91.7002 29.8L94.3002 25.6C94.3002 25.6 94.6002 25 89.1002 22.5Z" fill="url(#paint10_linear_106_9330)" style=""/>
<path d="M91.1006 23.4999C91.1006 23.4999 91.8006 24.8999 91.5006 24.7999C89.8006 24.5999 87.7006 25.9999 87.6006 26.6999C88.9006 27.3999 90.8006 28.3999 91.1006 28.4999L94.2006 25.6999C94.3006 25.5999 94.3006 25.4999 94.2006 25.3999C93.6006 24.7999 92.5006 24.2999 91.1006 23.4999Z" fill="url(#paint11_linear_106_9330)" style=""/>
<path d="M92.8 25.4C91.8 26 91 27.4 91 28.5C91 29.6 91.8 30.1 92.8 29.5C93.8 28.9 94.6 27.5 94.6 26.4C94.6 25.3 93.8 24.8 92.8 25.4Z" fill="#DBDAD0" style="fill:#DBDAD0;fill:color(display-p3 0.8588 0.8549 0.8157);fill-opacity:1;"/>
<path d="M92.8002 25.6C91.9002 26.1 91.2002 27.4 91.2002 28.4C91.2002 29.4 91.9002 29.8 92.8002 29.3C93.7002 28.8 94.4002 27.5 94.4002 26.5C94.4002 25.5 93.7002 25.1 92.8002 25.6Z" fill="#3A3A3A" style="fill:#3A3A3A;fill:color(display-p3 0.2275 0.2275 0.2275);fill-opacity:1;"/>
<path d="M90.2002 22.7L90.6002 22.5L91.9002 24.6L91.5002 24.8L90.2002 22.7Z" fill="#F9F8F0" style="fill:#F9F8F0;fill:color(display-p3 0.9765 0.9725 0.9412);fill-opacity:1;"/>
<path d="M89.4004 20.2L90.2004 22.8L90.6004 22.6L90.0004 20.5C89.8004 20.3 89.6004 20.2 89.4004 20.2Z" fill="#DBDAD0" style="fill:#DBDAD0;fill:color(display-p3 0.8588 0.8549 0.8157);fill-opacity:1;"/>
<path d="M89.4 20.2C88.5 19.8 87.7 19.5 86.8 19.1L86.5 22.6C86.5 22.6 89.5 24 91.4 24.8L90.1 22.7L89.4 20.2Z" fill="#C2C1B7" style="fill:#C2C1B7;fill:color(display-p3 0.7608 0.7569 0.7176);fill-opacity:1;"/>
<path d="M80.9 29.9C78.4 28.9 75.7 31.3 76.2 33C76.7 33.6 82.3 36.9 83.5 37.2L86.1 33C86.1 33 86.4 32.5 80.9 29.9Z" fill="url(#paint12_linear_106_9330)" style=""/>
<path d="M82.9004 30.9999C82.9004 30.9999 83.6004 32.3999 83.3004 32.2999C81.6004 32.0999 79.5004 33.4999 79.4004 34.1999C80.7004 34.8999 82.6004 35.8999 82.9004 35.9999L86.0004 33.1999C86.1004 33.0999 86.1004 32.9999 86.0004 32.8999C85.3004 32.2999 84.2004 31.6999 82.9004 30.9999Z" fill="url(#paint13_linear_106_9330)" style=""/>
<path d="M84.5998 32.9C83.5998 33.5 82.7998 34.9 82.7998 36C82.7998 37.1 83.5998 37.6 84.5998 37C85.5998 36.4 86.3998 35 86.3998 33.9C86.3998 32.7 85.5998 32.3 84.5998 32.9Z" fill="#DBDAD0" style="fill:#DBDAD0;fill:color(display-p3 0.8588 0.8549 0.8157);fill-opacity:1;"/>
<path d="M84.6 33.1C83.7 33.6 83 34.9 83 35.9C83 36.9 83.7 37.3 84.6 36.8C85.5 36.3 86.2 35 86.2 34C86.2 33 85.5 32.6 84.6 33.1Z" fill="#3A3A3A" style="fill:#3A3A3A;fill:color(display-p3 0.2275 0.2275 0.2275);fill-opacity:1;"/>
<path d="M82 30.2L82.4 30L83.6 32.1L83.3 32.3L82 30.2Z" fill="#F9F8F0" style="fill:#F9F8F0;fill:color(display-p3 0.9765 0.9725 0.9412);fill-opacity:1;"/>
<path d="M81.2002 27.5999L82.0002 30.1999L82.4002 29.9999L81.8002 27.8999C81.6002 27.7999 81.4002 27.6999 81.2002 27.5999Z" fill="#DBDAD0" style="fill:#DBDAD0;fill:color(display-p3 0.8588 0.8549 0.8157);fill-opacity:1;"/>
<path d="M81.1998 27.6C80.2998 27.2 79.4998 26.9 78.5998 26.5L78.2998 30C78.2998 30 81.2998 31.4 83.1998 32.2L81.8998 30.1L81.1998 27.6Z" fill="#C2C1B7" style="fill:#C2C1B7;fill:color(display-p3 0.7608 0.7569 0.7176);fill-opacity:1;"/>
<path d="M106.201 5.90005L68.6006 40.1001V40.7001L106.201 6.50006C106.301 6.40006 106.301 6.30006 106.301 6.30006V5.70006C106.401 5.80006 106.301 5.90005 106.201 5.90005Z" fill="#DBDAD0" style="fill:#DBDAD0;fill:color(display-p3 0.8588 0.8549 0.8157);fill-opacity:1;"/>
<path d="M68.6008 40.2001V40.8001L55.3008 33.1001V32.5001L68.6008 40.2001Z" fill="#707576" style="fill:#707576;fill:color(display-p3 0.4392 0.4588 0.4627);fill-opacity:1;"/>
<path d="M106.101 5.40006C106.401 5.50006 106.401 5.80006 106.201 5.90006L68.6008 40.1001L55.3008 32.4001L101.101 3.10007C101.401 2.90007 101.901 2.90007 102.201 3.10007L106.101 5.40006Z" fill="#F5F4EC" style="fill:#F5F4EC;fill:color(display-p3 0.9608 0.9569 0.9255);fill-opacity:1;"/>
<path d="M106.1 5.40001L105.7 5.20001L64.9004 38.1L68.6004 40.2L106.2 6.00002C106.4 5.80002 106.4 5.50001 106.1 5.40001Z" fill="#F9F8F0" style="fill:#F9F8F0;fill:color(display-p3 0.9765 0.9725 0.9412);fill-opacity:1;"/>
<path d="M68.6006 39.5C67.5006 38.3 66.4006 37.3 65.2006 36.6L61.6006 34.5C58.8006 32.9 55.1006 32 52.5006 32.2C51.8006 32.2 49.8006 33.5 48.6006 34.6C51.3006 34.6 54.1006 35.5 56.9006 37.1L60.5006 39.2C61.7006 39.9 62.8006 40.8 63.9006 42.1C64.5006 42.8 65.1006 43.6 65.7006 44.5C66.8006 42.8 68.6006 41.5 70.0006 41.6C69.5006 40.8 69.2006 40.2 68.6006 39.5Z" fill="url(#paint14_linear_106_9330)" style=""/>
<path d="M60.6002 39.3L57.0002 37.2C54.2002 35.6 51.3002 34.7 48.7002 34.7L65.8002 44.6C64.2002 42.2 62.4002 40.4 60.6002 39.3Z" fill="#C2C1B7" style="fill:#C2C1B7;fill:color(display-p3 0.7608 0.7569 0.7176);fill-opacity:1;"/>
<path d="M45.6002 50.3C43.1002 49.3 40.4002 51.7 40.9002 53.4C41.4002 54 47.0002 57.3 48.2002 57.6L50.8002 53.4C50.8002 53.4 51.1002 52.9 45.6002 50.3Z" fill="url(#paint15_linear_106_9330)" style=""/>
<path d="M47.6006 51.3C47.6006 51.3 48.3006 52.7 48.0006 52.6C46.3006 52.4 44.2006 53.8 44.1006 54.5C45.4006 55.2 47.3006 56.2 47.6006 56.3L50.7006 53.5C50.8006 53.4 50.8006 53.3 50.7006 53.2C50.1006 52.6 49.0006 52.1 47.6006 51.3Z" fill="url(#paint16_linear_106_9330)" style=""/>
<path d="M49.3 53.2C48.3 53.8 47.5 55.2 47.5 56.3C47.5 57.4 48.3 57.9 49.3 57.3C50.3 56.7 51.1 55.3 51.1 54.2C51.1 53.1 50.3 52.6 49.3 53.2Z" fill="#DBDAD0" style="fill:#DBDAD0;fill:color(display-p3 0.8588 0.8549 0.8157);fill-opacity:1;"/>
<path d="M49.3002 53.4C48.4002 53.9 47.7002 55.2 47.7002 56.2C47.7002 57.2 48.4002 57.6 49.3002 57.1C50.2002 56.6 50.9002 55.3 50.9002 54.3C50.9002 53.3 50.2002 52.9 49.3002 53.4Z" fill="#3A3A3A" style="fill:#3A3A3A;fill:color(display-p3 0.2275 0.2275 0.2275);fill-opacity:1;"/>
<path d="M46.7002 50.6L47.1002 50.3L48.4002 52.4L48.0002 52.6L46.7002 50.6Z" fill="#F9F8F0" style="fill:#F9F8F0;fill:color(display-p3 0.9765 0.9725 0.9412);fill-opacity:1;"/>
<path d="M45.9004 48L46.7004 50.6L47.1004 50.4L46.5004 48.3C46.3004 48.1 46.1004 48 45.9004 48Z" fill="#DBDAD0" style="fill:#DBDAD0;fill:color(display-p3 0.8588 0.8549 0.8157);fill-opacity:1;"/>
<path d="M45.9 48C45 47.6 44.2 47.3 43.3 46.9L43 50.4C43 50.4 46 51.8 47.9 52.6L46.6 50.5L45.9 48Z" fill="#C2C1B7" style="fill:#C2C1B7;fill:color(display-p3 0.7608 0.7569 0.7176);fill-opacity:1;"/>
<path d="M32.5006 55C30.0006 54 27.3006 56.4 27.8006 58.1C28.3006 58.7 33.9006 62 35.1006 62.3L37.7006 58.1C37.7006 58 38.0006 57.5 32.5006 55Z" fill="url(#paint17_linear_106_9330)" style=""/>
<path d="M34.501 56C34.501 56 35.201 57.4 34.901 57.3C33.201 57.1 31.101 58.5 31.001 59.2C32.301 59.9 34.201 60.9 34.501 61L37.601 58.2C37.701 58.1 37.701 58 37.601 57.9C37.001 57.3 35.901 56.8 34.501 56Z" fill="url(#paint18_linear_106_9330)" style=""/>
<path d="M36.2004 57.9C35.2004 58.5 34.4004 59.9 34.4004 61C34.4004 62.1 35.2004 62.6 36.2004 62C37.2004 61.4 38.0004 60 38.0004 58.9C38.0004 57.8 37.2004 57.3 36.2004 57.9Z" fill="#DBDAD0" style="fill:#DBDAD0;fill:color(display-p3 0.8588 0.8549 0.8157);fill-opacity:1;"/>
<path d="M36.2006 58.1C35.3006 58.6 34.6006 59.9 34.6006 60.9C34.6006 61.9 35.3006 62.3 36.2006 61.8C37.1006 61.3 37.8006 60 37.8006 59C37.8006 58 37.1006 57.6 36.2006 58.1Z" fill="#3A3A3A" style="fill:#3A3A3A;fill:color(display-p3 0.2275 0.2275 0.2275);fill-opacity:1;"/>
<path d="M33.6006 55.2L34.0006 55L35.3006 57.1L34.9006 57.3L33.6006 55.2Z" fill="#F9F8F0" style="fill:#F9F8F0;fill:color(display-p3 0.9765 0.9725 0.9412);fill-opacity:1;"/>
<path d="M32.9014 52.6L33.7014 55.2L34.1014 55L33.5014 52.9C33.2014 52.8 33.0014 52.7 32.9014 52.6Z" fill="#DBDAD0" style="fill:#DBDAD0;fill:color(display-p3 0.8588 0.8549 0.8157);fill-opacity:1;"/>
<path d="M32.901 52.6C32.001 52.2 31.201 51.9 30.301 51.5L30.001 55C30.001 55 33.001 56.4 34.901 57.2L33.601 55.1L32.901 52.6Z" fill="#C2C1B7" style="fill:#C2C1B7;fill:color(display-p3 0.7608 0.7569 0.7176);fill-opacity:1;"/>
<path d="M5.40078 64.5C5.10078 64.6 4.70078 64.6 4.40078 64.4L0.500778 62.2C0.400778 62.1 0.300781 62 0.300781 61.9V62.5C0.300781 62.6 0.400778 62.7 0.500778 62.8L4.40078 65C4.70078 65.1 5.10078 65.2 5.40078 65.1L64.3008 43.2V42.6L5.40078 64.5Z" fill="#DBDAD0" style="fill:#DBDAD0;fill:color(display-p3 0.8588 0.8549 0.8157);fill-opacity:1;"/>
<path d="M51.0004 35C55.4004 35.7 61.4004 38.8 64.3004 42.7L5.40039 64.6C5.10039 64.7 4.70039 64.7 4.40039 64.5L0.500391 62.3C0.200391 62.1 0.200391 61.8 0.500391 61.7L51.0004 35Z" fill="#F5F4EC" style="fill:#F5F4EC;fill:color(display-p3 0.9608 0.9569 0.9255);fill-opacity:1;"/>
<path d="M43.8998 1.39995L33.2998 10.8999V11.3L43.8998 1.79996C43.9998 1.69996 43.9998 1.69996 43.9998 1.59996V1.19995C43.9998 1.29995 43.9998 1.39995 43.8998 1.39995Z" fill="#DBDAD0" style="fill:#DBDAD0;fill:color(display-p3 0.8588 0.8549 0.8157);fill-opacity:1;"/>
<path d="M33.3002 10.9V11.3L28.7002 8.70001V8.20001L33.3002 10.9Z" fill="#707576" style="fill:#707576;fill:color(display-p3 0.4392 0.4588 0.4627);fill-opacity:1;"/>
<path d="M43.8998 1.00002C44.0998 1.10002 44.0998 1.30001 43.9998 1.40001L33.3998 10.9L28.7998 8.20002L41.4998 0.100024C41.6998 2.44156e-05 42.0998 2.44156e-05 42.2998 0.100024L43.8998 1.00002Z" fill="#F5F4EC" style="fill:#F5F4EC;fill:color(display-p3 0.9608 0.9569 0.9255);fill-opacity:1;"/>
<path d="M35.2002 22.5L36.1002 22L38.8002 26.6L38.0002 27.1L35.2002 22.5Z" fill="#D84F3F" style="fill:#D84F3F;fill:color(display-p3 0.8471 0.3098 0.2471);fill-opacity:1;"/>
<path d="M32.1006 11.9L33.0006 11.4L36.1006 22L35.2006 22.5L32.1006 11.9Z" fill="#DBDAD0" style="fill:#DBDAD0;fill:color(display-p3 0.8588 0.8549 0.8157);fill-opacity:1;"/>
<path d="M27.6006 9.30002L28.5006 8.80002L33.0006 11.4L32.1006 11.9L27.6006 9.30002Z" fill="#B2BBBD" style="fill:#B2BBBD;fill:color(display-p3 0.6980 0.7333 0.7412);fill-opacity:1;"/>
<path d="M35.2006 22.5L32.1006 11.9L27.6006 9.30002L28.4006 22.4C31.2006 23.3 34.5006 25 37.9006 27L35.2006 22.5Z" fill="#C2C1B7" style="fill:#C2C1B7;fill:color(display-p3 0.7608 0.7569 0.7176);fill-opacity:1;"/>
<path opacity="0.4" d="M33.1006 15.2L32.1006 11.9L27.6006 9.30002L28.1006 17.8C29.8006 16.8 31.4006 15.9 33.1006 15.2Z" fill="#C2C1B7" style="fill:#C2C1B7;fill:color(display-p3 0.7608 0.7569 0.7176);fill-opacity:1;"/>
<path d="M26.8008 7.5C26.7008 7.5 26.7008 7.5 26.6008 7.5C26.4008 7.6 26.3008 7.90001 26.3008 8.10001C26.3008 8.20001 26.3008 8.2 26.4008 8.3L27.5008 9.7C27.4008 9.6 27.4008 9.5 27.4008 9.3C27.4008 8.8 27.7008 8.2 28.2008 8C28.4008 7.9 28.5008 7.89999 28.6008 7.89999L26.8008 7.5Z" fill="#DBDAD0" style="fill:#DBDAD0;fill:color(display-p3 0.8588 0.8549 0.8157);fill-opacity:1;"/>
<path d="M28.7008 7.8C28.6008 7.7 28.4008 7.69999 28.1008 7.89999C27.7008 8.19999 27.3008 8.7 27.3008 9.2C27.3008 9.4 27.4008 9.6 27.5008 9.7L32.3008 12.5C32.2008 12.4 32.1008 12.3 32.1008 12C32.1008 11.5 32.4008 10.9 32.9008 10.7C33.1008 10.6 33.3008 10.6 33.5008 10.6L28.7008 7.8Z" fill="url(#paint19_linear_106_9330)" style=""/>
<path d="M33.5006 10.6C33.4006 10.5 33.1006 10.4 32.9006 10.6C32.5006 10.9 32.1006 11.4 32.1006 11.9C32.1006 12.2 32.2006 12.4 32.4006 12.4L33.5006 12.7C33.4006 12.7 33.3006 12.5 33.3006 12.3C33.3006 12 33.5006 11.5 33.8006 11.3C34.0006 11.2 34.1006 11.2 34.2006 11.3L33.5006 10.6Z" fill="url(#paint20_linear_106_9330)" style=""/>
<path d="M33.9004 11.5C33.6004 11.7 33.4004 12.1 33.4004 12.5C33.4004 12.8 33.7004 13 34.0004 12.8C34.3004 12.6 34.5004 12.2 34.5004 11.8C34.5004 11.4 34.2004 11.3 33.9004 11.5Z" fill="#DBDAD0" style="fill:#DBDAD0;fill:color(display-p3 0.8588 0.8549 0.8157);fill-opacity:1;"/>
<path d="M33.901 11.6C33.701 11.7 33.501 12.1 33.501 12.3C33.501 12.6 33.701 12.7 33.901 12.5C34.101 12.4 34.301 12 34.301 11.8C34.301 11.6 34.201 11.5 33.901 11.6Z" fill="#3F4146" style="fill:#3F4146;fill:color(display-p3 0.2471 0.2549 0.2745);fill-opacity:1;"/>
<path d="M15.7006 17.8C15.5006 17.9 15.2006 17.9 15.0006 17.8L13.3006 16.8C13.2006 16.7 13.1006 16.7 13.1006 16.6V17C13.1006 17.1 13.2006 17.2 13.3006 17.2L15.0006 18.2C15.2006 18.3 15.5006 18.3 15.7006 18.2L32.0006 12V11.6L15.7006 17.8Z" fill="#DBDAD0" style="fill:#DBDAD0;fill:color(display-p3 0.8588 0.8549 0.8157);fill-opacity:1;"/>
<path d="M32.0004 11.6L15.7004 17.8C15.5004 17.9 15.2004 17.9 15.0004 17.8L13.3004 16.8C13.1004 16.7 13.1004 16.5 13.3004 16.4L27.3004 9.00002L32.0004 11.6Z" fill="#F5F4EC" style="fill:#F5F4EC;fill:color(display-p3 0.9608 0.9569 0.9255);fill-opacity:1;"/>
<path d="M3.90039 64.2L4.40039 64.5C4.70039 64.6 5.10039 64.7 5.40039 64.6L64.3004 42.7C63.6004 41.8 62.7004 40.9 61.7004 40L3.90039 64.2Z" fill="#F9F8F0" style="fill:#F9F8F0;fill:color(display-p3 0.9765 0.9725 0.9412);fill-opacity:1;"/>
<path d="M85.4004 53.4C85.2004 52.9 85.0004 52.4 84.8004 51.9C84.9004 53.3 82.4004 54.2 80.1004 53.7L79.9004 55.1C83.9004 55.7 85.3004 54.2 85.4004 53.4Z" fill="url(#paint21_linear_106_9330)" style=""/>
<path opacity="0.4" d="M74.1008 22.8L72.0008 21.8L72.1008 21.7L74.1008 22.6L83.5008 16.1L81.9008 15.3999L82.0008 15.3L83.6008 16L74.1008 22.8ZM85.2008 15.2L95.4008 8.19995L94.3008 7.69995L94.2008 7.79996L95.3008 8.29996L85.3008 15.2L83.8008 14.5L83.7008 14.6L85.2008 15.2ZM9.70078 58.2L22.4008 51.8999C22.4008 51.8999 22.4008 51.8999 22.4008 51.7999L20.7008 51L20.6008 51.1L22.3008 51.7999L9.70078 58L8.40078 57.3999L8.30078 57.5L9.70078 58.2ZM24.3008 50.8999L34.7008 45.7C34.7008 45.7 34.7008 45.7 34.7008 45.6L32.6008 44.7L32.5008 44.8L34.6008 45.7L24.4008 50.7999L22.7008 50L22.6008 50.1L24.3008 50.8999Z" fill="#C2C1B7" style="fill:#C2C1B7;fill:color(display-p3 0.7608 0.7569 0.7176);fill-opacity:1;"/>
<path d="M28.5002 22.4C31.3002 23.3 34.6002 25 38.0002 27L35.2002 22.5L28.2002 19L28.5002 22.4Z" fill="#A32B1D" style="fill:#A32B1D;fill:color(display-p3 0.6392 0.1686 0.1137);fill-opacity:1;"/>
<defs>
<linearGradient id="paint0_linear_106_9330" x1="79.7243" y1="59.0682" x2="80.6456" y2="60.6639" gradientUnits="userSpaceOnUse">
<stop stop-color="#494644" style="stop-color:#494644;stop-color:color(display-p3 0.2863 0.2745 0.2667);stop-opacity:1;"/>
<stop offset="0.0777603" stop-color="#4F4C4A" style="stop-color:#4F4C4A;stop-color:color(display-p3 0.3098 0.2980 0.2902);stop-opacity:1;"/>
<stop offset="0.305" stop-color="#5D5957" style="stop-color:#5D5957;stop-color:color(display-p3 0.3647 0.3490 0.3412);stop-opacity:1;"/>
<stop offset="0.504" stop-color="#625E5C" style="stop-color:#625E5C;stop-color:color(display-p3 0.3843 0.3686 0.3608);stop-opacity:1;"/>
<stop offset="0.9202" stop-color="#4E4A48" style="stop-color:#4E4A48;stop-color:color(display-p3 0.3059 0.2902 0.2824);stop-opacity:1;"/>
<stop offset="1" stop-color="#494644" style="stop-color:#494644;stop-color:color(display-p3 0.2863 0.2745 0.2667);stop-opacity:1;"/>
</linearGradient>
<linearGradient id="paint1_linear_106_9330" x1="78.8851" y1="59.5526" x2="79.8063" y2="61.1483" gradientUnits="userSpaceOnUse">
<stop stop-color="#494644" style="stop-color:#494644;stop-color:color(display-p3 0.2863 0.2745 0.2667);stop-opacity:1;"/>
<stop offset="0.0777603" stop-color="#4F4C4A" style="stop-color:#4F4C4A;stop-color:color(display-p3 0.3098 0.2980 0.2902);stop-opacity:1;"/>
<stop offset="0.305" stop-color="#5D5957" style="stop-color:#5D5957;stop-color:color(display-p3 0.3647 0.3490 0.3412);stop-opacity:1;"/>
<stop offset="0.504" stop-color="#625E5C" style="stop-color:#625E5C;stop-color:color(display-p3 0.3843 0.3686 0.3608);stop-opacity:1;"/>
<stop offset="0.9202" stop-color="#4E4A48" style="stop-color:#4E4A48;stop-color:color(display-p3 0.3059 0.2902 0.2824);stop-opacity:1;"/>
<stop offset="1" stop-color="#494644" style="stop-color:#494644;stop-color:color(display-p3 0.2863 0.2745 0.2667);stop-opacity:1;"/>
</linearGradient>
<linearGradient id="paint2_linear_106_9330" x1="53.5745" y1="45.6864" x2="54.5306" y2="47.3423" gradientUnits="userSpaceOnUse">
<stop stop-color="#494644" style="stop-color:#494644;stop-color:color(display-p3 0.2863 0.2745 0.2667);stop-opacity:1;"/>
<stop offset="0.0777603" stop-color="#4F4C4A" style="stop-color:#4F4C4A;stop-color:color(display-p3 0.3098 0.2980 0.2902);stop-opacity:1;"/>
<stop offset="0.305" stop-color="#5D5957" style="stop-color:#5D5957;stop-color:color(display-p3 0.3647 0.3490 0.3412);stop-opacity:1;"/>
<stop offset="0.504" stop-color="#625E5C" style="stop-color:#625E5C;stop-color:color(display-p3 0.3843 0.3686 0.3608);stop-opacity:1;"/>
<stop offset="0.9202" stop-color="#4E4A48" style="stop-color:#4E4A48;stop-color:color(display-p3 0.3059 0.2902 0.2824);stop-opacity:1;"/>
<stop offset="1" stop-color="#494644" style="stop-color:#494644;stop-color:color(display-p3 0.2863 0.2745 0.2667);stop-opacity:1;"/>
</linearGradient>
<linearGradient id="paint3_linear_106_9330" x1="52.7035" y1="46.189" x2="53.6595" y2="47.845" gradientUnits="userSpaceOnUse">
<stop stop-color="#494644" style="stop-color:#494644;stop-color:color(display-p3 0.2863 0.2745 0.2667);stop-opacity:1;"/>
<stop offset="0.0777603" stop-color="#4F4C4A" style="stop-color:#4F4C4A;stop-color:color(display-p3 0.3098 0.2980 0.2902);stop-opacity:1;"/>
<stop offset="0.305" stop-color="#5D5957" style="stop-color:#5D5957;stop-color:color(display-p3 0.3647 0.3490 0.3412);stop-opacity:1;"/>
<stop offset="0.504" stop-color="#625E5C" style="stop-color:#625E5C;stop-color:color(display-p3 0.3843 0.3686 0.3608);stop-opacity:1;"/>
<stop offset="0.9202" stop-color="#4E4A48" style="stop-color:#4E4A48;stop-color:color(display-p3 0.3059 0.2902 0.2824);stop-opacity:1;"/>
<stop offset="1" stop-color="#494644" style="stop-color:#494644;stop-color:color(display-p3 0.2863 0.2745 0.2667);stop-opacity:1;"/>
</linearGradient>
<linearGradient id="paint4_linear_106_9330" x1="55.1029" y1="46.5688" x2="56.059" y2="48.2248" gradientUnits="userSpaceOnUse">
<stop stop-color="#494644" style="stop-color:#494644;stop-color:color(display-p3 0.2863 0.2745 0.2667);stop-opacity:1;"/>
<stop offset="0.0777603" stop-color="#4F4C4A" style="stop-color:#4F4C4A;stop-color:color(display-p3 0.3098 0.2980 0.2902);stop-opacity:1;"/>
<stop offset="0.305" stop-color="#5D5957" style="stop-color:#5D5957;stop-color:color(display-p3 0.3647 0.3490 0.3412);stop-opacity:1;"/>
<stop offset="0.504" stop-color="#625E5C" style="stop-color:#625E5C;stop-color:color(display-p3 0.3843 0.3686 0.3608);stop-opacity:1;"/>
<stop offset="0.9202" stop-color="#4E4A48" style="stop-color:#4E4A48;stop-color:color(display-p3 0.3059 0.2902 0.2824);stop-opacity:1;"/>
<stop offset="1" stop-color="#494644" style="stop-color:#494644;stop-color:color(display-p3 0.2863 0.2745 0.2667);stop-opacity:1;"/>
</linearGradient>
<linearGradient id="paint5_linear_106_9330" x1="54.232" y1="47.0715" x2="55.188" y2="48.7274" gradientUnits="userSpaceOnUse">
<stop stop-color="#494644" style="stop-color:#494644;stop-color:color(display-p3 0.2863 0.2745 0.2667);stop-opacity:1;"/>
<stop offset="0.0777603" stop-color="#4F4C4A" style="stop-color:#4F4C4A;stop-color:color(display-p3 0.3098 0.2980 0.2902);stop-opacity:1;"/>
<stop offset="0.305" stop-color="#5D5957" style="stop-color:#5D5957;stop-color:color(display-p3 0.3647 0.3490 0.3412);stop-opacity:1;"/>
<stop offset="0.504" stop-color="#625E5C" style="stop-color:#625E5C;stop-color:color(display-p3 0.3843 0.3686 0.3608);stop-opacity:1;"/>
<stop offset="0.9202" stop-color="#4E4A48" style="stop-color:#4E4A48;stop-color:color(display-p3 0.3059 0.2902 0.2824);stop-opacity:1;"/>
<stop offset="1" stop-color="#494644" style="stop-color:#494644;stop-color:color(display-p3 0.2863 0.2745 0.2667);stop-opacity:1;"/>
</linearGradient>
<linearGradient id="paint6_linear_106_9330" x1="56.6314" y1="47.4513" x2="57.5874" y2="49.1072" gradientUnits="userSpaceOnUse">
<stop stop-color="#494644" style="stop-color:#494644;stop-color:color(display-p3 0.2863 0.2745 0.2667);stop-opacity:1;"/>
<stop offset="0.0777603" stop-color="#4F4C4A" style="stop-color:#4F4C4A;stop-color:color(display-p3 0.3098 0.2980 0.2902);stop-opacity:1;"/>
<stop offset="0.305" stop-color="#5D5957" style="stop-color:#5D5957;stop-color:color(display-p3 0.3647 0.3490 0.3412);stop-opacity:1;"/>
<stop offset="0.504" stop-color="#625E5C" style="stop-color:#625E5C;stop-color:color(display-p3 0.3843 0.3686 0.3608);stop-opacity:1;"/>
<stop offset="0.9202" stop-color="#4E4A48" style="stop-color:#4E4A48;stop-color:color(display-p3 0.3059 0.2902 0.2824);stop-opacity:1;"/>
<stop offset="1" stop-color="#494644" style="stop-color:#494644;stop-color:color(display-p3 0.2863 0.2745 0.2667);stop-opacity:1;"/>
</linearGradient>
<linearGradient id="paint7_linear_106_9330" x1="55.7604" y1="47.9539" x2="56.7164" y2="49.6098" gradientUnits="userSpaceOnUse">
<stop stop-color="#494644" style="stop-color:#494644;stop-color:color(display-p3 0.2863 0.2745 0.2667);stop-opacity:1;"/>
<stop offset="0.0777603" stop-color="#4F4C4A" style="stop-color:#4F4C4A;stop-color:color(display-p3 0.3098 0.2980 0.2902);stop-opacity:1;"/>
<stop offset="0.305" stop-color="#5D5957" style="stop-color:#5D5957;stop-color:color(display-p3 0.3647 0.3490 0.3412);stop-opacity:1;"/>
<stop offset="0.504" stop-color="#625E5C" style="stop-color:#625E5C;stop-color:color(display-p3 0.3843 0.3686 0.3608);stop-opacity:1;"/>
<stop offset="0.9202" stop-color="#4E4A48" style="stop-color:#4E4A48;stop-color:color(display-p3 0.3059 0.2902 0.2824);stop-opacity:1;"/>
<stop offset="1" stop-color="#494644" style="stop-color:#494644;stop-color:color(display-p3 0.2863 0.2745 0.2667);stop-opacity:1;"/>
</linearGradient>
<linearGradient id="paint8_linear_106_9330" x1="60.2042" y1="36.7504" x2="54.9617" y2="45.8307" gradientUnits="userSpaceOnUse">
<stop stop-color="#F5F4EC" style="stop-color:#F5F4EC;stop-color:color(display-p3 0.9608 0.9569 0.9255);stop-opacity:1;"/>
<stop offset="0.2085" stop-color="#F1F0E8" style="stop-color:#F1F0E8;stop-color:color(display-p3 0.9451 0.9412 0.9098);stop-opacity:1;"/>
<stop offset="0.419" stop-color="#E5E4DC" style="stop-color:#E5E4DC;stop-color:color(display-p3 0.8980 0.8941 0.8627);stop-opacity:1;"/>
<stop offset="0.6297" stop-color="#D2D1C8" style="stop-color:#D2D1C8;stop-color:color(display-p3 0.8235 0.8196 0.7843);stop-opacity:1;"/>
<stop offset="0.7621" stop-color="#C2C1B7" style="stop-color:#C2C1B7;stop-color:color(display-p3 0.7608 0.7569 0.7176);stop-opacity:1;"/>
<stop offset="0.9486" stop-color="#C5C4BA" style="stop-color:#C5C4BA;stop-color:color(display-p3 0.7725 0.7686 0.7294);stop-opacity:1;"/>
<stop offset="1" stop-color="#C8C7BD" style="stop-color:#C8C7BD;stop-color:color(display-p3 0.7843 0.7804 0.7412);stop-opacity:1;"/>
</linearGradient>
<linearGradient id="paint9_linear_106_9330" x1="60.0074" y1="37.0897" x2="54.8989" y2="45.9377" gradientUnits="userSpaceOnUse">
<stop stop-color="#CC4333" style="stop-color:#CC4333;stop-color:color(display-p3 0.8000 0.2627 0.2000);stop-opacity:1;"/>
<stop offset="0.3475" stop-color="#B73628" style="stop-color:#B73628;stop-color:color(display-p3 0.7176 0.2118 0.1569);stop-opacity:1;"/>
<stop offset="0.703" stop-color="#A82E20" style="stop-color:#A82E20;stop-color:color(display-p3 0.6588 0.1804 0.1255);stop-opacity:1;"/>
<stop offset="1" stop-color="#A32B1D" style="stop-color:#A32B1D;stop-color:color(display-p3 0.6392 0.1686 0.1137);stop-opacity:1;"/>
</linearGradient>
<linearGradient id="paint10_linear_106_9330" x1="90.1874" y1="23.6352" x2="87.9345" y2="27.5373" gradientUnits="userSpaceOnUse">
<stop stop-color="#F5F4EC" style="stop-color:#F5F4EC;stop-color:color(display-p3 0.9608 0.9569 0.9255);stop-opacity:1;"/>
<stop offset="0.2085" stop-color="#F1F0E8" style="stop-color:#F1F0E8;stop-color:color(display-p3 0.9451 0.9412 0.9098);stop-opacity:1;"/>
<stop offset="0.419" stop-color="#E5E4DC" style="stop-color:#E5E4DC;stop-color:color(display-p3 0.8980 0.8941 0.8627);stop-opacity:1;"/>
<stop offset="0.6297" stop-color="#D2D1C8" style="stop-color:#D2D1C8;stop-color:color(display-p3 0.8235 0.8196 0.7843);stop-opacity:1;"/>
<stop offset="0.7621" stop-color="#C2C1B7" style="stop-color:#C2C1B7;stop-color:color(display-p3 0.7608 0.7569 0.7176);stop-opacity:1;"/>
<stop offset="0.9486" stop-color="#C5C4BA" style="stop-color:#C5C4BA;stop-color:color(display-p3 0.7725 0.7686 0.7294);stop-opacity:1;"/>
<stop offset="1" stop-color="#C8C7BD" style="stop-color:#C8C7BD;stop-color:color(display-p3 0.7843 0.7804 0.7412);stop-opacity:1;"/>
</linearGradient>
<linearGradient id="paint11_linear_106_9330" x1="90.4724" y1="29.062" x2="91.3364" y2="23.6366" gradientUnits="userSpaceOnUse">
<stop style="stop-color:black;stop-opacity:1;"/>
<stop offset="0.1256" stop-color="#181817" style="stop-color:#181817;stop-color:color(display-p3 0.0941 0.0941 0.0902);stop-opacity:1;"/>
<stop offset="0.3914" stop-color="#565552" style="stop-color:#565552;stop-color:color(display-p3 0.3373 0.3333 0.3216);stop-opacity:1;"/>
<stop offset="0.7721" stop-color="#B7B7B1" style="stop-color:#B7B7B1;stop-color:color(display-p3 0.7176 0.7176 0.6941);stop-opacity:1;"/>
<stop offset="1" stop-color="#F5F4EC" style="stop-color:#F5F4EC;stop-color:color(display-p3 0.9608 0.9569 0.9255);stop-opacity:1;"/>
</linearGradient>
<linearGradient id="paint12_linear_106_9330" x1="81.9601" y1="31.0939" x2="79.7072" y2="34.9959" gradientUnits="userSpaceOnUse">
<stop stop-color="#F5F4EC" style="stop-color:#F5F4EC;stop-color:color(display-p3 0.9608 0.9569 0.9255);stop-opacity:1;"/>
<stop offset="0.2085" stop-color="#F1F0E8" style="stop-color:#F1F0E8;stop-color:color(display-p3 0.9451 0.9412 0.9098);stop-opacity:1;"/>
<stop offset="0.419" stop-color="#E5E4DC" style="stop-color:#E5E4DC;stop-color:color(display-p3 0.8980 0.8941 0.8627);stop-opacity:1;"/>
<stop offset="0.6297" stop-color="#D2D1C8" style="stop-color:#D2D1C8;stop-color:color(display-p3 0.8235 0.8196 0.7843);stop-opacity:1;"/>
<stop offset="0.7621" stop-color="#C2C1B7" style="stop-color:#C2C1B7;stop-color:color(display-p3 0.7608 0.7569 0.7176);stop-opacity:1;"/>
<stop offset="0.9486" stop-color="#C5C4BA" style="stop-color:#C5C4BA;stop-color:color(display-p3 0.7725 0.7686 0.7294);stop-opacity:1;"/>
<stop offset="1" stop-color="#C8C7BD" style="stop-color:#C8C7BD;stop-color:color(display-p3 0.7843 0.7804 0.7412);stop-opacity:1;"/>
</linearGradient>
<linearGradient id="paint13_linear_106_9330" x1="82.2451" y1="36.5207" x2="83.1091" y2="31.0954" gradientUnits="userSpaceOnUse">
<stop style="stop-color:black;stop-opacity:1;"/>
<stop offset="0.1256" stop-color="#181817" style="stop-color:#181817;stop-color:color(display-p3 0.0941 0.0941 0.0902);stop-opacity:1;"/>
<stop offset="0.3914" stop-color="#565552" style="stop-color:#565552;stop-color:color(display-p3 0.3373 0.3333 0.3216);stop-opacity:1;"/>
<stop offset="0.7721" stop-color="#B7B7B1" style="stop-color:#B7B7B1;stop-color:color(display-p3 0.7176 0.7176 0.6941);stop-opacity:1;"/>
<stop offset="1" stop-color="#F5F4EC" style="stop-color:#F5F4EC;stop-color:color(display-p3 0.9608 0.9569 0.9255);stop-opacity:1;"/>
</linearGradient>
<linearGradient id="paint14_linear_106_9330" x1="54.9683" y1="30.6169" x2="63.7199" y2="45.7751" gradientUnits="userSpaceOnUse">
<stop stop-color="#E3E2D9" style="stop-color:#E3E2D9;stop-color:color(display-p3 0.8902 0.8863 0.8510);stop-opacity:1;"/>
<stop offset="0.0823678" stop-color="#E9E8DF" style="stop-color:#E9E8DF;stop-color:color(display-p3 0.9137 0.9098 0.8745);stop-opacity:1;"/>
<stop offset="0.3044" stop-color="#F2F1E9" style="stop-color:#F2F1E9;stop-color:color(display-p3 0.9490 0.9451 0.9137);stop-opacity:1;"/>
<stop offset="0.5825" stop-color="#F5F4EC" style="stop-color:#F5F4EC;stop-color:color(display-p3 0.9608 0.9569 0.9255);stop-opacity:1;"/>
<stop offset="0.7622" stop-color="#F2F1E9" style="stop-color:#F2F1E9;stop-color:color(display-p3 0.9490 0.9451 0.9137);stop-opacity:1;"/>
<stop offset="0.8877" stop-color="#EAE9E0" style="stop-color:#EAE9E0;stop-color:color(display-p3 0.9176 0.9137 0.8784);stop-opacity:1;"/>
<stop offset="0.9965" stop-color="#DCDBD1" style="stop-color:#DCDBD1;stop-color:color(display-p3 0.8627 0.8588 0.8196);stop-opacity:1;"/>
<stop offset="1" stop-color="#DBDAD0" style="stop-color:#DBDAD0;stop-color:color(display-p3 0.8588 0.8549 0.8157);stop-opacity:1;"/>
</linearGradient>
<linearGradient id="paint15_linear_106_9330" x1="46.6885" y1="51.4532" x2="44.4356" y2="55.3553" gradientUnits="userSpaceOnUse">
<stop stop-color="#F5F4EC" style="stop-color:#F5F4EC;stop-color:color(display-p3 0.9608 0.9569 0.9255);stop-opacity:1;"/>
<stop offset="0.2085" stop-color="#F1F0E8" style="stop-color:#F1F0E8;stop-color:color(display-p3 0.9451 0.9412 0.9098);stop-opacity:1;"/>
<stop offset="0.419" stop-color="#E5E4DC" style="stop-color:#E5E4DC;stop-color:color(display-p3 0.8980 0.8941 0.8627);stop-opacity:1;"/>
<stop offset="0.6297" stop-color="#D2D1C8" style="stop-color:#D2D1C8;stop-color:color(display-p3 0.8235 0.8196 0.7843);stop-opacity:1;"/>
<stop offset="0.7621" stop-color="#C2C1B7" style="stop-color:#C2C1B7;stop-color:color(display-p3 0.7608 0.7569 0.7176);stop-opacity:1;"/>
<stop offset="0.9486" stop-color="#C5C4BA" style="stop-color:#C5C4BA;stop-color:color(display-p3 0.7725 0.7686 0.7294);stop-opacity:1;"/>
<stop offset="1" stop-color="#C8C7BD" style="stop-color:#C8C7BD;stop-color:color(display-p3 0.7843 0.7804 0.7412);stop-opacity:1;"/>
</linearGradient>
<linearGradient id="paint16_linear_106_9330" x1="46.9735" y1="56.88" x2="47.8376" y2="51.4546" gradientUnits="userSpaceOnUse">
<stop style="stop-color:black;stop-opacity:1;"/>
<stop offset="0.1256" stop-color="#181817" style="stop-color:#181817;stop-color:color(display-p3 0.0941 0.0941 0.0902);stop-opacity:1;"/>
<stop offset="0.3914" stop-color="#565552" style="stop-color:#565552;stop-color:color(display-p3 0.3373 0.3333 0.3216);stop-opacity:1;"/>
<stop offset="0.7721" stop-color="#B7B7B1" style="stop-color:#B7B7B1;stop-color:color(display-p3 0.7176 0.7176 0.6941);stop-opacity:1;"/>
<stop offset="1" stop-color="#F5F4EC" style="stop-color:#F5F4EC;stop-color:color(display-p3 0.9608 0.9569 0.9255);stop-opacity:1;"/>
</linearGradient>
<linearGradient id="paint17_linear_106_9330" x1="33.6031" y1="56.1068" x2="31.3501" y2="60.0088" gradientUnits="userSpaceOnUse">
<stop stop-color="#F5F4EC" style="stop-color:#F5F4EC;stop-color:color(display-p3 0.9608 0.9569 0.9255);stop-opacity:1;"/>
<stop offset="0.2085" stop-color="#F1F0E8" style="stop-color:#F1F0E8;stop-color:color(display-p3 0.9451 0.9412 0.9098);stop-opacity:1;"/>
<stop offset="0.419" stop-color="#E5E4DC" style="stop-color:#E5E4DC;stop-color:color(display-p3 0.8980 0.8941 0.8627);stop-opacity:1;"/>
<stop offset="0.6297" stop-color="#D2D1C8" style="stop-color:#D2D1C8;stop-color:color(display-p3 0.8235 0.8196 0.7843);stop-opacity:1;"/>
<stop offset="0.7621" stop-color="#C2C1B7" style="stop-color:#C2C1B7;stop-color:color(display-p3 0.7608 0.7569 0.7176);stop-opacity:1;"/>
<stop offset="0.9486" stop-color="#C5C4BA" style="stop-color:#C5C4BA;stop-color:color(display-p3 0.7725 0.7686 0.7294);stop-opacity:1;"/>
<stop offset="1" stop-color="#C8C7BD" style="stop-color:#C8C7BD;stop-color:color(display-p3 0.7843 0.7804 0.7412);stop-opacity:1;"/>
</linearGradient>
<linearGradient id="paint18_linear_106_9330" x1="33.8881" y1="61.5336" x2="34.752" y2="56.1083" gradientUnits="userSpaceOnUse">
<stop style="stop-color:black;stop-opacity:1;"/>
<stop offset="0.1256" stop-color="#181817" style="stop-color:#181817;stop-color:color(display-p3 0.0941 0.0941 0.0902);stop-opacity:1;"/>
<stop offset="0.3914" stop-color="#565552" style="stop-color:#565552;stop-color:color(display-p3 0.3373 0.3333 0.3216);stop-opacity:1;"/>
<stop offset="0.7721" stop-color="#B7B7B1" style="stop-color:#B7B7B1;stop-color:color(display-p3 0.7176 0.7176 0.6941);stop-opacity:1;"/>
<stop offset="1" stop-color="#F5F4EC" style="stop-color:#F5F4EC;stop-color:color(display-p3 0.9608 0.9569 0.9255);stop-opacity:1;"/>
</linearGradient>
<linearGradient id="paint19_linear_106_9330" x1="30.7947" y1="9.02982" x2="29.7072" y2="10.9133" gradientUnits="userSpaceOnUse">
<stop stop-color="#F5F4EC" style="stop-color:#F5F4EC;stop-color:color(display-p3 0.9608 0.9569 0.9255);stop-opacity:1;"/>
<stop offset="0.5015" stop-color="#D8D7CE" style="stop-color:#D8D7CE;stop-color:color(display-p3 0.8471 0.8431 0.8078);stop-opacity:1;"/>
<stop offset="0.9543" stop-color="#C2C1B7" style="stop-color:#C2C1B7;stop-color:color(display-p3 0.7608 0.7569 0.7176);stop-opacity:1;"/>
</linearGradient>
<linearGradient id="paint20_linear_106_9330" x1="33.7314" y1="10.7254" x2="32.6505" y2="12.5977" gradientUnits="userSpaceOnUse">
<stop stop-color="#F5F4EC" style="stop-color:#F5F4EC;stop-color:color(display-p3 0.9608 0.9569 0.9255);stop-opacity:1;"/>
<stop offset="0.2736" stop-color="#F1F0E8" style="stop-color:#F1F0E8;stop-color:color(display-p3 0.9451 0.9412 0.9098);stop-opacity:1;"/>
<stop offset="0.5498" stop-color="#E5E4DC" style="stop-color:#E5E4DC;stop-color:color(display-p3 0.8980 0.8941 0.8627);stop-opacity:1;"/>
<stop offset="0.8263" stop-color="#D2D1C8" style="stop-color:#D2D1C8;stop-color:color(display-p3 0.8235 0.8196 0.7843);stop-opacity:1;"/>
<stop offset="1" stop-color="#C2C1B7" style="stop-color:#C2C1B7;stop-color:color(display-p3 0.7608 0.7569 0.7176);stop-opacity:1;"/>
</linearGradient>
<linearGradient id="paint21_linear_106_9330" x1="80.4521" y1="54.8376" x2="85.6528" y2="52.9368" gradientUnits="userSpaceOnUse">
<stop stop-color="#1C1C1B" style="stop-color:#1C1C1B;stop-color:color(display-p3 0.1098 0.1098 0.1059);stop-opacity:1;"/>
<stop offset="0.4708" stop-color="#252523" style="stop-color:#252523;stop-color:color(display-p3 0.1451 0.1451 0.1373);stop-opacity:1;"/>
<stop offset="0.5" stop-color="#262624" style="stop-color:#262624;stop-color:color(display-p3 0.1490 0.1490 0.1412);stop-opacity:1;"/>
<stop offset="1" stop-color="#353532" style="stop-color:#353532;stop-color:color(display-p3 0.2078 0.2078 0.1961);stop-opacity:1;"/>
</linearGradient>
</defs>
</svg>
