<svg width="72" height="61" viewBox="0 0 72 61" fill="none" xmlns="http://www.w3.org/2000/svg">
<path d="M41.9675 55.9043C42.6035 56.9944 43.2394 57.6304 43.5119 57.9937C43.1485 58.7205 42.4218 58.9931 41.4225 58.7205C41.4225 58.2663 41.1499 57.5395 41.1499 56.2677C41.2407 56.2677 41.4225 56.2677 41.5133 56.2677C41.6042 56.1768 41.8767 56.1768 41.9675 55.9043Z" fill="#ADE0FF" style="fill:#ADE0FF;fill:color(display-p3 0.6784 0.8784 1.0000);fill-opacity:1;"/>
<path d="M41.2414 56.1768C41.2414 57.4486 41.423 58.1754 41.5139 58.6296C41.2413 58.5388 41.0597 58.4479 40.7871 58.2663C40.0604 57.812 39.4244 57.1761 38.9702 56.4493C39.3336 56.086 39.6969 55.8134 40.242 55.3592C40.4237 55.6317 40.6054 55.8134 40.878 55.9951C40.9688 56.1768 41.1505 56.1768 41.2414 56.1768Z" fill="#ADE0FF" style="fill:#ADE0FF;fill:color(display-p3 0.6784 0.8784 1.0000);fill-opacity:1;"/>
<path d="M41.4225 58.7204C41.4225 58.5388 41.4225 58.4479 41.3316 58.1754C41.2408 57.7211 41.1499 57.0852 41.1499 56.1768H41.2408C41.2408 57.0852 41.3316 57.7211 41.4225 58.1754C41.4225 58.3571 41.5133 58.5388 41.5133 58.7204H41.4225Z" fill="#C2E8FF" style="fill:#C2E8FF;fill:color(display-p3 0.7608 0.9098 1.0000);fill-opacity:1;"/>
<path d="M48.327 43.3675L35.4269 50.8169L34.8818 50.4535L35.4269 44.5485L48.327 37.0992V43.3675Z" fill="black" style="fill:black;fill-opacity:1;"/>
<path d="M11.5345 22.1095L-1.36559 29.5589L-1.91064 29.1955L-1.36559 23.2905L11.5345 15.8412V22.1095Z" fill="black" style="fill:black;fill-opacity:1;"/>
<path d="M60.864 22.4729C60.864 22.6546 60.864 22.8363 60.864 22.9272C60.7731 23.5631 60.5914 24.0173 60.2281 24.2899C59.683 24.7441 59.1379 25.2892 58.5928 25.7434H58.502H58.4111V25.6525C58.3203 25.5617 58.3203 25.38 58.3203 25.2892V25.1983C58.3203 25.1075 58.3203 25.0166 58.3203 24.9258C58.3203 24.9258 59.5922 23.1997 59.683 23.1089C59.683 23.1089 60.6823 21.6553 60.864 22.0187C60.864 22.1096 60.864 22.2004 60.864 22.2912C60.864 22.3821 60.864 22.4729 60.864 22.4729Z" fill="#002136" style="fill:#002136;fill:color(display-p3 0.0000 0.1294 0.2118);fill-opacity:1;"/>
<path d="M60.7727 22.1096C60.591 21.8371 59.5917 23.1998 59.5917 23.1998C59.5008 23.2906 58.3198 25.0167 58.229 25.0167C58.229 25.0167 58.229 24.9258 58.229 24.7442C58.229 24.6533 58.3198 24.4716 58.3198 24.3808C58.3198 24.2899 58.3198 24.2899 58.3198 24.1991C58.5015 23.8357 59.0466 23.0181 59.3191 22.7455C59.3191 22.7455 60.2276 21.4737 60.4093 21.6554C60.6818 21.8371 60.7727 21.9279 60.7727 22.1096Z" fill="#043859" style="fill:#043859;fill:color(display-p3 0.0157 0.2196 0.3490);fill-opacity:1;"/>
<path d="M59.4097 22.8362C59.228 23.1088 58.6829 23.8355 58.4104 24.2898C58.4104 24.1989 58.4104 24.1989 58.4104 24.1081C58.4104 24.0172 58.3196 24.0172 58.2287 24.0172C58.047 23.9264 57.8653 23.9264 57.6836 23.8355L57.5928 23.9264C57.8653 23.1088 58.4104 22.2911 58.9555 21.7461C59.3188 21.3827 59.5005 21.3827 59.5005 21.3827C59.5914 21.3827 60.409 21.7461 60.409 21.7461C60.4998 21.7461 60.4998 21.8369 60.5907 21.8369C60.3181 21.6552 59.4097 22.8362 59.4097 22.8362Z" fill="#2F5670" style="fill:#2F5670;fill:color(display-p3 0.1843 0.3373 0.4392);fill-opacity:1;"/>
<path d="M58.3201 24.0173C58.4109 24.0173 58.4109 24.1082 58.5018 24.1082C58.5018 24.199 58.5018 24.199 58.5018 24.2899C58.5018 24.2899 58.5018 24.3807 58.5018 24.4716C58.5018 24.4716 57.6841 24.8349 57.5933 24.9258C57.5933 24.8349 57.4116 24.6533 57.3208 24.5624C57.2299 24.5624 58.2292 24.0173 58.3201 24.0173Z" fill="#043859" style="fill:#043859;fill:color(display-p3 0.0157 0.2196 0.3490);fill-opacity:1;"/>
<path d="M57.5935 23.9265L57.6843 23.8357C57.866 23.9265 58.0478 23.9265 58.2294 24.0174C58.1386 24.0174 57.2301 24.5625 57.1393 24.5625L56.7759 24.2899L57.5935 23.9265Z" fill="#2F5670" style="fill:#2F5670;fill:color(display-p3 0.1843 0.3373 0.4392);fill-opacity:1;"/>
<path d="M58.4104 25.8342C58.2287 26.0159 58.1379 26.1068 57.9562 26.2885V26.1976L57.502 24.9258C57.5928 24.9258 58.3196 24.4716 58.4104 24.4716C58.4104 24.5624 58.3196 24.6533 58.3196 24.8349C58.3196 24.9258 58.3196 25.0166 58.3196 25.1075C58.3196 25.1983 58.3196 25.2892 58.3196 25.38V25.4709C58.2287 25.5617 58.2287 25.6526 58.4104 25.8342Z" fill="#002136" style="fill:#002136;fill:color(display-p3 0.0000 0.1294 0.2118);fill-opacity:1;"/>
<path d="M69.4946 48.0004C69.4946 48.3638 69.4946 48.7272 69.4946 48.9997C69.4946 49.2723 69.3129 49.6356 69.0403 49.7265C66.2241 51.3617 63.4079 52.9969 60.5009 54.6322C60.2283 54.8138 60.0466 54.6322 60.0466 54.3596C60.0466 53.9962 60.0466 53.6328 60.0466 53.3603C60.0466 53.1786 60.0466 52.9969 59.9558 52.7244C59.4107 51.18 59.229 50.8166 59.229 50.5441C59.229 50.3624 59.229 50.1807 59.3198 49.999L59.4107 49.9082C68.4953 44.6391 67.9502 45.0025 67.9502 45.0025C68.2227 44.9117 68.4953 45.1842 68.5861 45.4567C68.8586 46.0926 69.0403 46.7286 69.3129 47.3645C69.4946 47.637 69.4946 47.8187 69.4946 48.0004ZM69.0403 49.1814C69.0403 48.9089 69.0403 48.5455 69.0403 48.2729C69.0403 48.0913 69.0404 47.9096 68.9495 47.637C68.7678 47.0011 68.5861 46.456 68.3136 45.8201C68.2227 45.6384 68.1319 45.5476 67.9502 45.6384C67.8593 45.6384 67.8594 45.7293 67.7685 45.8201C67.6777 46.0927 67.8593 46.0926 68.4044 47.9096C68.4953 48.0913 68.4953 48.3638 68.4953 48.5455C68.4953 49.5448 68.4953 49.5448 68.4953 49.6356C68.4953 49.7265 68.5861 49.7265 68.677 49.6356C68.677 49.6356 68.677 49.6356 68.7678 49.6356C68.9495 49.5448 69.0403 49.3631 69.0403 49.1814ZM68.0411 49.8173C68.0411 49.5448 68.0411 49.1814 68.0411 48.9089C68.0411 48.7272 68.041 48.5455 67.9502 48.2729C67.7685 47.637 67.5868 47.092 67.3143 46.456C67.2235 46.2743 67.1326 46.1835 66.9509 46.2743C66.8601 46.2743 66.86 46.3652 66.7692 46.456C66.6783 46.7286 66.8601 46.8194 67.4051 48.5455C67.496 48.7272 67.4959 48.9997 67.4959 49.1814C67.4959 50.1807 67.4959 50.1807 67.4959 50.2716C67.4959 50.3624 67.5868 50.3624 67.6777 50.2716C67.6777 50.2716 67.6777 50.2716 67.7685 50.2716C67.9502 50.0899 68.0411 49.9082 68.0411 49.8173ZM67.0417 50.3624C67.0417 50.0899 67.0417 49.7265 67.0417 49.4539C67.0417 49.2723 67.0417 49.0906 66.9509 48.818C66.7692 48.1821 66.5875 47.637 66.315 47.0011C66.2241 46.8194 66.1333 46.7286 65.9516 46.8194C65.8608 46.8194 65.8608 46.9103 65.7699 47.0011C65.6791 47.2736 65.8608 47.2736 66.4058 49.0906C66.4967 49.2723 66.4967 49.5448 66.4967 49.7265C66.4967 50.7258 66.4967 50.7258 66.4967 50.8166C66.4967 50.9075 66.5875 50.9075 66.6784 50.8166C66.6784 50.8166 66.6783 50.8166 66.7692 50.8166C66.9509 50.7258 67.0417 50.5441 67.0417 50.3624ZM66.0424 50.9983C66.0424 50.7258 66.0424 50.3624 66.0424 50.0899C66.0424 49.9082 66.0425 49.7265 65.9516 49.4539C65.7699 48.818 65.5882 48.2729 65.3157 47.637C65.2248 47.4553 65.134 47.3645 64.9523 47.4553C64.8614 47.4553 64.8614 47.5462 64.7706 47.637C64.6797 47.9096 64.8614 47.9096 65.4065 49.7265C65.4974 49.9082 65.4974 50.1807 65.4974 50.3624C65.4974 51.3617 65.4974 51.3617 65.4974 51.4525C65.4974 51.5434 65.5882 51.5434 65.679 51.4525C65.679 51.4525 65.6791 51.4525 65.7699 51.4525C65.9516 51.2709 66.0424 51.0892 66.0424 50.9983ZM65.0432 51.5434C65.0432 51.2709 65.0432 50.9075 65.0432 50.6349C65.0432 50.4532 65.0431 50.2716 64.9523 49.999C64.7706 49.3631 64.5889 48.818 64.3163 48.1821C64.2255 48.0004 64.1347 47.9096 63.953 48.0004C63.8622 48.0004 63.8621 48.0913 63.7713 48.1821C63.6804 48.4546 63.8622 48.4546 64.4072 50.2716C64.4981 50.4532 64.498 50.7258 64.498 50.9075C64.498 51.9068 64.498 51.9068 64.498 51.9976C64.498 52.0885 64.5889 52.0885 64.6798 51.9976C64.6798 51.9976 64.6797 51.9976 64.7706 51.9976C64.9523 51.8159 65.0432 51.7251 65.0432 51.5434ZM64.0438 52.2702C64.0438 52.1793 64.0438 52.1793 64.0438 51.18C64.0438 50.9983 64.0438 50.8166 63.953 50.5441C63.7713 49.9082 63.5896 49.3631 63.3171 48.7272C63.2262 48.5455 63.1354 48.5455 63.0445 48.5455C62.9537 48.5455 62.9537 48.5455 62.8628 48.6363C62.772 48.6363 62.772 48.7272 62.772 48.818C62.772 49.0906 62.8628 49.0906 63.4079 50.8166C63.4987 50.9983 63.4988 51.2709 63.4988 51.4525C63.4988 51.7251 63.4988 52.0885 63.4988 52.361C63.4988 52.5427 63.5896 52.5427 63.6805 52.4519C63.6805 52.4519 63.6804 52.4519 63.7713 52.4519C63.953 52.4519 64.0438 52.361 64.0438 52.2702ZM63.0445 52.8152C63.0445 52.7244 63.0445 52.8152 63.0445 51.7251C63.0445 51.5434 63.0445 51.3617 62.9537 51.0892C62.772 50.4532 62.5903 49.9082 62.3178 49.2722C62.2269 49.0906 62.136 49.0906 62.0452 49.0906C61.9544 49.0906 61.9544 49.0906 61.8636 49.1814C61.7727 49.1814 61.7727 49.2722 61.7727 49.3631C61.7727 49.6356 61.8635 49.6356 62.4086 51.3617C62.4995 51.5434 62.4994 51.8159 62.4994 51.9976C62.4994 52.2702 62.4994 52.6335 62.4994 52.9061C62.4994 53.0878 62.5903 53.0878 62.6811 52.9969C62.6811 52.9969 62.6812 52.9969 62.772 52.9969C62.9537 52.9969 63.0445 52.9061 63.0445 52.8152ZM62.0452 53.3603C62.0452 53.2695 62.0452 53.3603 62.0452 52.2702C62.0452 52.0885 62.0452 51.9068 61.9544 51.6342C61.7727 50.9983 61.591 50.4532 61.3184 49.8173C61.2276 49.6356 61.1368 49.6356 61.0459 49.6356C60.9551 49.6356 60.9551 49.6356 60.8642 49.7265C60.7734 49.7265 60.7734 49.8173 60.7734 49.9082C60.7734 50.1807 60.8643 50.1807 61.4093 51.9068C61.5002 52.0885 61.5001 52.361 61.5001 52.5427C61.5001 52.8152 61.5001 53.1786 61.5001 53.4512C61.5001 53.6328 61.591 53.6329 61.6819 53.542C61.6819 53.542 61.6818 53.542 61.7727 53.542C61.9544 53.6329 62.0452 53.542 62.0452 53.3603ZM61.0459 53.9962C61.0459 53.9054 61.0459 53.9962 61.0459 52.9061C61.0459 52.7244 61.0459 52.5427 60.9551 52.2702C60.7734 51.6342 60.5917 51.0892 60.3192 50.4532C60.2283 50.2716 60.1375 50.1807 60.0466 50.2716C59.9558 50.2716 59.9558 50.2716 59.8649 50.3624C59.7741 50.3624 59.7741 50.4532 59.7741 50.5441C59.7741 50.8166 59.8649 50.8166 60.41 52.5427C60.5008 52.7244 60.5009 52.9969 60.5009 53.1786C60.5009 53.4512 60.5009 53.8145 60.5009 54.0871C60.5009 54.2688 60.5917 54.2688 60.6825 54.1779C60.6825 54.1779 60.6825 54.1779 60.7734 54.1779C60.9551 54.1779 61.0459 54.0871 61.0459 53.9962Z" fill="#043859" style="fill:#043859;fill:color(display-p3 0.0157 0.2196 0.3490);fill-opacity:1;"/>
<path d="M69.0402 48.2731C69.0402 48.5456 69.0402 48.909 69.0402 49.1816C69.0402 49.3632 68.9493 49.4541 68.8585 49.5449C68.8585 49.5449 68.8585 49.5449 68.7677 49.5449C68.6768 49.6358 68.586 49.5449 68.586 49.5449C68.586 49.4541 68.586 49.5449 68.586 48.4548C68.586 48.2731 68.586 48.0914 68.4952 47.8189C67.9501 46.002 67.7684 46.002 67.8592 45.7294C67.8592 45.6386 67.9501 45.6386 68.0409 45.5477C68.1318 45.4569 68.3134 45.5477 68.4043 45.7294C68.586 46.3653 68.8585 46.9104 69.0402 47.5463C69.0402 47.9097 69.0402 48.0914 69.0402 48.2731Z" fill="#002136" style="fill:#002136;fill:color(display-p3 0.0000 0.1294 0.2118);fill-opacity:1;"/>
<path d="M68.8581 40.0063C69.5849 43.1859 69.5849 43.6402 68.7673 44.0944C65.5877 45.9113 62.4081 47.7282 59.3193 49.5451C58.5017 49.9994 57.6841 49.9994 53.9594 48.5458C50.5982 47.274 47.8728 45.9113 44.8749 43.731C44.5115 43.4585 44.1481 43.1859 43.8755 42.8225C42.9671 41.8232 40.6959 39.2796 40.4234 38.9162C40.3326 38.8253 40.3325 38.7345 40.2417 38.6436C51.5974 32.1027 57.6841 28.5598 59.6827 27.4696C59.7736 27.5605 59.8644 27.6513 59.8644 27.6513C60.2278 27.9238 63.1349 30.195 64.1342 31.1034C64.4976 31.376 64.7701 31.7394 65.0426 32.0119C67.1321 35.0098 68.2222 37.4626 68.8581 40.0063Z" fill="#F5F4EC" style="fill:#F5F4EC;fill:color(display-p3 0.9608 0.9569 0.9255);fill-opacity:1;"/>
<path d="M68.0407 48.909C68.0407 49.1816 68.0407 49.5449 68.0407 49.8175C68.0407 49.9992 67.9498 50.09 67.859 50.1809C67.859 50.1809 67.859 50.1809 67.7682 50.1809C67.6773 50.2717 67.5865 50.1809 67.5865 50.1809C67.5865 50.09 67.5865 50.1809 67.5865 49.0907C67.5865 48.909 67.5864 48.7273 67.4956 48.4548C66.9505 46.6379 66.7689 46.6379 66.8597 46.3653C66.8597 46.2745 66.9505 46.2745 67.0414 46.1836C67.1322 46.0928 67.3139 46.1837 67.4048 46.3653C67.6773 47.0013 67.859 47.5463 68.0407 48.1823C68.0407 48.4548 68.0407 48.6365 68.0407 48.909Z" fill="#002136" style="fill:#002136;fill:color(display-p3 0.0000 0.1294 0.2118);fill-opacity:1;"/>
<path d="M67.7673 51.3619C67.7673 51.4527 67.7673 51.4527 67.7673 52.3612C67.7673 52.452 67.7673 52.6337 67.6765 52.7246C67.5856 52.8154 67.4948 52.9063 67.4039 52.9971C65.587 54.0873 63.7701 55.0866 61.9532 56.1767C61.8623 56.2676 61.7715 56.1767 61.7715 56.1767C61.7715 56.1767 61.8624 55.7225 61.8624 54.9049C61.8624 54.7232 61.9532 54.6323 62.044 54.5415C63.8609 53.4513 65.6778 52.452 67.4948 51.3619C67.5856 51.2711 67.6765 51.2711 67.7673 51.3619Z" fill="#C9EBFF" style="fill:#C9EBFF;fill:color(display-p3 0.7882 0.9216 1.0000);fill-opacity:1;"/>
<path d="M58.8654 56.1767C62.6809 53.9055 66.5873 51.7252 70.4028 49.5449C70.7662 49.3632 70.9479 48.9999 71.0387 48.6365C71.0387 48.4548 71.0387 48.3639 71.0387 48.1823C71.0387 48.8182 71.0387 49.5449 71.0387 50.1809V50.2717C71.0387 50.5442 71.0387 50.7259 70.9479 50.9985C70.8571 51.271 70.6753 51.3619 70.6753 51.3619C69.7669 51.9069 59.4105 57.9027 58.3203 58.4478C58.3203 58.357 58.3203 57.176 58.3203 56.1767C58.502 56.2675 58.6837 56.2675 58.8654 56.1767ZM67.5866 51.271C65.7697 52.3612 63.9528 53.3605 62.1358 54.4506C62.045 54.5415 61.9541 54.6323 61.9541 54.814C61.9541 55.6316 61.8633 56.0858 61.8633 56.0858C61.8633 56.1767 61.9541 56.1767 62.045 56.0858C63.8619 54.9957 65.6788 53.9964 67.4957 52.9062C67.5866 52.8154 67.6775 52.7245 67.7683 52.6337C67.8591 52.5429 67.8591 52.3612 67.8591 52.2703C67.8591 51.3619 67.8591 51.3619 67.8591 51.271C67.6774 51.271 67.5866 51.271 67.5866 51.271Z" fill="#043859" style="fill:#043859;fill:color(display-p3 0.0157 0.2196 0.3490);fill-opacity:1;"/>
<path d="M67.0412 49.4541C67.0412 49.7267 67.0412 50.09 67.0412 50.3626C67.0412 50.5443 66.9504 50.6351 66.8595 50.726C66.8595 50.726 66.8595 50.726 66.7687 50.726C66.6778 50.8168 66.587 50.726 66.587 50.726C66.587 50.6351 66.587 50.6351 66.587 49.6358C66.587 49.4541 66.587 49.2724 66.4961 48.9999C65.9511 47.183 65.7694 47.183 65.8602 46.9104C65.8602 46.8196 65.9511 46.8196 66.0419 46.7288C66.1327 46.6379 66.3145 46.7288 66.4053 46.9104C66.6778 47.5464 66.8595 48.0914 67.0412 48.7274C67.0412 49.0907 67.0412 49.2724 67.0412 49.4541Z" fill="#002136" style="fill:#002136;fill:color(display-p3 0.0000 0.1294 0.2118);fill-opacity:1;"/>
<path d="M66.0417 49.9992C66.0417 50.2718 66.0417 50.6352 66.0417 50.9077C66.0417 51.0894 65.9508 51.1802 65.86 51.2711C65.86 51.2711 65.86 51.2711 65.7691 51.2711C65.6783 51.3619 65.5874 51.2711 65.5874 51.2711C65.5874 51.1802 65.5874 51.2711 65.5874 50.1809C65.5874 49.9992 65.5875 49.8175 65.4966 49.545C64.9515 47.7281 64.7698 47.7281 64.8607 47.4555C64.8607 47.3647 64.9515 47.3647 65.0424 47.2739C65.1332 47.183 65.3149 47.2739 65.4057 47.4555C65.6783 48.0915 65.86 48.6365 66.0417 49.2725C66.0417 49.6358 66.0417 49.8175 66.0417 49.9992Z" fill="#002136" style="fill:#002136;fill:color(display-p3 0.0000 0.1294 0.2118);fill-opacity:1;"/>
<path d="M65.0427 50.6352C65.0427 50.9077 65.0427 51.2711 65.0427 51.5436C65.0427 51.7253 64.9518 51.8162 64.861 51.907C64.861 51.907 64.861 51.907 64.7701 51.907C64.6793 51.9978 64.5885 51.907 64.5885 51.907C64.5885 51.8162 64.5885 51.907 64.5885 50.8169C64.5885 50.6352 64.5884 50.4535 64.4976 50.1809C63.9525 48.364 63.7708 48.364 63.8617 48.0915C63.8617 48.0006 63.9525 48.0006 64.0434 47.9098C64.2251 47.8189 64.3159 47.9098 64.4068 48.0915C64.5885 48.7274 64.861 49.2725 65.0427 49.9084C65.0427 50.1809 65.0427 50.4535 65.0427 50.6352Z" fill="#002136" style="fill:#002136;fill:color(display-p3 0.0000 0.1294 0.2118);fill-opacity:1;"/>
<path d="M64.0436 51.1803C64.0436 52.1796 64.0436 52.1796 64.0436 52.2704C64.0436 52.3613 63.9528 52.4521 63.8619 52.543C63.8619 52.543 63.8619 52.543 63.7711 52.543C63.6803 52.6338 63.5894 52.543 63.5894 52.4521C63.5894 52.1796 63.5894 51.8162 63.5894 51.5437C63.5894 51.362 63.5894 51.1803 63.4986 50.9077C62.9535 49.1817 62.7718 49.0908 62.8626 48.9091C62.8626 48.8183 62.9535 48.7274 62.9535 48.7274C63.0443 48.7274 63.0443 48.6366 63.1352 48.6366C63.226 48.6366 63.3168 48.7274 63.4077 48.8183C63.6802 49.4542 63.8619 49.9993 64.0436 50.6352C64.0436 50.8169 64.0436 50.9986 64.0436 51.1803Z" fill="#002136" style="fill:#002136;fill:color(display-p3 0.0000 0.1294 0.2118);fill-opacity:1;"/>
<path d="M63.0441 51.7253C63.0441 52.8154 63.0441 52.7246 63.0441 52.8154C63.0441 52.9063 62.9533 52.9971 62.8624 53.088C62.8624 53.088 62.8624 53.088 62.7716 53.088C62.6807 53.1788 62.5899 53.0879 62.5899 52.9971C62.5899 52.7246 62.5899 52.3612 62.5899 52.0886C62.5899 51.907 62.5899 51.7253 62.499 51.4527C61.9539 49.7267 61.7723 49.6358 61.8631 49.4541C61.8631 49.3633 61.954 49.2724 61.954 49.2724C62.0448 49.2724 62.0448 49.1816 62.1357 49.1816C62.2265 49.1816 62.3173 49.2724 62.4082 49.3633C62.6807 49.9992 62.8624 50.5443 63.0441 51.1802C63.0441 51.3619 63.0441 51.5436 63.0441 51.7253Z" fill="#002136" style="fill:#002136;fill:color(display-p3 0.0000 0.1294 0.2118);fill-opacity:1;"/>
<path d="M62.0446 52.3612C62.0446 53.3605 62.0446 53.3605 62.0446 53.4513C62.0446 53.5422 61.9538 53.633 61.863 53.7239C61.863 53.7239 61.8629 53.7239 61.7721 53.7239C61.6812 53.8147 61.5904 53.7239 61.5904 53.633C61.5904 53.3605 61.5904 52.9971 61.5904 52.7246C61.5904 52.5429 61.5904 52.3612 61.4995 52.0886C60.9545 50.3626 60.7728 50.2717 60.8636 50.09C60.8636 49.9992 60.9545 49.9084 60.9545 49.9084C61.0453 49.9084 61.0453 49.8175 61.1361 49.8175C61.227 49.8175 61.3179 49.9084 61.4087 49.9992C61.6813 50.6351 61.8629 51.1802 62.0446 51.8161C62.0446 51.907 62.0446 52.1795 62.0446 52.3612Z" fill="#002136" style="fill:#002136;fill:color(display-p3 0.0000 0.1294 0.2118);fill-opacity:1;"/>
<path d="M61.0456 52.9063C61.0456 53.9964 61.0456 53.9056 61.0456 53.9964C61.0456 54.0873 60.9547 54.1781 60.8639 54.269C60.8639 54.269 60.8639 54.269 60.773 54.269C60.6822 54.3598 60.5913 54.269 60.5913 54.1781C60.5913 53.9056 60.5913 53.5422 60.5913 53.2697C60.5913 53.088 60.5914 52.9063 60.5005 52.6338C59.9554 50.9077 59.7737 50.8168 59.8646 50.6351C59.8646 50.5443 59.9554 50.4535 59.9554 50.4535C60.0463 50.4535 60.0463 50.3626 60.1371 50.3626C60.228 50.3626 60.3188 50.4535 60.4096 50.5443C60.6822 51.1802 60.8639 51.7253 61.0456 52.3612C61.0456 52.5429 61.0456 52.7246 61.0456 52.9063Z" fill="#002136" style="fill:#002136;fill:color(display-p3 0.0000 0.1294 0.2118);fill-opacity:1;"/>
<path d="M58.4105 58.5387C58.3197 58.6295 58.138 58.6295 58.138 58.6295C57.3204 58.7203 56.5027 58.6295 55.6851 58.6295C53.0506 58.4478 50.5978 58.0844 48.0541 57.3577C47.9633 57.3577 47.8724 57.176 47.8724 57.0851C47.6907 54.9048 46.2372 52.9062 44.6928 51.3618C43.3301 49.9992 41.2406 48.5456 39.3329 48.0005C39.1512 47.9097 38.8787 47.9097 38.697 47.9097C37.2435 47.6372 36.1533 48.2731 35.6082 49.2724C35.3357 49.0907 34.9723 48.909 34.5181 48.6365V48.5456C35.0631 47.0921 36.335 46.4562 37.8794 46.547C40.2414 46.7287 43.0576 48.6365 44.8745 50.1808C46.4189 51.5435 47.8724 53.2696 48.69 55.1774C50.3253 55.5407 52.0513 55.9041 53.7774 56.0858C54.1408 56.1767 55.776 56.3584 56.6845 56.3584C57.2295 56.3584 57.8654 56.4492 58.4105 56.3584C58.4105 57.2668 58.4105 58.4478 58.4105 58.5387Z" fill="#043859" style="fill:#043859;fill:color(display-p3 0.0157 0.2196 0.3490);fill-opacity:1;"/>
<path d="M58.4111 55.5408C58.4111 55.7225 58.4111 55.995 58.4111 56.2676C57.866 56.3584 57.2301 56.2676 56.685 56.2676C55.7766 56.1767 54.1413 55.995 53.7779 55.995C52.0519 55.8133 50.4167 55.45 48.6906 55.0866C47.873 53.1788 46.4194 51.4527 44.8751 50.09C43.0581 48.5457 40.2419 46.6379 37.8799 46.4562C36.3355 46.3654 35.0637 47.0013 34.5186 48.4548V48.5457C31.1573 46.6379 24.4347 42.7315 18.8931 39.5519C18.8023 38.8252 18.7115 37.9167 18.7115 37.3716C18.5298 35.2822 18.6206 36.3723 18.5298 34.7371C18.5298 34.4646 18.5298 34.192 18.5298 33.9195C26.8876 38.7343 35.7905 43.9125 37.8799 45.0935C38.2433 45.2752 38.6975 45.3661 39.0609 45.3661C39.7877 45.3661 40.6961 45.2752 41.6046 45.0935C41.968 45.7295 42.4222 46.2745 42.8764 46.7288C46.1469 48.9999 49.2357 50.4534 52.8695 51.6344C53.0512 51.7253 53.3237 51.8161 53.5054 51.907C53.778 52.0887 54.0505 52.1795 54.323 52.2703C55.4131 52.8154 56.5033 53.5422 57.6843 54.269L57.7752 54.3598C58.1386 54.6323 58.4111 55.0866 58.4111 55.5408ZM57.9568 55.7225C58.0477 55.6316 57.9568 55.5408 57.9568 55.5408C57.866 55.3591 57.5935 55.2683 57.4118 55.0866C55.7765 54.0873 53.0512 52.452 51.2343 51.907C49.9624 51.5436 49.9624 51.8161 49.9624 52.2703C49.9624 53.1788 50.0533 53.9964 50.78 54.4507C51.5068 54.9049 53.2329 55.2683 54.0505 55.3591C54.8681 55.5408 56.5942 55.8133 57.4118 55.7225C57.6843 55.8133 57.866 55.8133 57.9568 55.7225Z" fill="#D84F3F" style="fill:#D84F3F;fill:color(display-p3 0.8471 0.3098 0.2471);fill-opacity:1;"/>
<path d="M57.9568 55.4499C58.0476 55.5408 58.0476 55.6316 57.9568 55.6316C57.8659 55.7224 57.5934 55.8133 57.5025 55.8133C56.6849 55.9041 54.9589 55.5408 54.1413 55.4499C53.3237 55.2682 51.5976 54.9048 50.8708 54.5414C50.144 54.0872 50.0532 53.2696 50.0532 52.3611C50.0532 51.8161 50.0532 51.5435 51.325 51.9978C53.1419 52.5428 55.8673 54.0872 57.5025 55.1774C57.5934 55.1774 57.8659 55.3591 57.9568 55.4499Z" fill="#C9EBFF" style="fill:#C9EBFF;fill:color(display-p3 0.7882 0.9216 1.0000);fill-opacity:1;"/>
<path d="M47.9642 57.2669C47.7825 58.4479 47.1466 59.1746 46.5107 59.538C45.8748 59.9014 45.3297 60.2648 44.6938 60.6282C45.8748 59.9014 46.2382 58.1753 46.0565 56.7218C45.9656 55.1774 45.4206 53.9056 44.6938 52.7246C43.967 51.5436 43.1494 50.3626 41.9684 49.545C40.7874 48.6365 39.1522 48.0006 37.8804 48.6365C38.3346 48.364 38.7888 48.0914 39.2431 47.8189C41.1508 48.364 43.2403 49.8175 44.603 51.1802C46.1474 52.7246 47.6009 54.7232 47.7826 56.9035C47.7826 57.176 47.8734 57.2669 47.9642 57.2669Z" fill="#002136" style="fill:#002136;fill:color(display-p3 0.0000 0.1294 0.2118);fill-opacity:1;"/>
<path d="M45.6017 14.8419C46.6918 15.5687 47.6003 16.3863 48.5088 17.2039C36.5171 24.1082 33.6101 25.7434 32.7925 26.2885C32.5199 25.8342 32.2473 25.4708 32.0657 25.1983C31.7931 24.9258 30.6121 23.3814 30.6121 23.2905C30.5213 23.1997 30.4304 23.1089 30.4304 22.8363C29.9762 21.2919 31.4298 19.5659 32.6108 18.4757C34.8819 16.3863 38.1523 14.9327 41.1502 14.3877C42.3312 14.206 43.7848 14.0243 44.9658 14.3877C45.1475 14.5693 45.3292 14.6602 45.6017 14.8419Z" fill="#F5F4EC" style="fill:#F5F4EC;fill:color(display-p3 0.9608 0.9569 0.9255);fill-opacity:1;"/>
<path d="M41.5136 51.9068C40.7868 51.2709 39.7876 50.8167 38.9699 51.0892C38.9699 51.0892 38.8791 51.0892 38.8791 51.1801C38.334 51.4526 37.9706 51.9977 37.8798 52.6336C37.8798 52.8153 37.789 52.997 37.789 53.1787C37.789 54.2688 38.2432 55.5407 38.9699 56.54C39.515 57.2667 40.1509 57.9935 40.7869 58.3569C41.0594 58.5386 41.2411 58.6294 41.5136 58.7203C42.4221 58.9928 43.1488 58.7203 43.6031 57.9935C43.7847 57.6301 43.8756 57.1759 43.8756 56.6308C43.8756 56.0857 43.7847 55.5407 43.6031 54.9047C43.2397 53.8146 42.6038 52.8153 41.877 52.0885C41.6953 52.0885 41.6045 51.9977 41.5136 51.9068ZM45.42 56.8125C45.5108 57.721 45.3291 58.6294 44.8749 59.447C44.5115 59.9921 43.9664 60.5372 43.3305 60.628C42.6946 60.8097 41.9679 60.628 41.4228 60.3555C38.97 59.2653 36.5171 55.8132 36.4263 52.3611C36.4263 51.7251 36.5171 50.9984 36.7896 50.4533C37.153 49.9082 37.6981 49.3631 38.334 49.2723C40.5143 48.6364 44.784 52.1794 45.42 56.8125Z" fill="#002136" style="fill:#002136;fill:color(display-p3 0.0000 0.1294 0.2118);fill-opacity:1;"/>
<path d="M43.875 56.6309C43.875 57.176 43.7842 57.6302 43.6025 57.9936C43.33 57.6302 42.6032 56.9943 42.0581 55.9041C42.149 55.8133 42.149 55.6316 42.149 55.4499C42.149 55.2682 42.149 54.9957 42.0581 54.814C42.694 54.9957 43.33 54.9048 43.6025 54.9957C43.7842 55.5407 43.875 56.0858 43.875 56.6309Z" fill="#ADE0FF" style="fill:#ADE0FF;fill:color(display-p3 0.6784 0.8784 1.0000);fill-opacity:1;"/>
<path d="M43.5119 54.9957C43.2393 54.9957 42.5126 54.9957 41.9675 54.814C41.7858 54.3598 41.5133 53.9964 41.2407 53.7238C41.2407 52.9062 41.4224 52.2703 41.5132 51.9069C41.6041 51.9978 41.6949 52.0886 41.7858 52.1795C42.5125 52.9062 43.2393 53.9055 43.5119 54.9957Z" fill="#ADE0FF" style="fill:#ADE0FF;fill:color(display-p3 0.6784 0.8784 1.0000);fill-opacity:1;"/>
<path d="M41.5136 54.6324C41.6953 54.9958 41.7861 55.45 41.6045 55.8134C41.5136 55.9043 41.4228 55.9951 41.3319 56.086C40.8777 56.1768 39.9692 55.3592 39.9692 54.4507C39.9692 54.3599 39.9693 54.1782 40.0601 54.0874C40.151 53.9965 40.2418 53.9057 40.3326 53.8148C40.4235 53.8148 40.6051 53.8148 40.696 53.9057C41.0594 53.9965 41.3319 54.3599 41.5136 54.6324Z" fill="#002136" style="fill:#002136;fill:color(display-p3 0.0000 0.1294 0.2118);fill-opacity:1;"/>
<path d="M41.5139 51.907C41.5139 52.2704 41.2414 52.9063 41.2414 53.7239C41.0597 53.6331 40.9688 53.5423 40.7871 53.4514C40.6054 53.3606 40.4237 53.3606 40.3329 53.4514C39.5153 52.4521 39.2428 51.5436 38.9702 51.0894C39.7878 50.8169 40.7871 51.2711 41.5139 51.907Z" fill="#ADE0FF" style="fill:#ADE0FF;fill:color(display-p3 0.6784 0.8784 1.0000);fill-opacity:1;"/>
<path d="M40.3327 53.4513C40.2419 53.4513 40.151 53.5422 40.151 53.5422C40.0602 53.633 39.8785 53.9056 39.8785 54.1781C38.7884 53.8147 38.1524 53.3605 37.7891 53.1788C37.7891 52.9971 37.789 52.8154 37.8799 52.6337C37.9707 51.9978 38.2432 51.4527 38.8792 51.1802C38.8792 51.1802 38.97 51.1802 38.97 51.0894C39.1517 51.4527 39.5151 52.3612 40.3327 53.4513Z" fill="#ADE0FF" style="fill:#ADE0FF;fill:color(display-p3 0.6784 0.8784 1.0000);fill-opacity:1;"/>
<path d="M41.9679 55.9043C41.877 56.1768 41.6045 56.1768 41.6045 56.1768C41.5136 56.1768 41.332 56.1768 41.2411 56.1768C41.1503 56.1768 40.9685 56.0859 40.8777 55.9951C40.6052 55.8134 40.4235 55.6317 40.2418 55.3592C39.9692 54.9958 39.8784 54.5416 39.8784 54.1782V54.0873C39.8784 53.8148 39.9693 53.6331 40.1509 53.4514C40.2418 53.3606 40.2418 53.3606 40.3326 53.3606C40.4235 53.2697 40.6052 53.3606 40.7869 53.3606C40.9686 53.4514 41.0594 53.5423 41.2411 53.6331C41.6045 53.9056 41.877 54.3599 41.9679 54.7233C42.0587 54.9049 42.0587 55.1775 42.0587 55.3592C42.0587 55.6317 42.0587 55.8134 41.9679 55.9043ZM39.9692 54.3599C39.9692 55.3592 40.8777 56.1768 41.3319 55.9951C41.4228 55.9951 41.6045 55.9042 41.6045 55.7226C41.7861 55.45 41.6045 54.9049 41.5136 54.5416C41.3319 54.1782 41.0594 53.8148 40.696 53.724C40.6052 53.6331 40.4235 53.6331 40.3326 53.6331C40.2418 53.6331 40.0601 53.7239 40.0601 53.9056C39.9693 54.0873 39.9692 54.269 39.9692 54.3599Z" fill="#043859" style="fill:#043859;fill:color(display-p3 0.0157 0.2196 0.3490);fill-opacity:1;"/>
<path d="M41.3326 44.7301L41.2418 44.6393C41.0601 44.4576 40.8784 44.1851 40.6059 43.9125C40.515 43.8217 40.515 43.7308 40.4241 43.7308C40.2425 43.5492 40.0608 43.3675 39.8791 43.1858C39.7882 43.0949 39.7882 43.0041 39.6974 43.0041C39.6974 43.0041 39.6974 43.0041 39.6066 42.9132C39.5157 42.8224 39.5157 42.8224 39.4249 42.7315L39.334 42.6407C39.2431 42.5499 39.2432 42.459 39.1523 42.459C39.1523 42.459 39.1523 42.3682 39.0615 42.3682L38.9706 42.2773C38.8798 42.1865 38.7889 42.0956 38.7889 42.0048C38.6981 41.9139 38.6981 41.9139 38.6981 41.8231C38.6073 41.7322 38.5164 41.6414 38.4255 41.5505C38.4255 41.5505 38.4256 41.5505 38.3347 41.4597C38.2439 41.3689 38.2439 41.3689 38.153 41.278C38.0622 41.1872 37.9713 41.0055 37.8805 41.0055C37.7896 40.9146 37.6988 40.7329 37.608 40.5512C37.608 40.5512 37.2445 39.9153 36.6086 38.8252L36.5178 38.7343C35.6093 37.2808 32.9748 32.5568 31.6121 30.3765C31.6121 30.2857 31.5213 30.2857 31.5213 30.1948V30.104L31.4305 30.0131C31.4305 30.0131 31.4304 29.9223 31.3396 29.9223C30.522 28.5596 29.8861 27.4694 29.6135 27.0152C29.5227 26.9244 29.5227 26.8335 29.5227 26.8335V26.7427C29.2501 26.2885 29.341 22.7455 4.54006 9.75452C4.08583 10.1179 3.63161 10.4813 3.17738 10.8447C2.54146 11.4806 1.90555 12.1165 1.08793 12.4799C-0.00221515 13.025 -1.09236 13.57 -2.09167 14.206C-2.09167 14.206 -2.27337 15.1144 -2.27337 15.387C-2.36422 16.2954 -2.0008 17.6581 -1.72826 18.4757C-1.18319 20.0201 -0.365598 21.3828 0.633705 22.6546C1.17878 23.3814 1.81468 24.199 2.54144 24.5624C2.90483 24.7441 3.54077 25.1075 4.26754 25.5617C4.54007 24.3807 5.17597 22.7455 5.72105 21.2919C5.08513 20.8377 4.17668 20.1109 3.63161 19.6567C3.17738 19.2933 2.6323 18.7483 2.26892 18.294C1.72384 17.6581 1.81471 17.113 2.17809 16.3863C2.81402 15.2961 4.44924 13.1158 4.90347 12.6616C5.08516 12.4799 5.26683 12.389 5.44852 12.389C5.8119 12.2982 6.26612 12.4799 6.62951 12.6616C7.44712 13.025 8.53727 13.6609 9.35488 14.1151C10.3542 14.751 14.9874 17.5673 19.1663 20.2018C19.4388 20.3835 19.7113 20.5652 19.9838 20.7469C20.2564 20.9286 20.6198 21.1102 20.8923 21.2919C24.0719 23.2905 26.6156 24.8349 26.7065 24.9258C27.5241 25.5617 27.7057 25.7434 27.8874 26.1976C28.2508 26.8335 29.7044 29.5589 29.7044 29.6497C31.067 32.466 32.3389 35.1913 33.429 38.0984C33.9741 39.4611 31.6121 38.0984 31.5213 38.0984C29.9769 37.1899 22.9818 33.011 20.1656 31.285C19.6205 31.0124 19.2571 30.7399 19.1663 30.649C19.0754 30.649 18.9845 30.5582 18.8937 30.4674C18.8028 31.285 18.5303 32.8294 18.4395 33.5561C18.4395 33.647 18.4395 33.7378 18.4395 33.8286C26.7973 38.6435 35.7002 43.8217 37.7897 45.0027C38.153 45.1844 38.6073 45.2752 38.9706 45.2752C39.6974 45.2752 40.6059 45.1844 41.5143 45.0027C41.5143 44.9118 41.4235 44.821 41.3326 44.7301ZM21.3465 34.192C21.074 34.1012 20.6198 33.8287 20.3473 33.647C19.8022 33.2836 19.5296 32.8293 19.7113 32.0117C20.7106 32.6477 21.7099 33.2836 22.7092 33.9195C22.4367 34.3737 21.9825 34.3737 21.3465 34.192Z" fill="#D84F3F" style="fill:#D84F3F;fill:color(display-p3 0.8471 0.3098 0.2471);fill-opacity:1;"/>
<path d="M60.3187 27.1969C60.3187 27.1969 60.2279 27.2878 60.137 27.2878C60.0462 27.3786 59.8645 27.4695 59.592 27.5603C57.8659 25.9251 48.963 17.5673 48.5996 17.2039L48.5088 17.113C48.6905 17.0222 48.8722 16.9313 49.0538 16.8405C49.4172 16.7496 49.5989 16.7496 49.7806 16.9313C52.6877 19.5659 58.2293 24.8349 60.5004 26.9244C60.4096 27.1061 60.4096 27.1061 60.3187 27.1969Z" fill="#D0CFC6" style="fill:#D0CFC6;fill:color(display-p3 0.8157 0.8118 0.7765);fill-opacity:1;"/>
<path d="M37.7891 53.1788C38.1524 53.3605 38.6975 53.8148 39.8785 54.1781V54.269C39.8785 54.6324 40.0602 55.0866 40.2419 55.45C39.6059 55.9042 39.3334 56.1767 38.97 56.5401C38.2433 55.5408 37.7891 54.269 37.7891 53.1788Z" fill="#ADE0FF" style="fill:#ADE0FF;fill:color(display-p3 0.6784 0.8784 1.0000);fill-opacity:1;"/>
<path d="M36.335 52.3612C36.4259 55.8133 38.8787 59.2655 41.3315 60.3556C41.9675 60.6282 42.6034 60.8098 43.2393 60.6282C43.8753 60.4465 44.4203 59.9922 44.7837 59.4472C45.2379 58.7204 45.2379 57.7211 45.1471 56.9035C44.602 52.2703 40.514 48.7274 38.2428 49.3633C37.6069 49.545 37.0618 49.9992 36.6984 50.5443C36.4259 50.9985 36.335 51.7253 36.335 52.3612ZM40.2414 59.9014C37.8794 58.1753 36.1533 54.9049 36.1533 52.0887C36.1533 51.6344 36.2442 51.1802 36.335 50.726C36.5167 49.9084 36.971 49.0907 37.7886 48.6365C37.7886 48.6365 37.8794 48.6365 37.8794 48.5457C39.1513 47.9098 40.6956 48.5457 41.9675 49.4541C43.2393 50.3626 44.0569 51.4527 44.6928 52.6337C45.4196 53.8147 45.9647 55.0866 46.0555 56.6309C46.1464 58.0845 45.8738 59.9014 44.6928 60.5373C43.2393 61.4458 41.6041 60.9007 40.2414 59.9014Z" fill="#002136" style="fill:#002136;fill:color(display-p3 0.0000 0.1294 0.2118);fill-opacity:1;"/>
<path d="M35.2454 50.5443C35.2454 50.726 35.3363 50.8168 35.4271 50.8168C29.9764 47.7281 24.6165 44.5485 19.1658 41.4597C19.1658 41.4597 18.7115 40.9147 18.6207 40.4604C18.5298 40.0062 18.8932 39.6428 18.8024 39.4611C24.344 42.6407 31.0666 46.5471 34.4279 48.4548C34.8821 48.7274 35.2455 48.9091 35.518 49.0908C35.4272 49.2725 35.3363 49.4542 35.3363 49.7267C35.2455 49.9084 35.1546 50.2718 35.2454 50.5443Z" fill="#043859" style="fill:#043859;fill:color(display-p3 0.0157 0.2196 0.3490);fill-opacity:1;"/>
<path d="M33.6101 38.1892C34.1552 39.5519 31.7932 38.1892 31.7024 38.1892C30.158 37.2808 23.1629 33.1019 20.3467 31.3758C20.3467 30.8307 20.9826 22.6546 20.9826 22.3821C20.9826 22.1095 21.0734 21.837 21.0734 21.5645C24.253 23.5631 26.7967 25.1074 26.8876 25.1983C27.7052 25.8342 27.8869 26.0159 28.0686 26.4701C28.432 27.106 29.8855 29.8314 29.8855 29.9223C31.339 32.4659 32.6108 35.2822 33.6101 38.1892Z" fill="#0D56B3" style="fill:#0D56B3;fill:color(display-p3 0.0510 0.3373 0.7020);fill-opacity:1;"/>
<path d="M22.7083 33.8286C22.3449 34.3737 21.8906 34.3737 21.3456 34.1011C21.073 34.0103 20.6188 33.7378 20.3463 33.5561C19.8012 33.1927 19.5287 32.7384 19.7104 31.9208C20.7097 32.5568 21.7998 33.1927 22.7083 33.8286Z" fill="#002136" style="fill:#002136;fill:color(display-p3 0.0000 0.1294 0.2118);fill-opacity:1;"/>
<path d="M21.1641 21.3828C21.1641 21.6553 21.0733 22.0187 21.0733 22.2004C21.0733 22.473 20.4373 30.6491 20.4373 31.1941C19.8923 30.9216 19.5289 30.6491 19.4381 30.5582C19.3472 30.5582 19.2564 30.4674 19.1655 30.3765C19.3472 28.6505 20.074 22.5638 20.3465 20.7469C20.5282 21.0194 20.8007 21.2011 21.1641 21.3828Z" fill="#043859" style="fill:#043859;fill:color(display-p3 0.0157 0.2196 0.3490);fill-opacity:1;"/>
<path d="M20.256 20.8378C19.8926 22.6547 19.1659 28.7414 19.075 30.4674C18.8025 30.2857 18.3483 30.0132 17.8032 29.6498C18.0758 27.7421 19.0751 22.0188 19.4384 20.3835C19.711 20.4744 19.9835 20.6561 20.256 20.8378Z" fill="#043859" style="fill:#043859;fill:color(display-p3 0.0157 0.2196 0.3490);fill-opacity:1;"/>
<path d="M2.35871 26.561C0.360107 25.9251 -1.09347 26.561 -1.5477 28.7413C-1.5477 28.8322 -1.5477 28.923 -1.5477 29.1047C-1.5477 29.3773 -1.45684 29.559 -1.366 29.6498C-1.54769 29.559 -1.72938 29.4681 -1.82023 29.3773C-2.27445 29.1047 -2.91035 28.5597 -3.27374 28.0146L-3.36462 27.9237C-3.81884 26.9244 -3.90967 26.1068 -3.90967 25.3801C-3.90967 24.0174 -3.90967 22.6547 -3.90967 21.292C-3.90967 21.8371 -3.81883 22.3821 -3.63714 22.9272C-3.27376 24.1991 -2.6378 25.3801 -1.72935 26.4702C-1.45681 25.9251 -1.00258 25.5617 -0.36666 25.2892C0.632644 24.9258 1.72276 25.1984 2.72206 25.5617C3.26714 25.8343 3.90308 26.1068 4.44816 26.4702C5.62915 27.2878 6.71927 28.378 7.53688 29.559C8.26365 30.4674 8.8996 31.5576 9.44468 32.6477C9.80806 33.3745 9.98972 33.9196 10.2623 34.4646C10.6256 34.6463 14.3503 36.8266 18.9835 39.552C18.9835 39.9154 19.1651 41.3689 19.3468 41.5506C16.6215 40.0062 13.8961 38.371 11.1707 36.8266C10.8982 36.6449 10.6257 36.4632 10.3531 36.3724C10.1714 36.2816 10.0806 36.0999 9.98973 35.8273C9.80804 35.2822 9.44468 34.0104 8.53622 32.2843C8.26368 31.7393 7.90026 31.285 7.53688 30.74C6.90096 29.9223 6.26505 29.1047 5.44744 28.4688C5.35659 28.378 5.35658 28.378 5.26574 28.2871C4.53897 27.6512 3.81222 27.197 2.90377 26.8336C2.54038 26.6519 2.44956 26.6519 2.35871 26.561Z" fill="#043859" style="fill:#043859;fill:color(display-p3 0.0157 0.2196 0.3490);fill-opacity:1;"/>
<path d="M17.8031 29.6497C18.3481 30.013 18.7115 30.2856 19.0749 30.4673C18.984 31.2849 18.7115 32.8293 18.6206 33.556C18.6206 33.6469 18.6206 33.7377 18.6206 33.8286C12.8974 30.5581 7.44662 27.3785 4.53955 25.6524C4.81209 24.4714 5.44804 22.8362 5.99312 21.3827C6.26565 21.5644 6.44732 21.7461 6.53817 21.8369C7.71916 22.6545 11.8072 25.5616 12.534 26.1067C12.9882 26.5609 15.8953 28.3778 17.8031 29.6497ZM9.08184 25.2891C9.17269 25.2891 9.26355 25.1982 9.44525 25.1074C8.53679 24.4714 7.53745 23.7447 6.62899 23.1088C6.53815 23.8355 6.71987 24.1989 7.1741 24.5623C7.35579 24.744 7.90085 25.0165 8.17338 25.1982C8.35507 25.2891 8.35506 25.2891 8.44591 25.2891C8.6276 25.2891 8.62764 25.3799 8.71849 25.3799C8.90018 25.3799 8.90015 25.3799 9.08184 25.2891Z" fill="#D84F3F" style="fill:#D84F3F;fill:color(display-p3 0.8471 0.3098 0.2471);fill-opacity:1;"/>
<path d="M18.8028 0.215663C18.8937 0.215663 18.9845 0.215662 18.9845 0.397354C18.9845 0.488199 18.8937 0.4882 18.8937 0.4882C18.712 0.669891 18.712 0.760737 18.3486 1.03327C18.1669 1.21497 17.8944 1.39666 17.7127 1.4875C15.7141 2.75934 12.807 4.57626 9.44573 6.30233C7.08375 7.57417 3.99498 8.57347 1.99637 9.48193C1.08791 9.84532 0.179454 10.3904 -0.729004 10.8446C4.90343 7.57417 10.445 4.39457 16.0775 1.12412C16.35 0.942429 16.6226 0.851584 16.8951 0.669892L18.6211 0.124817C18.6211 0.215663 18.712 0.215663 18.8028 0.215663Z" fill="#F5F4EC" style="fill:#F5F4EC;fill:color(display-p3 0.9608 0.9569 0.9255);fill-opacity:1;"/>
<path d="M18.6202 37.2809C18.6202 37.9168 18.7111 38.7344 18.8019 39.4612C14.1688 36.8266 10.4441 34.6463 10.0808 34.3738C9.89906 33.8287 9.6265 33.2836 9.26312 32.5569C8.71805 31.4667 8.08215 30.3766 7.35538 29.4681C6.53777 28.2871 5.4476 27.197 4.2666 26.3794C4.2666 26.1977 4.35743 25.9251 4.35743 25.6526C7.26449 27.3787 12.7152 30.4674 18.4385 33.8287C18.4385 34.1012 18.4385 34.2829 18.4385 34.6463C18.5294 36.1907 18.4385 35.1006 18.6202 37.2809Z" fill="#D84F3F" style="fill:#D84F3F;fill:color(display-p3 0.8471 0.3098 0.2471);fill-opacity:1;"/>
<path d="M4.72062 9.84541C4.26639 10.2088 3.81216 10.5722 3.35793 10.9356C2.72201 11.5715 2.0861 12.2074 1.26849 12.5708C0.178338 13.1159 -0.911811 13.6609 -1.91111 14.2969C-2.36534 14.0243 -2.91042 13.6609 -3.2738 13.2067C-3.36465 13.1159 -3.54636 12.8433 -3.63721 12.7525V12.6616C-3.27382 12.4799 -3.00125 12.2074 -2.63787 12.0257C-2.54702 11.9349 -2.36537 11.844 -2.27452 11.844C-2.18367 11.7532 -2.00196 11.6623 -1.91111 11.6623C-1.54773 11.4806 -1.18434 11.2081 -0.820954 11.0264C-0.820954 11.0264 -0.730131 11.0264 -0.730131 10.9356C0.178327 10.3905 1.08678 9.93626 1.99524 9.57288C3.99385 8.66442 6.99177 7.66511 9.44461 6.39327C12.8059 4.6672 15.7129 2.85029 17.7116 1.57844C17.9841 1.39675 18.1658 1.21506 18.3475 1.12422C18.7109 0.85168 18.8017 0.760834 18.8925 0.579142L18.9834 0.488296C18.9834 0.39745 18.9834 0.397451 18.8017 0.306605C18.7109 0.306605 18.7109 0.306605 18.62 0.306605L16.894 0.851679C17.6207 0.488296 18.3475 0.306605 19.0742 0.124913H19.2559C19.3468 0.124913 19.9827 0.034067 19.9827 0.034067C20.6186 -0.0567788 21.2545 0.034068 21.7996 0.306605C21.7088 0.21576 21.618 0.21576 21.4363 0.306605C21.2546 0.306605 21.1637 0.39745 21.0729 0.488296C19.9827 1.12422 19.6193 1.39675 18.7109 1.94183C16.0764 3.57705 12.9876 5.39397 10.1714 6.93835C8.44529 7.66511 6.53753 8.57357 4.72062 9.84541Z" fill="#D84F3F" style="fill:#D84F3F;fill:color(display-p3 0.8471 0.3098 0.2471);fill-opacity:1;"/>
<path d="M10.1715 36.1907C10.4441 36.3724 10.7166 36.554 10.9892 36.6449C10.7166 37.3717 10.2624 37.9167 9.71731 38.2801C9.08139 38.6435 8.53631 39.0069 7.90039 39.3703C9.08139 38.6435 9.44477 36.9174 9.26308 35.3731C9.17223 34.1921 8.80887 33.1019 8.2638 32.1026C9.17225 33.7378 9.53561 35.1005 9.71731 35.6456C9.80815 35.9181 9.899 36.0998 10.1715 36.1907Z" fill="#002136" style="fill:#002136;fill:color(display-p3 0.0000 0.1294 0.2118);fill-opacity:1;"/>
<path d="M9.627 14.2969C10.6263 14.9328 15.2594 17.749 19.4383 20.3835C18.9841 22.1096 18.0757 27.7421 17.8031 29.6498C15.8954 28.4688 12.9882 26.5611 12.534 26.1977C11.8073 25.6526 7.71921 22.8364 6.53822 21.9279C6.44737 21.8371 6.2657 21.6554 5.99316 21.4737C6.35655 20.6561 6.62908 19.9293 6.90162 19.4751C7.53754 17.9307 8.71854 15.5687 9.627 14.2969Z" fill="#0D56B3" style="fill:#0D56B3;fill:color(display-p3 0.0510 0.3373 0.7020);fill-opacity:1;"/>
<path d="M9.44535 25.1075C9.35451 25.1983 9.17279 25.2892 9.08195 25.2892C8.9911 25.2892 8.90027 25.2892 8.80942 25.2892C8.62773 25.2892 8.62774 25.2891 8.53689 25.1983C8.3552 25.1983 8.35521 25.1075 8.26437 25.1075C7.99183 25.0166 7.53757 24.6532 7.26503 24.4715C6.8108 24.1082 6.62913 23.7448 6.71998 23.018C7.53759 23.7448 8.44605 24.4715 9.44535 25.1075Z" fill="#002136" style="fill:#002136;fill:color(display-p3 0.0000 0.1294 0.2118);fill-opacity:1;"/>
<path d="M6.90151 12.8433C7.71913 13.2067 8.80928 13.8426 9.62689 14.2968C8.80928 15.5686 7.5374 17.9306 6.81064 19.475C6.5381 19.9292 6.26556 20.656 5.90218 21.4736C5.26626 21.0194 4.35781 20.2926 3.81274 19.8384C3.35851 19.475 2.81343 18.9299 2.45005 18.4757C1.90497 17.8398 1.99584 17.2947 2.35922 16.568C2.99515 15.4778 4.63037 13.2975 5.0846 12.8433C5.26629 12.6616 5.44796 12.5707 5.62965 12.5707C6.08388 12.5707 6.53813 12.7524 6.90151 12.8433Z" fill="#0D56B3" style="fill:#0D56B3;fill:color(display-p3 0.0510 0.3373 0.7020);fill-opacity:1;"/>
<path d="M8.35453 35.5548C8.44538 36.4633 8.44536 37.3717 7.99113 38.0985C7.62774 38.6436 7.08271 39.1887 6.44679 39.2795C5.81087 39.4612 5.08407 39.2795 4.539 39.007C1.99532 37.9168 -0.366674 34.4647 -0.45752 31.0125C-0.45752 30.3766 -0.366652 29.6499 -0.0941142 29.1048C0.269269 28.5597 0.814355 28.0146 1.45028 27.9238C3.72142 27.3787 7.80946 30.9217 8.35453 35.5548ZM6.90102 36.9175C7.17356 36.4633 7.17355 36.0091 7.17355 35.5548C7.0827 33.0111 5.26575 30.4675 3.44884 29.7407C2.99461 29.559 2.44956 29.4682 1.99533 29.559C1.5411 29.6499 1.08686 30.0132 0.905167 30.4675C0.541784 31.0125 0.541795 31.7393 0.632641 32.3752C0.996024 35.8274 3.99391 38.371 5.71998 37.9168C6.26506 37.6443 6.62849 37.3717 6.90102 36.9175Z" fill="#043859" style="fill:#043859;fill:color(display-p3 0.0157 0.2196 0.3490);fill-opacity:1;"/>
<path d="M6.9927 35.3729C6.9927 35.918 6.90186 36.3722 6.72017 36.7356C6.44763 36.3722 5.72086 35.7363 5.17578 34.6462C5.26663 34.5553 5.2666 34.3736 5.2666 34.1919C5.2666 34.0103 5.26663 33.8286 5.17578 33.556C5.8117 33.7377 6.44763 33.6469 6.72017 33.7377C6.90186 34.1919 6.9927 34.8279 6.9927 35.3729Z" fill="#ADE0FF" style="fill:#ADE0FF;fill:color(display-p3 0.6784 0.8784 1.0000);fill-opacity:1;"/>
<path d="M6.71988 33.6469C6.44734 33.6469 5.72056 33.6469 5.17549 33.4652C4.99379 33.011 4.72127 32.6476 4.44873 32.3751C4.44873 31.5575 4.63041 30.9215 4.72126 30.5582C5.53887 31.3758 6.35649 32.4659 6.71988 33.6469Z" fill="#ADE0FF" style="fill:#ADE0FF;fill:color(display-p3 0.6784 0.8784 1.0000);fill-opacity:1;"/>
<path d="M3.54049 29.6498C5.35741 30.3766 7.1743 33.0111 7.26515 35.4639C7.26515 35.9182 7.17431 36.4632 6.99262 36.8266C6.72009 37.2808 6.35669 37.5534 5.90246 37.7351C4.17639 38.1893 1.26935 35.6456 0.815121 32.1935C0.724275 31.5576 0.724264 30.8308 1.08765 30.2857C1.36018 29.8315 1.72358 29.5589 2.17781 29.3773C2.54119 29.3773 3.08627 29.4681 3.54049 29.6498ZM6.7201 33.647C6.35671 32.466 5.53911 31.285 4.63066 30.5583C4.26727 30.2857 3.90388 30.0132 3.54049 29.9223C2.99542 29.6498 2.45031 29.6498 2.08693 29.8315C1.54185 30.0132 1.08767 30.5583 0.996824 31.285C0.996824 31.4667 0.905945 31.6484 0.905945 31.8301C0.905945 32.9202 1.36016 34.1921 2.08693 35.1914C2.632 35.9182 3.26792 36.6449 3.90384 37.0083C4.17638 37.19 4.35812 37.2808 4.63066 37.3717C5.53911 37.6442 6.26587 37.3717 6.7201 36.6449C6.90179 36.2815 6.99262 35.8273 6.99262 35.2822C6.99262 34.828 6.90179 34.1921 6.7201 33.647Z" fill="#043859" style="fill:#043859;fill:color(display-p3 0.0157 0.2196 0.3490);fill-opacity:1;"/>
<path d="M5.17457 34.6462C5.81049 35.7363 6.44642 36.2814 6.71896 36.7356C6.35557 37.4624 5.53797 37.7349 4.62952 37.4624C4.62952 37.0082 4.35693 36.2814 4.35693 35.0096C4.44778 35.0096 4.62949 35.0096 4.72034 35.0096C4.81118 34.9187 5.08372 34.9187 5.17457 34.6462Z" fill="#ADE0FF" style="fill:#ADE0FF;fill:color(display-p3 0.6784 0.8784 1.0000);fill-opacity:1;"/>
<path d="M4.99376 28.1055C5.08461 28.1964 5.08462 28.1964 5.17547 28.2872C5.17547 28.1964 5.08461 28.1964 4.99376 28.1055C3.81277 27.3788 2.17758 26.7429 0.996582 27.3788C1.45081 27.1062 1.90504 26.8337 2.35927 26.5612C2.45011 26.5612 2.54095 26.652 2.6318 26.652C3.44941 27.0154 4.267 27.4696 4.99376 28.1055Z" fill="#002136" style="fill:#002136;fill:color(display-p3 0.0000 0.1294 0.2118);fill-opacity:1;"/>
<path d="M4.72115 33.3744C4.90284 33.6469 4.99367 34.192 4.81197 34.5554C4.35775 35.2822 3.17678 34.2829 3.08594 33.1019C3.08594 33.011 3.08592 32.8293 3.17676 32.7385C3.26761 32.6476 3.35844 32.5568 3.44929 32.4659C3.54013 32.4659 3.72185 32.4659 3.81269 32.5568C4.26692 32.6476 4.53946 33.011 4.72115 33.3744Z" fill="#002136" style="fill:#002136;fill:color(display-p3 0.0000 0.1294 0.2118);fill-opacity:1;"/>
<path d="M4.63064 30.5581C4.63064 30.9215 4.35806 31.5574 4.35806 32.375C4.17637 32.2842 4.08552 32.1934 3.90383 32.1025C3.72214 32.0117 3.54045 32.0117 3.4496 32.1025C2.63199 31.1032 2.35945 30.1947 2.08691 29.7405C2.54114 29.5588 2.99541 29.6497 3.54048 29.8314C3.99471 30.1039 4.3581 30.2856 4.63064 30.5581Z" fill="#ADE0FF" style="fill:#ADE0FF;fill:color(display-p3 0.6784 0.8784 1.0000);fill-opacity:1;"/>
<path d="M4.08499 34.7371C4.17583 34.828 4.35754 34.828 4.44839 34.9188C4.44839 36.1907 4.63007 37.0083 4.72092 37.3716C4.44838 37.2808 4.2667 37.19 3.99416 37.0083C3.2674 36.554 2.63148 35.9181 2.17725 35.1913C2.54063 34.9188 2.81313 34.6463 3.44905 34.1012C3.63075 34.4646 3.81245 34.6463 4.08499 34.7371Z" fill="#ADE0FF" style="fill:#ADE0FF;fill:color(display-p3 0.6784 0.8784 1.0000);fill-opacity:1;"/>
<path d="M2.9952 33.011C2.9952 33.3744 3.17692 33.8286 3.35861 34.192C2.72269 34.7371 2.45013 35.0096 2.08675 35.2821C1.35998 34.192 0.905762 33.011 0.905762 31.9208C1.26914 32.1025 1.81421 32.5568 2.9952 32.9201C2.9952 32.9201 2.9952 32.9201 2.9952 33.011Z" fill="#ADE0FF" style="fill:#ADE0FF;fill:color(display-p3 0.6784 0.8784 1.0000);fill-opacity:1;"/>
<path d="M3.44943 32.1025C3.35859 32.1025 3.26779 32.1934 3.26779 32.1934C3.17694 32.2842 2.9952 32.5567 2.9952 32.8293C1.90505 32.4659 1.26914 32.0117 0.905762 31.83C0.905762 31.6483 0.905795 31.4666 0.996641 31.2849C1.08749 30.4673 1.54167 30.0131 2.08675 29.8314C2.35928 30.1947 2.72267 31.1032 3.44943 32.1025Z" fill="#ADE0FF" style="fill:#ADE0FF;fill:color(display-p3 0.6784 0.8784 1.0000);fill-opacity:1;"/>
<path d="M3.08594 33.102C3.08594 34.1922 4.35775 35.2823 4.81197 34.5555C4.99367 34.283 4.812 33.7379 4.72115 33.3745C4.53946 33.0112 4.2669 32.6478 3.90352 32.5569C3.81267 32.4661 3.63101 32.4661 3.54017 32.4661C3.44932 32.4661 3.26764 32.5569 3.26764 32.7386C3.08595 32.8295 3.08594 33.0112 3.08594 33.102ZM5.17538 33.5562C5.26623 33.7379 5.2662 34.0105 5.2662 34.1921C5.2662 34.3738 5.17538 34.5555 5.17538 34.6464C5.08453 34.9189 4.81197 34.9189 4.81197 34.9189C4.72113 34.9189 4.53947 34.9189 4.44862 34.9189C4.35778 34.9189 4.17606 34.8281 4.08522 34.7372C3.81268 34.5555 3.63098 34.3738 3.44929 34.1013C3.17675 33.7379 3.08594 33.2837 3.08594 32.9203V32.8295C3.08594 32.5569 3.17677 32.3752 3.35846 32.1935C3.44931 32.1027 3.44932 32.1027 3.54017 32.1027C3.63101 32.0118 3.8127 32.1027 3.9944 32.1027C4.17609 32.1935 4.26693 32.2844 4.44862 32.3752C4.72116 32.6478 4.99369 33.102 5.17538 33.5562Z" fill="#043859" style="fill:#043859;fill:color(display-p3 0.0157 0.2196 0.3490);fill-opacity:1;"/>
<path d="M-0.456478 31.1033C-0.365632 34.5555 2.0872 38.0076 4.54004 39.0978C5.17596 39.3703 5.81192 39.552 6.44784 39.3703C7.08376 39.1886 7.62879 38.7344 7.99217 38.1893C8.4464 37.4625 8.44642 36.4632 8.35558 35.6456C7.8105 31.0125 3.72246 27.4695 1.45132 28.1054C0.815397 28.2871 0.270311 28.7413 -0.0930722 29.2864C-0.456455 29.7406 -0.547323 30.3766 -0.456478 31.1033ZM-0.547301 29.559C-0.36561 28.6505 0.0885972 27.9237 0.906209 27.4695C2.0872 26.8336 3.72243 27.3787 4.99427 28.2871L5.08515 28.378C5.90276 29.0139 6.53867 29.8315 7.17459 30.6491C7.53798 31.1942 7.90134 31.7393 8.17387 32.1935C8.71895 33.1928 9.17317 34.2829 9.35486 35.4639C9.4457 37.0083 8.99152 38.7344 7.81052 39.4612C6.44784 40.2788 4.72174 39.7337 3.35906 38.7344C0.997066 37.0083 -0.729004 33.7379 -0.729004 30.9216C-0.638158 30.3766 -0.638147 29.9223 -0.547301 29.559Z" fill="#002136" style="fill:#002136;fill:color(display-p3 0.0000 0.1294 0.2118);fill-opacity:1;"/>
<path d="M-1.91056 14.2967C-1.91056 14.2967 -2.09226 15.2052 -2.09226 15.4777C-2.18311 16.3862 -1.81975 17.7489 -1.54721 18.5665C-1.00213 20.1109 -0.184488 21.4736 0.814816 22.7454C1.35989 23.4722 1.99579 24.2898 2.72256 24.6532C3.08594 24.8348 3.72188 25.1982 4.44865 25.6525C4.3578 25.925 4.35777 26.1975 4.35777 26.3792C3.81269 26.0158 3.26765 25.6525 2.63173 25.4708C1.72327 25.1074 0.542257 24.8348 -0.457047 25.1982C-1.09297 25.3799 -1.5472 25.8342 -1.81973 26.3792C-2.63735 25.3799 -3.36409 24.1989 -3.72747 22.8362C-3.90917 22.2003 -4 21.6552 -4 21.201C-4 20.5651 -4 19.9292 -4 19.3841C-4 19.6566 -3.9092 19.9292 -3.81835 20.2017C-3.72751 20.5651 -3.45494 20.9285 -3.27324 21.201C-3.00071 21.5644 -2.63731 21.7461 -2.63731 21.2919C-2.63731 20.7468 -2.90989 20.02 -3.36412 18.6573C-3.63666 17.9306 -4 16.477 -4 15.7503C-4 15.6594 -4 15.6594 -4 15.5686C-4 15.3869 -4 15.296 -4 15.1143V14.2967C-4 14.115 -3.81835 12.934 -3.81835 12.8432V12.934C-3.72751 13.1157 -3.54579 13.2974 -3.45495 13.3883C-2.90987 13.6608 -2.45563 14.0242 -1.91056 14.2967Z" fill="#D84F3F" style="fill:#D84F3F;fill:color(display-p3 0.8471 0.3098 0.2471);fill-opacity:1;"/>
<path d="M44.9657 14.4785H44.8749C43.6939 14.1151 42.2403 14.206 41.0594 14.4785C38.0614 15.0236 34.791 16.4771 32.5198 18.5666C31.3388 19.6567 29.8853 21.3828 30.3396 22.9272C30.3396 22.9272 11.807 10.8447 7.08301 8.4827C8.17316 7.84678 9.26331 7.39255 10.2626 6.75663C12.988 5.3031 16.0768 3.48618 18.8021 1.76011C19.6197 1.21504 19.9831 0.9425 21.1641 0.30658C21.0733 0.30658 39.8783 11.7531 44.9657 14.4785Z" fill="#F5F4EC" style="fill:#F5F4EC;fill:color(display-p3 0.9608 0.9569 0.9255);fill-opacity:1;"/>
<path d="M45.6011 14.8418C46.6913 15.5686 47.5997 16.3862 48.5082 17.2038C48.6899 17.113 48.8715 17.0221 49.0532 16.9313C49.4166 16.8404 49.5983 16.8404 49.78 17.0221C49.6892 16.9313 49.5983 16.8404 49.5075 16.8404C48.7807 16.2045 47.5089 15.1144 46.4187 14.3876C46.3279 14.3876 46.3279 14.2968 46.237 14.2968L46.1462 14.2059C38.0609 9.57277 29.9757 4.84879 21.8904 0.215656C21.7995 0.124811 21.7087 0.124811 21.527 0.215656C21.3453 0.215656 21.2544 0.306501 21.1636 0.397347C21.1636 0.397347 39.9687 11.7531 45.0561 14.5693C45.2378 14.5693 45.3286 14.6601 45.6011 14.8418Z" fill="#D0CFC6" style="fill:#D0CFC6;fill:color(display-p3 0.8157 0.8118 0.7765);fill-opacity:1;"/>
<path d="M70.9473 43.4583C70.9473 42.9132 70.7656 41.6414 70.5839 41.0963C69.948 37.8259 68.4036 35.0096 66.405 32.3751C66.0416 31.9209 65.5874 31.4667 65.1332 31.0124C64.8606 30.7399 62.0444 28.4688 60.8634 27.5603C60.7725 27.4694 60.6817 27.3786 60.5909 27.3786C60.5 27.2878 60.4092 27.1969 60.3183 27.1061C60.3183 27.1969 60.3183 27.1969 60.2275 27.2878C60.2275 27.2878 59.9549 27.4694 59.5007 27.6511C59.5915 27.742 59.6824 27.8328 59.6824 27.8328C60.0458 28.1054 62.9529 30.3765 63.9522 31.285C64.3156 31.5575 64.5881 31.9209 64.8606 32.1934C67.0409 35.0097 68.0402 37.4625 68.6762 40.0062C69.4029 43.1858 69.4029 43.64 68.5853 44.0942C65.4057 45.9111 62.2261 47.7281 59.1374 49.545C58.3197 49.9992 57.5021 49.9992 53.7774 48.5457C50.4161 47.2738 47.6908 45.9111 44.6928 43.7308C44.3295 43.4583 43.9661 43.1858 43.6936 42.8224C42.7851 41.8231 40.5139 39.2794 40.2414 38.916C40.1505 38.8252 40.1506 38.7343 40.0597 38.6435L32.7012 26.1068C32.4287 25.6525 32.1561 25.2892 31.9744 25.0166C31.7019 24.7441 30.5209 23.1997 30.5209 23.1089C30.4301 23.018 30.3392 22.9272 30.3392 22.6546C30.3392 22.6546 11.8066 10.5721 7.08267 8.21014C6.3559 8.66437 5.53829 9.1186 4.81152 9.66368C29.5216 22.6546 29.4307 26.1976 29.7941 26.6518C29.7941 26.6518 29.7941 26.6518 29.7941 26.7427C29.7941 26.8335 29.885 26.8335 29.885 26.9244C30.1575 27.3786 30.7934 28.4688 31.611 29.8314C31.611 29.8314 31.6111 29.9223 31.7019 29.9223L31.7927 30.0131V30.104C31.7927 30.1948 31.8836 30.1948 31.8836 30.2857C33.1555 32.5568 35.8808 37.1899 36.7893 38.6435L36.8801 38.7343C37.5161 39.7336 37.8794 40.4604 37.8794 40.4604C37.9703 40.6421 38.0611 40.7329 38.1519 40.9146C38.1519 41.0055 38.2428 41.0963 38.4245 41.1872C38.4245 41.278 38.5153 41.278 38.6062 41.3689C38.6062 41.3689 38.6062 41.3689 38.697 41.4597C38.7879 41.5505 38.8787 41.6414 38.9696 41.7322C38.9696 41.8231 39.0604 41.8231 39.0604 41.9139C39.1512 42.0048 39.1513 42.0956 39.2421 42.1865L39.3329 42.2773C39.3329 42.2773 39.333 42.3682 39.4238 42.3682C39.5146 42.459 39.5147 42.5498 39.6055 42.5498L39.6963 42.6407C39.7872 42.7315 39.7872 42.7315 39.878 42.8224C39.878 42.8224 39.878 42.8224 39.9689 42.9132C40.0597 43.0041 40.0597 43.0949 40.1506 43.0949C40.3323 43.2766 40.5139 43.4583 40.6956 43.64C40.7865 43.7308 40.7865 43.8217 40.8773 43.8217C41.059 44.0942 41.3316 44.2759 41.5132 44.5485L41.6041 44.6393C41.6949 44.7301 41.7858 44.821 41.8767 44.9118C42.24 45.5478 42.6942 46.0928 43.1485 46.5471C46.4189 48.8182 49.5077 50.2717 53.1415 51.4527C53.3232 51.5436 53.5957 51.6344 53.7774 51.7253C54.05 51.907 54.3225 51.9978 54.5951 52.0887C55.6852 52.6337 56.7753 53.3605 57.9563 54.0873L58.0472 54.1781C58.5014 54.4506 58.6831 54.9049 58.6831 55.3591V56.0859C58.8648 56.0859 59.0465 56.0859 59.1374 55.995C62.9529 53.7239 66.8592 51.5436 70.6747 49.3633C71.0381 49.1816 71.2198 48.8182 71.3107 48.4548C71.3107 48.2731 71.3107 48.1823 71.3107 48.0006V45.5478C71.129 45.0935 71.0382 43.8217 70.9473 43.4583ZM69.4937 49.0907C69.4937 49.3633 69.312 49.7267 69.0395 49.8175C66.2233 51.4527 63.4071 53.088 60.5 54.7232C60.2275 54.9049 60.0458 54.7232 60.0458 54.4506V53.4513C60.0458 53.2696 60.0458 53.088 59.9549 52.8154C59.4099 51.271 59.2282 50.9077 59.2282 50.6351C59.2282 50.4534 59.2282 50.2717 59.319 50.09L59.4099 49.9992C68.4945 44.7301 67.9493 45.0935 67.9493 45.0935C68.2219 45.0027 68.4944 45.2752 68.5853 45.5478C68.8578 46.1837 69.0395 46.8196 69.312 47.4555C69.4029 47.6372 69.4029 47.9098 69.4029 48.0914V49.0907H69.4937Z" fill="#D0CFC6" style="fill:#D0CFC6;fill:color(display-p3 0.8157 0.8118 0.7765);fill-opacity:1;"/>
<path d="M33.3376 38.825C32.7017 38.825 31.6115 38.1891 31.6115 38.1891C30.0671 37.2806 23.072 33.1017 20.2558 31.3757C19.8016 31.1031 19.3474 30.8306 19.2565 30.7397C19.1657 30.7397 19.0748 30.6489 18.984 30.5581C18.7115 30.3764 18.2572 30.1038 17.7121 29.7404C15.8952 28.5594 12.9882 26.6517 12.4431 26.2883C11.7163 25.7432 7.62828 22.927 6.44728 22.0185L6.35641 21.9277C6.26556 21.8369 6.08387 21.746 5.90218 21.5643C5.3571 22.8362 4.7212 24.4714 4.44867 25.7432C4.35782 26.0158 4.35779 26.2883 4.35779 26.47H4.26696C4.26696 26.2883 4.35779 26.0158 4.35779 25.7432C4.63033 24.4714 5.26628 22.7453 5.81135 21.5643C4.81205 20.8376 4.17614 20.2925 3.72191 19.9291C3.26768 19.5657 2.72261 19.0206 2.35922 18.5664C1.905 17.9305 1.81412 17.3854 2.26835 16.6586C2.90427 15.5685 4.53949 13.3882 4.99372 12.934C5.17541 12.7523 5.35711 12.6614 5.62965 12.6614C5.99303 12.5706 6.53813 12.7523 6.90151 12.934C7.71913 13.2974 8.80928 13.8424 9.62689 14.2967H9.71771C10.8079 14.9326 16.3494 18.3847 19.529 20.3833C19.7107 20.4742 19.9833 20.6559 20.165 20.7467L20.6192 21.0192C20.8917 21.2009 21.0734 21.2918 21.2551 21.4735C24.0714 23.1995 26.9784 25.0165 27.0692 25.1073C27.8868 25.7432 28.0686 25.9249 28.2503 26.3791C28.6137 27.0151 29.9763 29.7404 30.0672 29.8313C31.5207 32.8292 32.7925 35.5546 33.7918 38.2799C33.8827 38.5525 33.8827 38.7342 33.7918 38.825C33.6102 38.825 33.5193 38.825 33.3376 38.825ZM5.99306 21.4735C6.17475 21.6552 6.35644 21.746 6.44728 21.8369L6.53811 21.9277C7.7191 22.7453 11.8071 25.6524 12.5339 26.1975C13.079 26.5608 15.9861 28.4686 17.803 29.6496C18.3481 30.013 18.7114 30.2855 19.0748 30.4672C19.2565 30.5581 19.3473 30.6489 19.3473 30.6489C19.529 30.7397 19.8925 31.0123 20.3467 31.2848C23.1629 33.0109 30.158 37.1898 31.7024 38.0983C31.9749 38.2799 33.2468 38.9159 33.5193 38.6433C33.6102 38.5525 33.6102 38.3708 33.5193 38.1891C32.52 35.4637 31.339 32.7383 29.7946 29.7404C29.7038 29.6496 28.3411 26.8334 27.9777 26.2883C27.7052 25.9249 27.6143 25.6524 26.7967 25.1073C26.7059 25.1073 24.4348 23.6538 20.9826 21.4735C20.8009 21.2918 20.5284 21.2009 20.3467 21.0192L19.8925 20.7467C19.7108 20.6559 19.4382 20.4742 19.2565 20.3833C16.0769 18.4756 10.717 15.1143 9.44518 14.3875C8.62757 15.5685 7.44654 17.8396 6.62893 19.4749C6.53809 20.0199 6.26559 20.7467 5.99306 21.4735ZM5.81135 12.6614C5.72051 12.6614 5.7205 12.6614 5.62965 12.6614C5.44796 12.6614 5.26629 12.7523 5.0846 12.934C4.63037 13.3882 2.9043 15.4777 2.35922 16.5678C1.99584 17.2946 1.99582 17.7488 2.45005 18.3847C2.81343 18.8389 3.35851 19.384 3.81274 19.7474C4.17612 20.1108 4.9029 20.565 5.81135 21.2918C6.08389 20.6559 6.44724 19.9291 6.62893 19.384C7.3557 17.7488 8.62757 15.4777 9.44518 14.2967C8.71842 13.8424 7.62825 13.2065 6.81063 12.934C6.5381 12.8431 6.17474 12.6614 5.81135 12.6614Z" fill="#043859" style="fill:#043859;fill:color(display-p3 0.0157 0.2196 0.3490);fill-opacity:1;"/>
<path d="M18.8023 39.4612C18.7115 38.8252 18.7115 38.1893 18.6206 37.2809V37.0992C18.5298 35.9182 18.5298 35.9182 18.5298 35.6456C18.5298 35.4639 18.5298 35.2822 18.5298 34.7372C18.5298 34.4646 18.5298 34.1921 18.5298 33.9196C18.5298 33.8287 18.5298 33.7379 18.5298 33.647C18.6206 33.0111 18.8932 31.3759 18.984 30.5583C19.1657 28.923 19.8925 22.8364 20.165 20.9286C20.165 20.9286 20.165 20.9286 20.165 20.8378H20.2558C20.2558 20.8378 20.2558 20.8378 20.2558 20.9286C19.8924 22.7455 19.1657 28.923 19.0748 30.5583C18.984 31.3759 18.7115 32.9203 18.6206 33.647C18.6206 33.7379 18.6206 33.8287 18.6206 33.9196C18.6206 34.1921 18.6206 34.4646 18.6206 34.6463C18.6206 35.1914 18.6206 35.4639 18.6206 35.5548C18.6206 35.8273 18.6206 35.8273 18.7115 37.0083V37.19C18.8023 38.0985 18.8023 38.8252 18.8931 39.3703L18.8023 39.4612Z" fill="#043859" style="fill:#043859;fill:color(display-p3 0.0157 0.2196 0.3490);fill-opacity:1;"/>
<path d="M59.592 27.6511C59.047 28.0145 56.8667 29.1955 54.2321 30.7399C50.3258 33.011 45.2384 35.9181 42.3313 37.6441C40.9687 38.4617 40.0602 38.916 40.0602 38.916L36.7897 33.3744C36.7897 33.2835 36.6989 33.1927 36.6989 33.1018L32.7017 26.2884C32.8834 26.1976 33.1559 26.0159 33.5193 25.8342C34.3369 25.38 35.6087 24.6532 37.9707 23.2905C38.3341 23.1088 38.6975 22.9271 39.0609 22.6546C40.7869 21.6553 43.0581 20.3834 45.7835 18.7482C46.6011 18.294 47.4187 17.8398 48.3271 17.2947L48.418 17.3855C49.0539 17.6581 57.866 26.0159 59.592 27.6511Z" fill="#2176DE" style="fill:#2176DE;fill:color(display-p3 0.1294 0.4627 0.8706);fill-opacity:1;"/>
<path opacity="0.3" d="M59.5922 27.6511C59.0471 28.0145 56.8668 29.1955 54.2322 30.7399L39.1519 22.6546C40.8779 21.6553 43.149 20.3834 45.8744 18.7482C46.692 18.294 47.5096 17.8398 48.4181 17.2947L48.509 17.3855C49.054 17.6581 57.8661 26.0159 59.5922 27.6511Z" fill="url(#paint0_linear_106_12230)" style=""/>
<path d="M34.8812 37.4625C34.972 37.5534 35.0629 37.7351 35.0629 37.9168L34.6995 39.6428C34.6995 39.7337 34.6086 39.8245 34.6086 39.8245C34.427 39.8245 34.4269 39.9154 34.2452 39.9154C34.3361 39.8245 34.3361 39.7337 34.4269 39.6428C34.4269 39.552 34.4269 39.4611 34.4269 39.3703V39.2794C34.4269 39.1886 34.4269 39.0978 34.4269 39.0069C34.4269 38.8252 34.3361 38.7344 34.2452 38.6435L34.1544 38.5527C34.1544 38.5527 33.9727 38.371 33.8818 38.2801C33.8818 38.0984 34.8812 37.4625 34.8812 37.4625Z" fill="#002136" style="fill:#002136;fill:color(display-p3 0.0000 0.1294 0.2118);fill-opacity:1;"/>
<path d="M34.5183 37.19L34.9726 37.4625C34.9726 37.4625 33.9732 38.0985 33.8824 38.1893C33.7915 38.0985 33.7007 38.0076 33.6099 37.8259L34.5183 37.19Z" fill="#2F5670" style="fill:#2F5670;fill:color(display-p3 0.1843 0.3373 0.4392);fill-opacity:1;"/>
<path d="M34.155 39.8245C34.0641 39.9153 34.0641 39.9153 33.9733 40.0062H33.8824C33.0648 40.2787 32.338 40.6421 31.5204 40.9146C31.157 41.0963 30.7028 41.0963 30.4302 40.7329C30.2486 40.4604 30.2485 40.0062 30.2485 40.0062C30.2485 39.8245 30.2485 39.6428 30.2485 39.4611V39.2794C30.3394 39.0068 30.3394 38.916 30.3394 38.8252V38.7343L30.0669 38.3709C30.1577 38.0984 30.3394 37.9167 30.6119 37.735C30.7028 37.735 30.7028 37.6442 30.7936 37.6442C30.7936 37.735 30.7936 37.8259 30.7936 37.9167C30.7936 38.0075 30.8845 38.1892 30.9754 38.3709C30.9754 38.3709 32.338 38.0075 32.9739 37.9167C33.3373 37.9167 33.8824 37.9167 34.155 38.0984L34.2458 38.1892C34.3366 38.2801 34.3366 38.3709 34.4275 38.5526C34.4275 38.6435 34.4275 38.7343 34.4275 38.8252V38.916C34.4275 39.0068 34.4275 39.0977 34.4275 39.1885C34.2458 39.6428 34.2458 39.8245 34.155 39.8245Z" fill="#043859" style="fill:#043859;fill:color(display-p3 0.0157 0.2196 0.3490);fill-opacity:1;"/>
<path d="M33.8827 38.0985C33.9735 38.1893 34.0644 38.2802 34.1553 38.371C33.8827 38.1893 33.3376 38.0985 32.9742 38.1893C32.4291 38.2802 30.9756 38.6436 30.9756 38.6436C30.8848 38.4619 30.7939 38.2802 30.7939 38.1893C30.7939 38.0985 30.7939 38.0076 30.7939 37.9168L31.2482 37.7351C31.6116 37.6443 31.9749 37.5534 32.2475 37.5534C32.7017 37.5534 33.2468 37.6443 33.5193 37.8259C33.701 37.9168 33.7918 38.0076 33.8827 38.0985Z" fill="#2F5670" style="fill:#2F5670;fill:color(display-p3 0.1843 0.3373 0.4392);fill-opacity:1;"/>
<path d="M30.0672 40.3695C29.7947 39.8245 29.7947 39.0977 30.0672 38.5526L30.3397 38.916V39.0068C30.3397 39.0977 30.3397 39.1885 30.2488 39.4611V39.6428C30.2488 39.8245 30.2488 40.0061 30.2488 40.1878C30.2488 40.1878 30.2489 40.6421 30.4305 40.9146C30.3397 40.7329 30.2489 40.5512 30.0672 40.3695Z" fill="#002136" style="fill:#002136;fill:color(display-p3 0.0000 0.1294 0.2118);fill-opacity:1;"/>
<path d="M40.151 38.916L36.8806 33.2836C36.7898 33.1927 36.7897 33.1019 36.6989 33.011L32.7017 26.1976H32.7925C32.9742 26.1067 33.2467 25.9251 33.6101 25.7434C33.9735 25.5617 34.5186 25.1983 35.1545 24.8349C35.8813 24.3807 36.7897 23.8356 38.0616 23.1997L38.5158 22.9271C40.3327 21.837 42.7855 20.4743 45.8743 18.6574C46.6919 18.2032 47.5095 17.6581 48.418 17.2039L48.5997 17.2947C48.9631 17.6581 57.7751 25.9251 59.592 27.6511L59.6829 27.742H59.592C58.5927 28.3779 52.5969 31.7392 42.4222 37.6442L40.151 38.916ZM32.8834 26.2884L36.8806 33.011C36.9714 33.1019 36.9714 33.1927 37.0622 33.2836L40.3327 38.7343L42.513 37.4625C52.506 31.6483 58.411 28.287 59.6829 27.5603C57.6843 25.7434 49.1448 17.6581 48.7814 17.2947L48.6906 17.2039C47.7821 17.7489 46.9644 18.2032 46.1468 18.6574C42.9672 20.4743 40.6053 21.837 38.7883 22.9271L38.3341 23.1997C37.1531 23.9264 36.1538 24.4715 35.427 24.8349C34.7003 25.1983 34.246 25.5617 33.8826 25.7434C33.2467 26.1067 33.0651 26.1976 32.8834 26.2884Z" fill="#043859" style="fill:#043859;fill:color(display-p3 0.0157 0.2196 0.3490);fill-opacity:1;"/>
<path d="M42.1492 58.9021C41.9675 58.9021 41.695 58.9021 41.4225 58.8112C41.1499 58.7204 40.9682 58.6296 40.6957 58.4479C39.9689 57.9936 39.333 57.3577 38.7879 56.6309C38.0612 55.5408 37.6069 54.269 37.6069 53.1788C37.6069 52.9971 37.6069 52.8154 37.6978 52.5429C37.7886 51.8161 38.152 51.271 38.6971 51.0894C38.6971 51.0894 38.7879 51.0894 38.7879 50.9985C39.8781 50.6351 40.9682 51.4527 41.4225 51.8161C41.5133 51.907 41.6041 51.9978 41.7858 52.0887C42.5126 52.8154 43.1485 53.8147 43.5119 54.9049C43.6936 55.5408 43.7844 56.0859 43.7844 56.6309C43.7844 57.176 43.6936 57.6302 43.5119 57.9936C43.3302 58.6296 42.7851 58.9021 42.1492 58.9021ZM39.4238 51.0894C39.2422 51.0894 39.0604 51.0893 38.8787 51.1802H38.7879C38.3337 51.3619 37.9703 51.907 37.8795 52.5429C37.8795 52.7246 37.7886 52.9063 37.7886 53.088C37.7886 54.1781 38.2428 55.3591 38.8787 56.4493C39.4238 57.2669 40.0597 57.9028 40.6957 58.2662C40.9682 58.4479 41.1499 58.5387 41.4225 58.6296C42.3309 58.9021 43.0576 58.6296 43.421 57.9936C43.6027 57.6302 43.6936 57.176 43.6936 56.7218C43.6936 56.1767 43.6027 55.6316 43.421 55.0866C43.0576 54.0873 42.4218 53.088 41.695 52.2703C41.6041 52.1795 41.5133 52.0887 41.4225 51.9978C41.1499 51.6344 40.3323 51.0894 39.4238 51.0894Z" fill="#C2E8FF" style="fill:#C2E8FF;fill:color(display-p3 0.7608 0.9098 1.0000);fill-opacity:1;"/>
<path d="M5.35674 37.5533C5.17505 37.5533 4.90253 37.5533 4.62999 37.4625C4.4483 37.3716 4.17571 37.2808 3.90318 37.0991C3.17641 36.7357 2.54051 36.0998 1.99544 35.2822C1.26867 34.192 0.814453 32.9202 0.814453 31.8301C0.814453 31.6484 0.814431 31.4667 0.905277 31.1941C0.996123 30.3765 1.45036 29.8314 1.99544 29.6498C2.44967 29.4681 2.99475 29.5589 3.53983 29.7406C3.90321 29.9223 4.2666 30.104 4.62999 30.4674C5.53845 31.1941 6.2652 32.3751 6.71943 33.5561C6.90112 34.1921 6.99196 34.7371 6.99196 35.2822C6.99196 35.8273 6.90112 36.2815 6.71943 36.6449C6.44689 37.2808 5.99266 37.5533 5.35674 37.5533ZM4.72081 37.3717C5.53842 37.6442 6.26517 37.3716 6.62855 36.6449C6.81024 36.2815 6.90113 35.8273 6.90113 35.373C6.90113 34.828 6.81024 34.2829 6.62855 33.7378C6.26517 32.5568 5.4476 31.4667 4.62999 30.6491C4.2666 30.3765 3.90321 30.104 3.53983 30.0131C2.99475 29.8315 2.54049 29.7406 2.08626 29.9223C1.54119 30.104 1.17785 30.6491 0.996156 31.3758C0.996156 31.5575 0.905277 31.7392 0.905277 31.9209C0.905277 33.0111 1.35952 34.192 1.99544 35.2822C2.54051 36.0998 3.17643 36.7357 3.81235 37.0991C4.26658 37.19 4.44827 37.2808 4.72081 37.3717Z" fill="#C2E8FF" style="fill:#C2E8FF;fill:color(display-p3 0.7608 0.9098 1.0000);fill-opacity:1;"/>
<path d="M41.4229 56.2676C41.332 56.2676 41.2412 56.2676 41.2412 56.2676C41.1503 56.2676 40.9686 56.1768 40.8778 56.0859C40.6052 55.9042 40.4235 55.7226 40.2418 55.45C39.9693 55.0866 39.7876 54.6324 39.7876 54.269V54.1782C39.7876 53.9056 39.8785 53.724 40.0602 53.5423C40.151 53.4514 40.2418 53.4514 40.2418 53.3606C40.4235 53.2697 40.6052 53.3606 40.7869 53.3606C40.9686 53.4514 41.1503 53.5423 41.2412 53.6331C41.6045 53.9056 41.8771 54.3599 41.9679 54.8141C42.0588 54.9958 42.0587 55.2683 42.0587 55.45C42.0587 55.6317 41.9679 55.8134 41.9679 55.9043C41.7862 56.1768 41.6045 56.2676 41.6045 56.2676C41.6045 56.2676 41.5137 56.2676 41.4229 56.2676ZM40.5144 53.4514C40.4236 53.4514 40.4236 53.4514 40.3327 53.4514C40.2419 53.4514 40.2418 53.5423 40.151 53.5423C39.9693 53.724 39.9693 53.9056 39.8785 54.0873V54.1782C39.8785 54.5416 40.0601 54.9958 40.2418 55.3592C40.4235 55.6317 40.6052 55.8134 40.8778 55.9951C40.9686 56.0859 41.1503 56.0859 41.2412 56.1768C41.332 56.1768 41.5137 56.1768 41.6045 56.1768C41.6045 56.1768 41.7862 56.0859 41.8771 55.9043C41.9679 55.8134 41.9679 55.6317 41.9679 55.45C41.9679 55.2683 41.9679 55.0866 41.8771 54.8141C41.6954 54.3599 41.4228 53.9965 41.1503 53.724C40.9686 53.6331 40.8777 53.5423 40.6961 53.4514C40.6961 53.4514 40.6053 53.4514 40.5144 53.4514Z" fill="#C2E8FF" style="fill:#C2E8FF;fill:color(display-p3 0.7608 0.9098 1.0000);fill-opacity:1;"/>
<path d="M4.6299 35.0097C4.53905 35.0097 4.44819 35.0097 4.44819 35.0097C4.35735 35.0097 4.17564 34.9189 4.08479 34.828C3.81225 34.6463 3.63055 34.4646 3.44886 34.1921C3.17632 33.8287 2.99463 33.3745 2.99463 33.0111V32.9203C2.99463 32.6477 3.08552 32.466 3.26721 32.2843C3.35806 32.1935 3.35801 32.1935 3.44886 32.1935C3.63055 32.1027 3.81227 32.1027 3.99397 32.1935C4.17566 32.2843 4.35735 32.3752 4.44819 32.466C4.81158 32.7386 5.0841 33.1928 5.17495 33.647C5.2658 33.8287 5.26577 34.1013 5.26577 34.2829C5.26577 34.4646 5.2658 34.6463 5.17495 34.828C4.99326 35.1006 4.81154 35.1006 4.81154 35.1006C4.81154 35.0097 4.72074 35.0097 4.6299 35.0097ZM3.35803 32.2843C3.26719 32.466 3.17635 32.6477 3.08551 32.8294V32.9203C3.08551 33.2836 3.26717 33.7379 3.44886 34.1013C3.63055 34.3738 3.81225 34.5555 4.08479 34.7372C4.17564 34.828 4.35735 34.828 4.44819 34.9189C4.53904 34.9189 4.7207 34.9189 4.81154 34.9189C4.81154 34.9189 4.99328 34.9189 5.08413 34.6463C5.17497 34.5555 5.17495 34.3738 5.17495 34.1921C5.17495 34.0104 5.17497 33.8287 5.08413 33.5562C4.90243 33.102 4.62985 32.7386 4.35732 32.466C4.17562 32.3752 4.08478 32.2843 3.90309 32.1935C3.7214 32.1027 3.63055 32.1027 3.44886 32.1935C3.44886 32.1935 3.35803 32.1935 3.35803 32.2843Z" fill="#C2E8FF" style="fill:#C2E8FF;fill:color(display-p3 0.7608 0.9098 1.0000);fill-opacity:1;"/>
<path d="M39.7876 54.1781C38.97 53.9056 38.5158 53.633 38.1524 53.3605C37.9707 53.2696 37.8799 53.1788 37.7891 53.1788L37.8799 53.088C37.9707 53.1788 38.1524 53.1788 38.3341 53.2696C38.6975 53.4513 39.2426 53.8147 39.9693 54.0873L39.7876 54.1781Z" fill="#C2E8FF" style="fill:#C2E8FF;fill:color(display-p3 0.7608 0.9098 1.0000);fill-opacity:1;"/>
<path d="M43.5127 54.9957C43.4218 54.9957 43.3309 54.9957 43.1492 54.9957C42.7859 54.9957 42.3316 54.9957 41.9683 54.9048V54.814C42.4225 54.9048 42.7859 54.9048 43.1492 54.9048C43.3309 54.9048 43.4218 54.9048 43.5127 54.9048V54.9957Z" fill="#C2E8FF" style="fill:#C2E8FF;fill:color(display-p3 0.7608 0.9098 1.0000);fill-opacity:1;"/>
<path d="M41.1499 53.7238C41.1499 53.1788 41.2408 52.6337 41.3316 52.2703C41.3316 52.0886 41.4225 51.9978 41.4225 51.9069H41.5133C41.5133 51.9978 41.5133 52.1795 41.4225 52.3612C41.3316 52.7245 41.2408 53.2696 41.2408 53.7238H41.1499Z" fill="#C2E8FF" style="fill:#C2E8FF;fill:color(display-p3 0.7608 0.9098 1.0000);fill-opacity:1;"/>
<path d="M40.2416 53.4513C39.6965 52.7246 39.3332 52.0887 39.1515 51.6344C39.0606 51.4527 38.9698 51.271 38.8789 51.1802L38.9698 51.0894C39.0606 51.1802 39.1515 51.3619 39.2423 51.6344C39.5148 52.0887 39.7874 52.7246 40.3325 53.4513H40.2416Z" fill="#C2E8FF" style="fill:#C2E8FF;fill:color(display-p3 0.7608 0.9098 1.0000);fill-opacity:1;"/>
<path d="M2.9952 32.9201C2.17759 32.6476 1.63255 32.375 1.26917 32.1025C1.08748 32.0116 0.996608 31.9208 0.905762 31.9208L0.996641 31.83C1.08749 31.9208 1.26914 31.9208 1.35999 32.0116C1.72337 32.1933 2.26844 32.5567 2.9952 32.8293V32.9201Z" fill="#C2E8FF" style="fill:#C2E8FF;fill:color(display-p3 0.7608 0.9098 1.0000);fill-opacity:1;"/>
<path d="M2.17779 35.2822L2.08691 35.1913C2.26861 35.1005 2.35945 34.9188 2.54114 34.828C2.81368 34.6463 2.99537 34.3737 3.4496 34.1012L3.54048 34.192C3.08625 34.5554 2.90456 34.7371 2.63202 34.9188C2.45033 35.1005 2.26864 35.1913 2.17779 35.2822Z" fill="#C2E8FF" style="fill:#C2E8FF;fill:color(display-p3 0.7608 0.9098 1.0000);fill-opacity:1;"/>
<path d="M4.62952 37.4625C4.62952 37.3716 4.62948 37.1899 4.53864 37.0082C4.44779 36.554 4.35693 35.9181 4.35693 35.0096H4.44781C4.44781 35.9181 4.53867 36.554 4.62952 37.0082C4.62952 37.1899 4.72034 37.3716 4.72034 37.5533L4.62952 37.4625Z" fill="#C2E8FF" style="fill:#C2E8FF;fill:color(display-p3 0.7608 0.9098 1.0000);fill-opacity:1;"/>
<path d="M6.72017 36.7357C6.62932 36.6449 6.53846 36.4632 6.35677 36.2815C5.99338 35.9181 5.53916 35.373 5.17578 34.6463L5.2666 34.5554C5.72083 35.2822 6.17511 35.8273 6.44764 36.1906C6.53849 36.3723 6.72017 36.554 6.72017 36.7357Z" fill="#C2E8FF" style="fill:#C2E8FF;fill:color(display-p3 0.7608 0.9098 1.0000);fill-opacity:1;"/>
<path d="M6.71969 33.7377C6.62884 33.7377 6.53797 33.7377 6.35628 33.7377C5.9929 33.7377 5.5387 33.7377 5.08447 33.6469V33.556C5.44786 33.6469 5.99292 33.6469 6.26546 33.6469C6.44715 33.6469 6.53796 33.6469 6.62881 33.6469L6.71969 33.7377Z" fill="#C2E8FF" style="fill:#C2E8FF;fill:color(display-p3 0.7608 0.9098 1.0000);fill-opacity:1;"/>
<path d="M4.35693 32.3751C4.35693 31.83 4.44779 31.2849 4.53864 30.9216C4.53864 30.7399 4.62952 30.649 4.62952 30.5582H4.72034C4.72034 30.649 4.72036 30.8307 4.62952 30.9216C4.53867 31.2849 4.44781 31.83 4.44781 32.3751H4.35693Z" fill="#C2E8FF" style="fill:#C2E8FF;fill:color(display-p3 0.7608 0.9098 1.0000);fill-opacity:1;"/>
<path d="M3.4496 32.1934C2.90453 31.4666 2.54119 30.8307 2.3595 30.3764C2.26865 30.1947 2.17776 30.0131 2.08691 29.9222L2.17779 29.8314C2.26864 29.9222 2.35947 30.1039 2.45032 30.2856C2.72286 30.7398 2.99541 31.3757 3.54048 32.1025L3.4496 32.1934Z" fill="#C2E8FF" style="fill:#C2E8FF;fill:color(display-p3 0.7608 0.9098 1.0000);fill-opacity:1;"/>
<path d="M44.9659 14.4786C43.4215 14.0243 41.8772 14.2969 40.3328 14.5694C38.7884 14.9328 37.3349 15.4779 35.9722 16.1138C34.6095 16.8406 33.2468 17.6582 32.1567 18.7483C31.6116 19.2934 31.0665 19.9293 30.7031 20.5652C30.3397 21.2012 30.0672 22.0188 30.2489 22.7455C29.9764 22.0188 30.2489 21.2012 30.6123 20.4744C30.9757 19.7476 31.5207 19.2026 32.0658 18.6575C33.156 17.5673 34.5187 16.6589 35.8813 15.9321C37.244 15.2053 38.7884 14.7511 40.3328 14.3877C41.7863 14.206 43.4215 13.9335 44.9659 14.4786Z" fill="white" style="fill:white;fill-opacity:1;"/>
<path d="M6.99219 8.39182L10.5352 6.39321L13.9873 4.30376L20.9825 0.215698C18.7113 1.66923 16.3493 3.03192 14.0781 4.3946L10.5352 6.39321C9.44505 7.21082 8.26403 7.7559 6.99219 8.39182Z" fill="white" style="fill:white;fill-opacity:1;"/>
<path d="M59.229 49.6356C62.3178 47.7279 65.4974 45.9109 68.677 44.1849C65.5882 46.0926 62.4995 47.9096 59.229 49.6356Z" fill="white" style="fill:white;fill-opacity:1;"/>
<path d="M38.9702 56.6309C39.0611 56.4493 39.1519 56.2676 39.3336 56.1767C39.6061 55.995 39.8786 55.7225 40.242 55.45V55.5408H40.3329C39.9695 55.8133 39.697 56.0859 39.4244 56.2676C39.2428 56.3584 39.1519 56.4493 38.9702 56.6309Z" fill="#C2E8FF" style="fill:#C2E8FF;fill:color(display-p3 0.7608 0.9098 1.0000);fill-opacity:1;"/>
<path d="M43.5122 58.0844C43.4213 57.9027 43.2396 57.8119 43.1488 57.6302C42.7854 57.2668 42.3312 56.7217 41.877 55.9041L41.9678 55.8133C42.422 56.5401 42.8762 57.0851 43.1488 57.4485C43.2396 57.6302 43.4213 57.7211 43.5122 57.8119V58.0844Z" fill="#C2E8FF" style="fill:#C2E8FF;fill:color(display-p3 0.7608 0.9098 1.0000);fill-opacity:1;"/>
<defs>
<linearGradient id="paint0_linear_106_12230" x1="39.1844" y1="23.9569" x2="59.5921" y2="23.9569" gradientUnits="userSpaceOnUse">
<stop stop-color="white" style="stop-color:white;stop-opacity:1;"/>
<stop offset="1" style="stop-color:black;stop-opacity:1;"/>
</linearGradient>
</defs>
</svg>
