<svg width="91" height="78" viewBox="0 0 91 78" fill="none" xmlns="http://www.w3.org/2000/svg">
<path d="M79.5004 37.1999L79.3004 37.0999C79.2004 37.0999 79.1004 37.0999 79.0004 37.0999L76.8004 38.3999C76.6004 38.4999 76.4004 38.8999 76.4004 39.0999V40.1999C76.4004 40.2999 76.4004 40.3999 76.5004 40.4999L76.7004 40.5999C76.7004 40.5999 76.7004 40.5999 76.6004 40.4999C76.7004 40.5999 76.8004 40.5999 77.0004 40.4999L79.2004 39.1999C79.4004 39.0999 79.6004 38.6999 79.6004 38.4999V37.3999C79.6004 37.2999 79.6004 37.1999 79.5004 37.1999Z" fill="#DBDAD0" style="fill:#DBDAD0;fill:color(display-p3 0.8588 0.8549 0.8157);fill-opacity:1;"/>
<path d="M78.4 38.9999C78.3 38.6999 77.8 38.9999 78 39.2999C78 39.2999 78.4 39.9999 78.2 40.6999C78.1 41.1999 77.7 41.4999 77.2 41.7999C77.1 41.8999 77 41.9999 77.1 42.0999C77.2 42.3999 77.5 42.2999 77.5 42.2999C78.2 41.8999 78.5 41.2999 78.7 40.6999C78.9 39.7999 78.4 38.9999 78.4 38.9999Z" fill="#4D4F4A" style="fill:#4D4F4A;fill:color(display-p3 0.3020 0.3098 0.2902);fill-opacity:1;"/>
<path d="M10.8004 37.2999L7.30043 38.8999C5.50043 40.0999 6.70043 43.4999 6.70043 43.4999L13.2004 39.6999L10.8004 37.2999Z" fill="#2D2C2B" style="fill:#2D2C2B;fill:color(display-p3 0.1765 0.1725 0.1686);fill-opacity:1;"/>
<path d="M53.9004 65.4999C53.4004 65.7999 53.1004 66.1999 52.9004 66.8999C52.7004 67.3999 52.6004 67.9999 52.7004 68.5999V70.0999L76.6004 56.1999V54.6999C76.6004 54.0999 76.7004 53.5999 76.8004 52.9999C77.0004 52.2999 77.4004 51.8999 77.8004 51.5999L53.9004 65.4999Z" fill="#2D2C2B" style="fill:#2D2C2B;fill:color(display-p3 0.1765 0.1725 0.1686);fill-opacity:1;"/>
<path d="M63.9 69.8999C63.5 68.8999 62.9 67.9999 62.2 67.1999C61.6 66.4999 60.9 65.9999 60.2 65.5999C59 64.8999 57.8 64.7999 57 65.2999L54.5 66.6999L60.8 77.5999L63.3 76.1999C64.1 75.6999 64.6 74.6999 64.6 73.2999C64.7 72.1999 64.4 70.9999 63.9 69.8999Z" fill="#2D2C2B" style="fill:#2D2C2B;fill:color(display-p3 0.1765 0.1725 0.1686);fill-opacity:1;"/>
<path d="M57.7002 66.9999C55.2002 65.5999 53.2002 66.6999 53.2002 69.4999C53.2002 72.2999 55.2002 75.7999 57.6002 77.1999C60.1002 78.5999 62.1002 77.4999 62.1002 74.5999C62.2002 71.8999 60.2002 68.3999 57.7002 66.9999Z" fill="#3D3C3A" style="fill:#3D3C3A;fill:color(display-p3 0.2392 0.2353 0.2275);fill-opacity:1;"/>
<path d="M57.7 68.3999C55.9 67.3999 54.5 68.1999 54.5 70.1999C54.5 72.1999 55.9 74.6999 57.7 75.6999C59.5 76.6999 60.9 75.8999 60.9 73.8999C60.9 71.8999 59.5 69.3999 57.7 68.3999Z" fill="#2D2C2B" style="fill:#2D2C2B;fill:color(display-p3 0.1765 0.1725 0.1686);fill-opacity:1;"/>
<path d="M60.5998 73.6999C60.5998 71.8999 59.3998 69.6999 57.7998 68.6999C57.5998 68.5999 57.3998 68.4999 57.1998 68.3999C56.6998 68.5999 56.2998 69.0999 56.2998 69.9999C56.2998 71.4999 57.2998 73.3999 58.5998 74.1999C59.2998 74.5999 59.9998 74.6999 60.4998 74.2999C60.4998 74.0999 60.4998 73.8999 60.5998 73.6999Z" fill="#A09A8E" style="fill:#A09A8E;fill:color(display-p3 0.6275 0.6039 0.5569);fill-opacity:1;"/>
<path d="M59.6 71.0999C59.4 70.6999 59.1 70.2999 58.7 69.9999C58.6 69.9999 58.6 69.8999 58.5 69.8999C57.9 69.6999 57.5 69.9999 57.5 70.6999V70.8999C57.5 71.5999 57.9 72.3999 58.5 72.6999C58.5 72.6999 58.6 72.6999 58.6 72.7999H58.5L58.6 72.8999C59.2 73.2999 59.8 72.9999 59.8 72.1999C59.9 71.7999 59.8 71.4999 59.6 71.0999Z" fill="#938D82" style="fill:#938D82;fill:color(display-p3 0.5765 0.5529 0.5098);fill-opacity:1;"/>
<path d="M60.6004 74.1999C60.2004 74.5999 59.4004 74.6999 58.6004 74.1999C57.3004 73.3999 56.2004 71.4999 56.3004 69.9999C56.3004 69.0999 56.7004 68.4999 57.3004 68.3999C57.4004 68.3999 57.2004 68.2999 57.2004 68.2999H56.5004C55.6004 68.2999 54.9004 68.9999 54.9004 70.2999C54.9004 72.0999 56.1004 74.2999 57.7004 75.2999C58.8004 75.9999 59.8004 75.7999 60.3004 74.9999L60.6004 74.4999C60.5004 74.3999 60.7004 74.0999 60.6004 74.1999Z" fill="#B6B1A5" style="fill:#B6B1A5;fill:color(display-p3 0.7137 0.6941 0.6471);fill-opacity:1;"/>
<path d="M57.8002 68.4999C56.1002 67.4999 54.8002 68.1999 54.7002 70.0999C54.7002 71.9999 56.0002 74.3999 57.6002 75.3999C59.3002 76.3999 60.6002 75.6999 60.7002 73.7999C60.8002 71.8999 59.5002 69.4999 57.8002 68.4999ZM57.7002 75.1999C56.1002 74.2999 54.9002 71.9999 54.9002 70.1999C54.9002 68.3999 56.2002 67.6999 57.8002 68.5999C59.4002 69.4999 60.6002 71.7999 60.6002 73.5999C60.5002 75.4999 59.2002 76.1999 57.7002 75.1999Z" fill="#D9D4CD" style="fill:#D9D4CD;fill:color(display-p3 0.8510 0.8314 0.8039);fill-opacity:1;"/>
<path d="M58.6 70.2999C59.2 70.5999 59.6 71.4999 59.6 72.0999C59.6 72.7999 59.1 72.9999 58.5 72.6999C57.9 72.3999 57.5 71.4999 57.5 70.8999C57.5 70.1999 58 69.9999 58.6 70.2999Z" fill="#B6B1A5" style="fill:#B6B1A5;fill:color(display-p3 0.7137 0.6941 0.6471);fill-opacity:1;"/>
<path d="M18.2008 43.4999C17.8008 42.4999 17.2008 41.5999 16.5008 40.7999C15.9008 40.0999 15.2008 39.5999 14.5008 39.1999C13.3008 38.4999 12.1008 38.3999 11.3008 38.8999L8.80078 40.2999L15.1008 51.1999L17.6008 49.7999C18.4008 49.2999 18.9008 48.2999 18.9008 46.8999C19.0008 45.7999 18.7008 44.5999 18.2008 43.4999Z" fill="#2D2C2B" style="fill:#2D2C2B;fill:color(display-p3 0.1765 0.1725 0.1686);fill-opacity:1;"/>
<path d="M12.001 40.5999C9.50098 39.1999 7.50098 40.2999 7.50098 43.0999C7.50098 45.8999 9.50098 49.3999 11.901 50.7999C14.401 52.1999 16.401 51.0999 16.401 48.1999C16.501 45.4999 14.501 41.9999 12.001 40.5999Z" fill="#3D3C3A" style="fill:#3D3C3A;fill:color(display-p3 0.2392 0.2353 0.2275);fill-opacity:1;"/>
<path d="M12.0008 41.9999C10.2008 40.9999 8.80078 41.7999 8.80078 43.7999C8.80078 45.7999 10.2008 48.2999 12.0008 49.2999C13.8008 50.2999 15.2008 49.4999 15.2008 47.4999C15.2008 45.4999 13.8008 43.0999 12.0008 41.9999Z" fill="#2D2C2B" style="fill:#2D2C2B;fill:color(display-p3 0.1765 0.1725 0.1686);fill-opacity:1;"/>
<path d="M14.801 47.2999C14.801 45.4999 13.601 43.2999 12.001 42.2999C11.801 42.1999 11.601 42.0999 11.401 41.9999C10.901 42.1999 10.501 42.6999 10.501 43.5999C10.501 45.0999 11.501 46.9999 12.801 47.7999C13.501 48.1999 14.201 48.2999 14.701 47.8999C14.801 47.6999 14.801 47.4999 14.801 47.2999Z" fill="#A09A8E" style="fill:#A09A8E;fill:color(display-p3 0.6275 0.6039 0.5569);fill-opacity:1;"/>
<path d="M13.9008 44.6999C13.7008 44.2999 13.4008 43.8999 13.0008 43.5999C12.9008 43.5999 12.9008 43.4999 12.8008 43.4999C12.2008 43.2999 11.8008 43.5999 11.8008 44.2999V44.4999C11.8008 45.1999 12.2008 45.9999 12.8008 46.2999C12.8008 46.2999 12.9008 46.2999 12.9008 46.3999H12.8008L12.9008 46.4999C13.5008 46.8999 14.1008 46.5999 14.1008 45.7999C14.2008 45.3999 14.1008 45.0999 13.9008 44.6999Z" fill="#938D82" style="fill:#938D82;fill:color(display-p3 0.5765 0.5529 0.5098);fill-opacity:1;"/>
<path d="M14.9012 47.7999C14.5012 48.1999 13.7012 48.2999 12.9012 47.7999C11.6012 46.9999 10.5012 45.0999 10.6012 43.5999C10.6012 42.6999 11.0012 42.0999 11.6012 41.9999C11.7012 41.9999 11.5012 41.8999 11.5012 41.8999H10.8012C9.90117 41.8999 9.20117 42.5999 9.20117 43.8999C9.20117 45.6999 10.4012 47.8999 12.0012 48.8999C13.1012 49.5999 14.1012 49.3999 14.6012 48.5999L14.9012 48.0999C14.8012 47.9999 15.0012 47.6999 14.9012 47.7999Z" fill="#B6B1A5" style="fill:#B6B1A5;fill:color(display-p3 0.7137 0.6941 0.6471);fill-opacity:1;"/>
<path d="M12.101 42.0999C10.401 41.0999 9.10098 41.7999 9.00098 43.6999C9.00098 45.5999 10.301 47.9999 11.901 48.9999C13.601 49.9999 14.901 49.2999 15.001 47.3999C15.101 45.4999 13.801 43.0999 12.101 42.0999ZM12.001 48.7999C10.401 47.8999 9.20098 45.5999 9.20098 43.7999C9.20098 41.9999 10.501 41.2999 12.101 42.1999C13.701 43.0999 14.901 45.3999 14.901 47.1999C14.801 49.0999 13.501 49.7999 12.001 48.7999Z" fill="#D9D4CD" style="fill:#D9D4CD;fill:color(display-p3 0.8510 0.8314 0.8039);fill-opacity:1;"/>
<path d="M12.9008 43.8999C13.5008 44.1999 13.9008 45.0999 13.9008 45.6999C13.9008 46.3999 13.4008 46.5999 12.8008 46.2999C12.2008 45.9999 11.8008 45.0999 11.8008 44.4999C11.8008 43.7999 12.3008 43.5999 12.9008 43.8999Z" fill="#B6B1A5" style="fill:#B6B1A5;fill:color(display-p3 0.7137 0.6941 0.6471);fill-opacity:1;"/>
<path d="M27.6006 1.09989C27.2006 0.899885 26.8006 0.799887 26.6006 0.999887L4.10059 13.9999C4.40059 13.7999 4.70059 13.8999 5.10059 14.0999L47.0006 38.2999L69.5006 25.2999L27.6006 1.09989Z" fill="#EEEEEA" style="fill:#EEEEEA;fill:color(display-p3 0.9333 0.9333 0.9176);fill-opacity:1;"/>
<path d="M78.401 42.3999L70.401 26.3999C70.401 26.3999 70.401 26.3999 70.401 26.2999C70.301 26.0999 70.101 25.7999 70.001 25.5999C69.801 25.3999 69.701 25.2999 69.501 25.1999L47.001 38.1999C47.201 38.2999 54.501 56.1999 54.501 56.1999C63.701 52.2999 71.801 47.6999 78.401 42.3999ZM66.301 36.0999C68.101 34.9999 69.901 33.7999 71.601 32.5999L76.201 41.7999L66.301 36.0999Z" fill="#F2F2EE" style="fill:#F2F2EE;fill:color(display-p3 0.9490 0.9490 0.9333);fill-opacity:1;"/>
<path d="M64.1008 63.8999L54.5008 56.2999L48.0008 39.3999C47.8008 38.8999 47.4008 38.4999 47.1008 38.1999L5.2008 13.9999C4.4008 13.4999 3.7008 13.8999 3.7008 14.7999C3.0008 20.8999 2.4008 32.0999 3.3008 41.3999L6.8008 43.3999V41.6999C6.8008 41.1999 6.9008 40.6999 7.0008 40.1999C7.7008 38.2999 9.5008 38.0999 11.6008 39.3999C14.9008 41.2999 17.0008 44.3999 17.0008 47.7999C17.0008 47.8999 17.0008 49.2999 17.0008 49.3999L52.7008 69.9999V68.4999C52.7008 67.8999 52.8008 67.3999 52.9008 66.7999C53.5008 64.8999 55.3008 64.6999 57.3008 65.8999C57.4008 65.8999 57.4008 65.9999 57.5008 65.9999C60.9008 68.0999 62.9008 70.9999 62.9008 74.2999C62.9008 74.2999 62.9008 75.7999 62.9008 75.8999L65.4008 77.2999V66.4999C65.5008 65.6999 64.9008 64.5999 64.1008 63.8999Z" fill="#C2C1B7" style="fill:#C2C1B7;fill:color(display-p3 0.7608 0.7569 0.7176);fill-opacity:1;"/>
<path opacity="0.4" d="M69.9004 25.6998L47.4004 38.6998C47.6004 38.8998 47.7004 39.0998 47.8004 39.3998L70.3004 26.3998C70.2004 26.0998 70.1004 25.8998 69.9004 25.6998Z" fill="#EEEEEA" style="fill:#EEEEEA;fill:color(display-p3 0.9333 0.9333 0.9176);fill-opacity:1;"/>
<path opacity="0.4" d="M47.4002 41.5999L46.5002 39.4999C43.0002 37.5999 39.5002 35.6999 36.0002 33.6999L25.6002 27.6999C22.1002 25.6999 18.7002 23.6999 15.2002 21.5999C11.8002 19.4999 8.3002 17.4999 4.9002 15.3999L4.2002 16.1999L4.8002 15.2999C8.4002 17.1999 11.9002 19.0999 15.4002 21.0999C18.9002 23.0999 22.4002 25.0999 25.8002 26.9999L36.2002 33.0999C39.6002 35.1999 43.1002 37.1999 46.5002 39.2999C46.6002 39.3999 47.4002 41.5999 47.4002 41.5999Z" fill="#EEEEEA" style="fill:#EEEEEA;fill:color(display-p3 0.9333 0.9333 0.9176);fill-opacity:1;"/>
<path d="M6.70052 43.5999V41.8999C6.70052 41.3999 6.80052 40.8999 6.90052 40.3999C7.60052 38.4999 9.40052 38.2999 11.5005 39.5999C14.8005 41.4999 16.9005 44.5999 16.9005 47.9999C16.9005 48.0999 16.9005 49.4999 16.9005 49.5999L52.6005 70.1999V68.6999C52.6005 68.0999 52.7005 67.5999 52.8005 66.9999C53.1005 66.0999 53.7005 65.5999 54.4005 65.3999C54.4005 65.3999 54.1005 65.2999 53.6005 65.0999C42.1005 60.1999 31.5005 53.1999 22.4005 44.5999C16.1005 38.5999 9.80052 32.5999 2.60052 28.5999C2.50052 32.8999 2.60052 37.4999 3.00052 41.6999L6.70052 43.5999Z" fill="#A32B1D" style="fill:#A32B1D;fill:color(display-p3 0.6392 0.1686 0.1137);fill-opacity:1;"/>
<path opacity="0.8" d="M77.1002 42.4999L71.7002 32.5999C71.7002 32.5999 71.6002 32.5999 71.6002 32.6999L76.2002 41.8998L66.3002 36.1999C61.7002 39.0999 56.6002 41.8999 51.2002 44.5999L55.2002 55.2999C63.5002 51.6999 71.7002 46.9999 77.1002 42.4999Z" fill="#5A5656" style="fill:#5A5656;fill:color(display-p3 0.3529 0.3373 0.3373);fill-opacity:1;"/>
<path d="M65.5004 66.6999L89.4004 52.7999V63.4999L65.4004 77.3999L65.5004 66.6999Z" fill="#DBDAD0" style="fill:#DBDAD0;fill:color(display-p3 0.8588 0.8549 0.8157);fill-opacity:1;"/>
<path d="M54.4004 56.2999C63.4004 51.9999 71.6004 47.3999 78.3004 42.3999L88.0004 49.9999L64.1004 63.8999L54.4004 56.2999Z" fill="#EEEEEA" style="fill:#EEEEEA;fill:color(display-p3 0.9333 0.9333 0.9176);fill-opacity:1;"/>
<path d="M89.1006 51.4999C88.9006 51.0999 88.7006 50.7999 88.4006 50.4999C88.3006 50.2999 88.1006 50.1999 88.0006 50.0999L64.1006 63.9999C64.3006 64.0999 64.4006 64.2999 64.5006 64.3999C64.8006 64.6999 65.0006 65.0999 65.2006 65.3999C65.4006 65.7999 65.5006 66.2999 65.5006 66.6999L89.4006 52.7999C89.4006 52.3999 89.3006 51.8999 89.1006 51.4999Z" fill="url(#paint0_linear_106_5065)" style=""/>
<path opacity="0.4" d="M88.401 50.4999L64.501 64.3999C64.801 64.6999 65.001 65.0999 65.201 65.3999L89.101 51.4999C88.901 51.0999 88.701 50.7999 88.401 50.4999Z" fill="#EEEEEA" style="fill:#EEEEEA;fill:color(display-p3 0.9333 0.9333 0.9176);fill-opacity:1;"/>
<path opacity="0.6" d="M71.7002 32.5999C65.7002 36.7999 58.8002 40.6999 51.2002 44.4999L55.2002 55.1999C63.5002 51.6999 71.7002 46.9999 77.1002 42.4999L71.7002 32.5999Z" fill="#443F3F" style="fill:#443F3F;fill:color(display-p3 0.2667 0.2471 0.2471);fill-opacity:1;"/>
<path d="M48.9004 45.7999C48.7004 45.0999 48.2004 44.5999 47.6004 44.1999L40.6004 40.1999C40.4004 40.0999 40.1004 40.1999 40.1004 40.4999C40.0004 42.2999 39.9004 45.0999 39.9004 47.9999C39.9004 48.0999 40.0004 48.2999 40.1004 48.2999C41.5004 49.0999 50.1004 54.0999 52.1004 55.1999C52.2004 55.2999 52.4004 55.0999 52.3004 54.9999L48.9004 45.7999Z" fill="#2D2A2A" style="fill:#2D2A2A;fill:color(display-p3 0.1765 0.1647 0.1647);fill-opacity:1;"/>
<path d="M90.9008 60.5999C90.9008 60.3999 90.8008 60.1998 90.6008 59.9998L89.4008 59.0999V60.5999L65.5008 74.3998L62.8008 72.7999L62.3008 73.0999V75.9998L64.8008 77.4998C65.2008 77.6998 65.6008 77.6998 66.0008 77.4998L90.2008 63.2999C90.6008 63.0999 90.8008 62.6999 90.8008 62.2999L90.9008 60.5999Z" fill="#3A3A3A" style="fill:#3A3A3A;fill:color(display-p3 0.2275 0.2275 0.2275);fill-opacity:1;"/>
<path d="M84.1002 62.0998V56.3998L70.7002 64.0998V69.5998C70.7002 69.8998 71.1002 70.1998 71.4002 69.9998L83.6002 62.9998C84.0002 62.6998 84.1002 62.3998 84.1002 62.0998Z" fill="#262626" style="fill:#262626;fill:color(display-p3 0.1490 0.1490 0.1490);fill-opacity:1;"/>
<path opacity="0.3" d="M84.2004 60.3998L70.9004 68.0998V67.7998L84.2004 60.0998V60.3998ZM84.2004 61.7998L70.9004 69.4998V69.7998L84.2004 62.0998V61.7998ZM84.2004 60.9998L70.9004 68.6998V68.9998L84.2004 61.2998V60.9998ZM84.2004 59.2998L70.9004 66.9998V67.2998L84.2004 59.5998V59.2998ZM84.2004 56.7998L70.9004 64.4998V64.7998L84.2004 57.0998V56.7998ZM84.2004 58.4998L70.9004 66.1998V66.4998L84.2004 58.7998V58.4998ZM84.2004 57.5998L70.9004 65.2998V65.5998L84.2004 57.8998V57.5998Z" fill="#BBBBBB" style="fill:#BBBBBB;fill:color(display-p3 0.7333 0.7333 0.7333);fill-opacity:1;"/>
<path d="M89.1002 57.0998L84.2002 59.8998V56.2998L89.1002 53.3998V57.0998Z" fill="#3A3A3A" style="fill:#3A3A3A;fill:color(display-p3 0.2275 0.2275 0.2275);fill-opacity:1;"/>
<path d="M88.2002 56.6998L88.9002 56.2998V56.8998L88.2002 57.2998V56.6998Z" fill="#A94B17" style="fill:#A94B17;fill:color(display-p3 0.6627 0.2941 0.0902);fill-opacity:1;"/>
<path d="M88.2002 54.2998L88.9002 53.8998V56.0998L88.2002 56.4998V54.2998Z" fill="#D78712" style="fill:#D78712;fill:color(display-p3 0.8431 0.5294 0.0706);fill-opacity:1;"/>
<path d="M84.6006 56.3998L88.2006 54.2998V55.5998L84.6006 57.6998V56.3998ZM84.6006 59.3998L88.2006 57.2998V55.8998L84.6006 57.9998V59.3998Z" fill="#D3DEE2" style="fill:#D3DEE2;fill:color(display-p3 0.8275 0.8706 0.8863);fill-opacity:1;"/>
<path d="M89.4006 57.1998L89.1006 57.0998V53.6998L89.4006 53.8998V57.1998Z" fill="#A5A5A5" style="fill:#A5A5A5;fill:color(display-p3 0.6471 0.6471 0.6471);fill-opacity:1;"/>
<path d="M84.7004 59.9998L84.4004 59.7998L89.1004 57.0998L89.4004 57.1998L84.7004 59.9998Z" fill="#D5D5D5" style="fill:#D5D5D5;fill:color(display-p3 0.8353 0.8353 0.8353);fill-opacity:1;"/>
<path d="M84.4006 60.3998L84.1006 60.2998V56.2998L84.4006 56.3998V60.3998Z" fill="#A5A5A5" style="fill:#A5A5A5;fill:color(display-p3 0.6471 0.6471 0.6471);fill-opacity:1;"/>
<path d="M84.4006 56.3998L84.1006 56.2998L89.4006 53.1998L89.7006 53.3998L84.4006 56.3998Z" fill="#D5D5D5" style="fill:#D5D5D5;fill:color(display-p3 0.8353 0.8353 0.8353);fill-opacity:1;"/>
<path d="M84.4004 56.3998L89.7004 53.2998V57.2998L84.4004 60.3998V56.3998ZM89.4004 57.1998V53.7998L84.7004 56.4998V59.8998L89.4004 57.1998Z" fill="#BBBBBB" style="fill:#BBBBBB;fill:color(display-p3 0.7333 0.7333 0.7333);fill-opacity:1;"/>
<path d="M84.0998 62.4998L83.8998 62.3998L83.7998 56.6998L84.0998 56.8998V62.4998Z" fill="#A5A5A5" style="fill:#A5A5A5;fill:color(display-p3 0.6471 0.6471 0.6471);fill-opacity:1;"/>
<path d="M83.9002 62.3998C83.9002 62.4998 83.9002 62.6998 83.7002 62.7998L71.4002 69.8998C71.3002 69.8998 71.3002 69.8998 71.2002 69.8998L71.5002 70.0998C71.6002 70.0998 71.6002 70.0998 71.7002 70.0998L84.0002 62.9998C84.2002 62.8998 84.2002 62.6998 84.2002 62.5998L83.9002 62.3998Z" fill="#D5D5D5" style="fill:#D5D5D5;fill:color(display-p3 0.8353 0.8353 0.8353);fill-opacity:1;"/>
<path d="M71.2998 70.3998L70.9998 70.1998C70.8998 70.0998 70.7998 69.9998 70.7998 69.7998L71.0998 69.9998C70.9998 70.0998 71.0998 70.2998 71.2998 70.3998Z" fill="#A5A5A5" style="fill:#A5A5A5;fill:color(display-p3 0.6471 0.6471 0.6471);fill-opacity:1;"/>
<path d="M70.9998 69.8998L70.7998 69.7998V63.9998L70.9998 64.0998V69.8998Z" fill="#A5A5A5" style="fill:#A5A5A5;fill:color(display-p3 0.6471 0.6471 0.6471);fill-opacity:1;"/>
<path d="M70.9998 64.0998L70.7998 63.9998L84.0998 56.1998L84.3998 56.3998L70.9998 64.0998Z" fill="#D5D5D5" style="fill:#D5D5D5;fill:color(display-p3 0.8353 0.8353 0.8353);fill-opacity:1;"/>
<path d="M71 64.0998L84.4 56.3998V62.3998C84.4 62.7998 84.2 63.0998 83.9 63.2998L71.6 70.3998C71.3 70.5998 71 70.2998 71 69.9998V64.0998ZM84.1 62.4998V56.7998L71.3 64.1998V69.6998C71.3 69.8998 71.5 70.0998 71.6 69.9998L83.9 62.8998C84.1 62.8998 84.1 62.6998 84.1 62.4998Z" fill="#BBBBBB" style="fill:#BBBBBB;fill:color(display-p3 0.7333 0.7333 0.7333);fill-opacity:1;"/>
<path d="M70.4996 67.7999L65.5996 70.6999V66.9999L70.4996 64.1999V67.7999Z" fill="#3A3A3A" style="fill:#3A3A3A;fill:color(display-p3 0.2275 0.2275 0.2275);fill-opacity:1;"/>
<path d="M65.8994 69.5999L66.5994 69.1999V69.7999L65.8994 70.1999V69.5999Z" fill="#A94B17" style="fill:#A94B17;fill:color(display-p3 0.6627 0.2941 0.0902);fill-opacity:1;"/>
<path d="M65.8994 67.0999L66.5994 66.6999V68.8999L65.8994 69.2999V67.0999Z" fill="#D78712" style="fill:#D78712;fill:color(display-p3 0.8431 0.5294 0.0706);fill-opacity:1;"/>
<path d="M66.5996 66.6999L70.1996 64.5999V65.8999L66.5996 67.9999V66.6999ZM66.5996 69.7999L70.1996 67.6999V66.2999L66.5996 68.3999V69.7999Z" fill="#D3DEE2" style="fill:#D3DEE2;fill:color(display-p3 0.8275 0.8706 0.8863);fill-opacity:1;"/>
<path d="M70.8 67.9998L70.5 67.7998V64.3998L70.8 64.5998V67.9998Z" fill="#A5A5A5" style="fill:#A5A5A5;fill:color(display-p3 0.6471 0.6471 0.6471);fill-opacity:1;"/>
<path d="M65.9998 70.6998L65.7998 70.4998L70.4998 67.7998L70.7998 67.9998L65.9998 70.6998Z" fill="#D5D5D5" style="fill:#D5D5D5;fill:color(display-p3 0.8353 0.8353 0.8353);fill-opacity:1;"/>
<path d="M65.8 71.1998L65.5 70.9998V66.9998L65.8 67.1998V71.1998Z" fill="#A5A5A5" style="fill:#A5A5A5;fill:color(display-p3 0.6471 0.6471 0.6471);fill-opacity:1;"/>
<path d="M65.8 67.1998L65.5 66.9998L70.8 63.8998L71 64.0998L65.8 67.1998Z" fill="#D5D5D5" style="fill:#D5D5D5;fill:color(display-p3 0.8353 0.8353 0.8353);fill-opacity:1;"/>
<path d="M65.7998 67.1998L71.0998 64.0998V68.0998L65.7998 71.1998V67.1998ZM70.7998 67.9998V64.5998L66.0998 67.2998V70.6998L70.7998 67.9998Z" fill="#BBBBBB" style="fill:#BBBBBB;fill:color(display-p3 0.7333 0.7333 0.7333);fill-opacity:1;"/>
<path d="M5.10039 37.8999L2.90039 36.6999L2.80039 34.2999L1.00039 35.3999C0.600391 35.5999 0.400391 35.9999 0.400391 36.3999V39.7999C0.400391 40.0999 0.600391 40.4999 0.900391 40.5999L4.70039 42.7999L5.00039 42.5999L5.10039 37.8999Z" fill="#3A3A3A" style="fill:#3A3A3A;fill:color(display-p3 0.2275 0.2275 0.2275);fill-opacity:1;"/>
<path d="M62.0008 68.2998L61.2008 67.7998C61.0008 67.6998 60.8008 67.2998 60.8008 67.0998C60.8008 66.8998 61.0008 66.7998 61.2008 66.8998L62.0008 67.3998C62.2008 67.4998 62.4008 67.8998 62.4008 68.0998C62.5008 68.2998 62.3008 68.3998 62.0008 68.2998Z" fill="#BC6A19" style="fill:#BC6A19;fill:color(display-p3 0.7373 0.4157 0.0980);fill-opacity:1;"/>
<path d="M5.80059 35.7999L5.00059 35.2999C4.80059 35.1999 4.60059 34.7999 4.60059 34.5999C4.60059 34.3999 4.80059 34.2999 5.00059 34.3999L5.80059 34.8999C6.00059 34.9999 6.20059 35.3999 6.20059 35.5999C6.20059 35.8999 6.00059 35.8999 5.80059 35.7999Z" fill="#BC6A19" style="fill:#BC6A19;fill:color(display-p3 0.7373 0.4157 0.0980);fill-opacity:1;"/>
<path d="M51.3002 53.3999L51.1002 53.2999C51.0002 53.2999 50.9002 53.2999 50.8002 53.2999L48.6002 54.5999C48.4002 54.6999 48.2002 55.0999 48.2002 55.2999V56.3999C48.2002 56.4999 48.2002 56.5999 48.3002 56.6999L48.5002 56.7999C48.5002 56.7999 48.5002 56.7999 48.4002 56.6999C48.5002 56.7999 48.6002 56.7999 48.8002 56.6999L51.0002 55.3999C51.2002 55.2999 51.4002 54.8999 51.4002 54.6999V53.5999C51.5002 53.5999 51.4002 53.4999 51.3002 53.3999Z" fill="#DBDAD0" style="fill:#DBDAD0;fill:color(display-p3 0.8588 0.8549 0.8157);fill-opacity:1;"/>
<path d="M53.9998 56.0999C53.9998 56.2999 53.6998 56.2999 53.3998 56.0999C52.9998 55.8999 52.7998 55.5999 52.7998 55.2999C52.7998 55.0999 53.0998 55.0999 53.3998 55.2999C53.6998 55.4999 53.9998 55.7999 53.9998 56.0999Z" fill="#3F423C" style="fill:#3F423C;fill:color(display-p3 0.2471 0.2588 0.2353);fill-opacity:1;"/>
<path d="M53.0002 55.4999C51.8002 56.5999 50.4002 55.0999 50.3002 55.0999C50.1002 54.8999 49.7002 55.1999 49.9002 55.4999C50.3002 55.8999 51.2002 56.4999 52.0002 56.4999C52.5002 56.4999 53.0002 56.3999 53.4002 56.0999C53.7002 55.7999 53.3002 55.2999 53.0002 55.4999Z" fill="#4D4F4A" style="fill:#4D4F4A;fill:color(display-p3 0.3020 0.3098 0.2902);fill-opacity:1;"/>
<path d="M8.10059 28.2999C13.3006 30.3999 22.4006 35.1999 22.4006 35.1999L8.10059 26.8999V28.2999Z" fill="#A32B1D" style="fill:#A32B1D;fill:color(display-p3 0.6392 0.1686 0.1137);fill-opacity:1;"/>
<path d="M9.00059 24.6999L8.20059 24.1999H8.10059V26.1999C8.10059 26.1999 8.10059 26.2999 8.20059 26.2999L9.00059 26.7999C9.20059 26.8999 9.30059 26.8999 9.40059 26.8999C9.50059 26.8999 9.50059 26.7999 9.50059 26.5999V25.4999C9.50059 25.2999 9.50059 25.1999 9.40059 24.9999C9.30059 24.8999 9.20059 24.7999 9.00059 24.6999ZM9.10059 26.2999C9.10059 26.3999 9.10059 26.3999 9.10059 26.3999C9.10059 26.3999 9.00059 26.3999 8.90059 26.3999L8.50059 26.1999C8.50059 26.1999 8.50059 26.1999 8.50059 26.0999V24.7999L8.90059 24.9999C9.00059 24.9999 9.00059 25.0999 9.10059 25.0999C9.10059 25.0999 9.10059 25.1999 9.10059 25.2999V26.2999Z" fill="#3F3B34" style="fill:#3F3B34;fill:color(display-p3 0.2471 0.2314 0.2039);fill-opacity:1;"/>
<path d="M11.5008 26.0999L10.4008 25.4999H10.3008V27.4999C10.3008 27.4999 10.3008 27.5999 10.4008 27.5999L11.5008 28.1999H11.6008V27.9999C11.6008 27.9999 11.6008 27.8999 11.5008 27.8999L10.8008 27.4999C10.8008 27.4999 10.8008 27.4999 10.8008 27.3999V26.9999L11.4008 27.2999H11.5008V26.9999C11.5008 26.9999 11.5008 26.8999 11.4008 26.8999L10.8008 26.5999C10.8008 26.5999 10.8008 26.5999 10.8008 26.4999V26.0999L11.5008 26.4999H11.6008V26.2999C11.5008 26.1999 11.5008 26.0999 11.5008 26.0999Z" fill="#3F3B34" style="fill:#3F3B34;fill:color(display-p3 0.2471 0.2314 0.2039);fill-opacity:1;"/>
<path d="M13.4002 28.9999L12.7002 28.5999C12.7002 28.5999 12.7002 28.5999 12.7002 28.4999V26.7999C12.7002 26.7999 12.7002 26.6999 12.6002 26.6999L12.3002 26.4999H12.2002V28.4999C12.2002 28.4999 12.2002 28.5999 12.3002 28.5999L13.4002 29.1999H13.5002V28.9999C13.5002 29.0999 13.5002 28.9999 13.4002 28.9999Z" fill="#3F3B34" style="fill:#3F3B34;fill:color(display-p3 0.2471 0.2314 0.2039);fill-opacity:1;"/>
<path d="M14.5006 27.7999L14.2006 27.5999H14.1006V29.5999C14.1006 29.5999 14.1006 29.6999 14.2006 29.6999L14.5006 29.8999H14.6006V27.8999C14.5006 27.8999 14.5006 27.8999 14.5006 27.7999Z" fill="#3F3B34" style="fill:#3F3B34;fill:color(display-p3 0.2471 0.2314 0.2039);fill-opacity:1;"/>
<path d="M16.8006 29.0999L16.5006 28.8999H16.4006L16.0006 30.3999L15.6006 28.4999C15.6006 28.3999 15.6006 28.3999 15.5006 28.3999L15.2006 28.1999C15.1006 28.1999 15.1006 28.1999 15.1006 28.1999L15.6006 30.4999C15.6006 30.5999 15.6006 30.5999 15.7006 30.5999L16.1006 30.8999H16.2006L16.7006 29.1999C16.8006 29.1999 16.8006 29.1999 16.8006 29.0999Z" fill="#3F3B34" style="fill:#3F3B34;fill:color(display-p3 0.2471 0.2314 0.2039);fill-opacity:1;"/>
<path d="M18.6004 30.1999L17.5004 29.5999H17.4004V31.5999C17.4004 31.5999 17.4004 31.6999 17.5004 31.6999L18.6004 32.2999H18.7004V32.0999C18.7004 32.0999 18.7004 31.9999 18.6004 31.9999L17.9004 31.5999C17.9004 31.5999 17.9004 31.5999 17.9004 31.4999V30.9999L18.5004 31.2999H18.6004V31.0999C18.6004 31.0999 18.6004 30.9999 18.5004 30.9999L17.9004 30.6999C17.9004 30.6999 17.9004 30.6999 17.9004 30.5999V30.1999L18.6004 30.5999H18.7004V30.3999C18.7004 30.2999 18.6004 30.1999 18.6004 30.1999Z" fill="#3F3B34" style="fill:#3F3B34;fill:color(display-p3 0.2471 0.2314 0.2039);fill-opacity:1;"/>
<path d="M20.5004 32.5999C20.7004 32.5999 20.8004 32.4999 20.8004 32.2999V31.9999C20.8004 31.7999 20.8004 31.6999 20.7004 31.4999C20.6004 31.2999 20.5004 31.1999 20.3004 31.0999L19.5004 30.5999H19.4004V32.5999C19.4004 32.5999 19.4004 32.6999 19.5004 32.6999L19.8004 32.8999H19.9004V32.1999L20.1004 32.2999L20.4004 33.1999V33.2999C20.4004 33.2999 20.4004 33.2999 20.5004 33.3999L20.8004 33.5999C20.9004 33.5999 20.9004 33.5999 20.9004 33.5999L20.5004 32.5999ZM20.4004 32.0999C20.4004 32.1999 20.4004 32.1999 20.3004 32.1999C20.3004 32.1999 20.2004 32.1999 20.1004 32.1999L19.8004 31.9999C19.8004 31.9999 19.8004 31.9999 19.8004 31.8999V31.2999L20.1004 31.4999C20.2004 31.4999 20.2004 31.5999 20.3004 31.5999C20.3004 31.6999 20.4004 31.6999 20.4004 31.7999V32.0999Z" fill="#3F3B34" style="fill:#3F3B34;fill:color(display-p3 0.2471 0.2314 0.2039);fill-opacity:1;"/>
<path d="M23.0006 32.6999L22.6006 32.4999H22.5006L22.2006 33.0999L21.8006 32.0999C21.8006 31.9999 21.8006 31.9999 21.7006 31.9999L21.3006 31.7999C21.2006 31.7999 21.2006 31.7999 21.3006 31.7999L21.9006 33.4999V34.1999C21.9006 34.1999 21.9006 34.2999 22.0006 34.2999L22.3006 34.4999H22.4006V33.7999L23.0006 32.8999C23.0006 32.7999 23.0006 32.7999 23.0006 32.6999C23.0006 32.7999 23.0006 32.7999 23.0006 32.6999Z" fill="#3F3B34" style="fill:#3F3B34;fill:color(display-p3 0.2471 0.2314 0.2039);fill-opacity:1;"/>
<g opacity="0.5">
<path d="M38.3007 34.1999L25.2007 26.5999H25.1007C25.1007 26.5999 25.1007 26.5999 25.1007 26.6999C24.4007 36.3999 24.4007 45.9999 25.0007 53.6999C25.0007 53.6999 25.0007 53.6999 25.0007 53.7999L38.2007 61.3998C38.3007 61.3998 38.3007 61.3999 38.3007 61.2999C37.7007 52.8999 37.7007 42.9999 38.3007 34.1999ZM38.1007 61.0999L25.1007 53.5999C24.5007 45.8999 24.6007 36.3999 25.2007 26.7999L38.2007 34.2999C37.6007 42.9999 37.5007 52.7999 38.1007 61.0999Z" fill="#C9C8BF" style="fill:#C9C8BF;fill:color(display-p3 0.7882 0.7843 0.7490);fill-opacity:1;"/>
<path d="M53.5008 56.2999L49.6008 45.4999C49.3008 44.7999 48.8008 44.1999 48.2008 43.7999L39.6008 38.7999C39.5008 38.7999 39.4008 38.7999 39.3008 38.7999C39.2008 38.7999 39.2008 38.8999 39.2008 38.9999C38.4008 50.6999 39.4008 61.8999 39.4008 61.9999C39.4008 61.9999 39.4008 61.9999 39.4008 62.0999L51.1008 68.8998C51.2008 68.8998 51.2008 68.8999 51.2008 68.7999C51.2008 68.7999 50.9008 64.9998 53.4008 63.8998C53.4008 63.8998 53.4008 63.8999 53.4008 63.7999L53.5008 56.2999ZM51.1008 68.5999L39.6008 61.9999C39.5008 61.2999 38.6008 50.3999 39.4008 39.0999C39.4008 39.0999 39.4008 38.9999 39.5008 38.9999H39.6008L48.2008 43.9999C48.8008 44.3999 49.3008 44.9999 49.6008 45.5999L53.4008 56.3998V63.7999C51.1008 64.7999 51.1008 67.8999 51.1008 68.5999Z" fill="#C9C8BF" style="fill:#C9C8BF;fill:color(display-p3 0.7882 0.7843 0.7490);fill-opacity:1;"/>
</g>
<path d="M41.5 53.6999L39 52.1999V50.3999L41.5 51.8999C41.8 52.0999 42.1 52.4999 42.1 52.8999V53.4999C42.1 53.7999 41.9 53.8999 41.5 53.6999Z" fill="#3D3939" style="fill:#3D3939;fill:color(display-p3 0.2392 0.2235 0.2235);fill-opacity:1;"/>
<path d="M35.2006 50.0999L37.7006 51.5999V49.7999L35.2006 48.2999C34.9006 48.0999 34.6006 48.1999 34.6006 48.5999V49.1999C34.6006 49.3999 34.9006 49.8999 35.2006 50.0999Z" fill="#3D3939" style="fill:#3D3939;fill:color(display-p3 0.2392 0.2235 0.2235);fill-opacity:1;"/>
<path d="M14.6002 37.8999L24.6002 43.6999V42.5999L14.6002 36.7999C14.4002 36.6999 14.2002 36.7999 14.2002 36.9999V37.2999C14.2002 37.4999 14.4002 37.6999 14.6002 37.8999Z" fill="#3D3939" style="fill:#3D3939;fill:color(display-p3 0.2392 0.2235 0.2235);fill-opacity:1;"/>
<g opacity="0.4">
<path d="M36.4004 46.2999L26.2004 40.3999C25.8004 40.1999 25.5004 39.6999 25.5004 39.1999C25.5004 37.0999 25.6004 34.2999 25.7004 32.0999C25.7004 31.8999 25.8004 31.7999 25.9004 31.6999C25.7004 31.7999 25.6004 31.8999 25.6004 32.0999C25.5004 34.2999 25.4004 36.9999 25.4004 39.1999C25.4004 39.6999 25.6004 40.0999 26.1004 40.3999L36.3004 46.2999C36.5004 46.3999 36.7004 46.3999 36.9004 46.1999C36.7004 46.3999 36.6004 46.3999 36.4004 46.2999Z" fill="#DBDAD3" style="fill:#DBDAD3;fill:color(display-p3 0.8588 0.8549 0.8275);fill-opacity:1;"/>
<path opacity="0.6" d="M36.6004 37.7999L26.4004 31.8999C26.3004 31.7999 26.1004 31.7999 26.0004 31.8999C26.0004 31.8999 26.0004 31.8999 25.9004 31.9999C26.0004 31.9999 26.1004 31.9999 26.2004 31.9999L36.4004 37.8999C36.8004 38.0999 37.1004 38.5999 37.0004 39.0999C36.9004 41.2999 36.8004 43.9999 36.8004 46.0999C36.8004 46.1999 36.7004 46.2999 36.7004 46.3999C36.8004 46.2999 36.9004 46.1999 36.9004 45.9999C36.9004 43.7999 37.0004 41.0999 37.1004 38.9999C37.3004 38.4999 37.0004 37.9999 36.6004 37.7999Z" fill="#C9C8BF" style="fill:#C9C8BF;fill:color(display-p3 0.7882 0.7843 0.7490);fill-opacity:1;"/>
</g>
<g opacity="0.4">
<path d="M23.1006 38.6999L7.90059 29.8999C7.50059 29.6999 7.20059 29.1999 7.20059 28.6999C7.20059 26.5999 7.30059 23.7999 7.40059 21.5999C7.40059 21.3999 7.50059 21.2999 7.60059 21.1999C7.40059 21.2999 7.30059 21.3999 7.30059 21.5999C7.20059 23.7999 7.10059 26.4999 7.10059 28.6999C7.10059 29.1999 7.30059 29.5999 7.80059 29.8999L23.0006 38.6999C23.2006 38.7999 23.4006 38.7999 23.6006 38.5999C23.4006 38.7999 23.3006 38.7999 23.1006 38.6999Z" fill="#DBDAD3" style="fill:#DBDAD3;fill:color(display-p3 0.8588 0.8549 0.8275);fill-opacity:1;"/>
<path opacity="0.6" d="M23.3006 30.0999L8.10059 21.2999C8.00059 21.1999 7.80059 21.1999 7.70059 21.2999C7.70059 21.2999 7.70059 21.2999 7.60059 21.3999C7.70059 21.3999 7.80059 21.3999 7.90059 21.3999L23.1006 30.1999C23.5006 30.3999 23.8006 30.8999 23.7006 31.3999C23.6006 33.5999 23.5006 36.2999 23.5006 38.3999C23.5006 38.4999 23.4006 38.5999 23.4006 38.6999C23.5006 38.5999 23.6006 38.4999 23.6006 38.2999C23.6006 36.0999 23.7006 33.3999 23.8006 31.2999C24.0006 30.7999 23.8006 30.2999 23.3006 30.0999Z" fill="#C9C8BF" style="fill:#C9C8BF;fill:color(display-p3 0.7882 0.7843 0.7490);fill-opacity:1;"/>
</g>
<path opacity="0.2" d="M49.0002 32.4999C49.1002 32.3999 49.1002 32.0999 48.9002 31.9999L15.4002 12.6999C15.1002 12.4999 14.7002 12.4999 14.4002 12.6999C14.4002 12.6999 14.4002 12.6999 14.5002 12.6999C14.8002 12.4999 15.3002 12.4999 15.6002 12.6999L49.0002 31.8999C49.3002 31.9999 49.3002 32.2999 49.0002 32.4999ZM46.4002 33.3999L12.9002 14.0999C12.6002 13.8999 12.1002 13.8999 11.8002 14.0999C11.8002 14.0999 11.8002 14.0999 11.7002 14.0999C12.0002 13.9999 12.4002 13.9999 12.7002 14.0999L46.2002 33.3999C46.5002 33.5999 46.5002 33.7999 46.3002 33.9999H46.4002C46.6002 33.7999 46.6002 33.5999 46.4002 33.3999ZM51.7002 30.2999L18.2002 10.9999C17.9002 10.7999 17.4002 10.7999 17.1002 10.9999C17.1002 10.9999 17.1002 10.9999 17.0002 10.9999C17.3002 10.8999 17.7002 10.8999 18.0002 10.9999L51.5002 30.2999C51.8002 30.4999 51.8002 30.6999 51.6002 30.8999H51.7002C52.0002 30.6999 52.0002 30.4999 51.7002 30.2999ZM59.7002 25.6999L26.3002 6.29989C26.0002 6.09989 25.5002 6.09989 25.2002 6.29989C25.2002 6.29989 25.2002 6.29989 25.1002 6.29989C25.4002 6.19989 25.8002 6.19989 26.1002 6.29989L59.6002 25.5999C59.9002 25.7999 59.9002 25.9999 59.7002 26.1999H59.8002C60.0002 26.0999 60.0002 25.7999 59.7002 25.6999ZM62.4002 24.0999L29.0002 4.79989C28.7002 4.59989 28.2002 4.59989 27.9002 4.79989C27.9002 4.79989 27.9002 4.79989 27.8002 4.79989C28.1002 4.69989 28.5002 4.69989 28.8002 4.79989L62.3002 24.0999C62.6002 24.2999 62.6002 24.4999 62.4002 24.6999H62.5002C62.7002 24.5999 62.7002 24.2999 62.4002 24.0999ZM54.4002 28.7999L20.9002 9.49988C20.6002 9.29988 20.1002 9.29988 19.8002 9.49988C19.8002 9.49988 19.8002 9.49988 19.7002 9.49988C20.0002 9.39988 20.4002 9.39988 20.7002 9.49988L54.2002 28.7999C54.5002 28.9999 54.5002 29.1999 54.3002 29.3999H54.4002C54.7002 29.1999 54.7002 28.8999 54.4002 28.7999ZM57.1002 27.1999L23.6002 7.89989C23.3002 7.69989 22.8002 7.69989 22.5002 7.89989C22.5002 7.89989 22.5002 7.89989 22.4002 7.89989C22.7002 7.79989 23.1002 7.79989 23.4002 7.89989L56.9002 27.1999C57.2002 27.3999 57.2002 27.5999 57.0002 27.7999H57.1002C57.4002 27.6999 57.4002 27.3999 57.1002 27.1999Z" fill="#C9C8BF" style="fill:#C9C8BF;fill:color(display-p3 0.7882 0.7843 0.7490);fill-opacity:1;"/>
<defs>
<linearGradient id="paint0_linear_106_5065" x1="76.0387" y1="56.9314" x2="77.6158" y2="59.663" gradientUnits="userSpaceOnUse">
<stop stop-color="#EEEEEA" style="stop-color:#EEEEEA;stop-color:color(display-p3 0.9333 0.9333 0.9176);stop-opacity:1;"/>
<stop offset="0.4197" stop-color="#ECECE7" style="stop-color:#ECECE7;stop-color:color(display-p3 0.9255 0.9255 0.9059);stop-opacity:1;"/>
<stop offset="0.754" stop-color="#E4E4DD" style="stop-color:#E4E4DD;stop-color:color(display-p3 0.8941 0.8941 0.8667);stop-opacity:1;"/>
<stop offset="1" stop-color="#DBDAD0" style="stop-color:#DBDAD0;stop-color:color(display-p3 0.8588 0.8549 0.8157);stop-opacity:1;"/>
</linearGradient>
</defs>
</svg>
